<svg width="131" height="77" viewBox="0 0 131 77" fill="none" xmlns="http://www.w3.org/2000/svg">
<rect width="130.625" height="49.5" rx="24.75" fill="#1B9BC3"/>
<g clip-path="url(#clip0_199_225058)">
<path d="M59.125 49.5C59.125 49.5 60.3959 61.7241 77.0673 70.956C79.3599 72.1716 80.0909 71.058 79.6091 70.4374C76.1868 65.966 73.7529 57.9583 75.7299 49.5H59.125Z" fill="#1B9BC3"/>
</g>
<path d="M40.7175 29.544L41.0415 29.31C41.4495 29.07 41.7375 28.95 41.9055 28.95C42.2775 28.95 42.6795 29.286 43.1115 29.958C43.3755 30.378 43.5075 30.714 43.5075 30.966C43.5075 31.218 43.4235 31.428 43.2555 31.596C43.0995 31.764 42.9135 31.914 42.6975 32.046C42.4815 32.178 42.2715 32.304 42.0675 32.424C41.8755 32.544 41.4735 32.7 40.8615 32.892C40.2495 33.084 39.6555 33.18 39.0795 33.18C38.5155 33.18 37.9395 33.108 37.3515 32.964C36.7755 32.808 36.1755 32.556 35.5515 32.208C34.9395 31.848 34.3875 31.416 33.8955 30.912C33.4035 30.396 32.9955 29.742 32.6715 28.95C32.3595 28.146 32.2035 27.276 32.2035 26.34C32.2035 25.404 32.3595 24.558 32.6715 23.802C32.9835 23.034 33.3795 22.404 33.8595 21.912C34.3515 21.408 34.9095 20.988 35.5335 20.652C36.7095 20.004 37.8915 19.68 39.0795 19.68C39.6435 19.68 40.2135 19.77 40.7895 19.95C41.3775 20.118 41.8215 20.292 42.1215 20.472L42.5535 20.724C42.7695 20.856 42.9375 20.964 43.0575 21.048C43.3695 21.3 43.5255 21.588 43.5255 21.912C43.5255 22.224 43.3995 22.554 43.1475 22.902C42.6795 23.55 42.2595 23.874 41.8875 23.874C41.6715 23.874 41.3655 23.742 40.9695 23.478C40.4655 23.07 39.7935 22.866 38.9535 22.866C38.1735 22.866 37.4055 23.136 36.6495 23.676C36.2895 23.94 35.9895 24.312 35.7495 24.792C35.5095 25.272 35.3895 25.818 35.3895 26.43C35.3895 27.03 35.5095 27.57 35.7495 28.05C35.9895 28.53 36.2955 28.908 36.6675 29.184C37.3995 29.712 38.1615 29.976 38.9535 29.976C39.3255 29.976 39.6735 29.928 39.9975 29.832C40.3335 29.736 40.5735 29.64 40.7175 29.544ZM53.3843 20.292C53.4803 20.112 53.6423 19.986 53.8703 19.914C54.0983 19.842 54.3863 19.806 54.7343 19.806C55.0823 19.806 55.3583 19.836 55.5623 19.896C55.7663 19.956 55.9223 20.028 56.0303 20.112C56.1383 20.196 56.2223 20.316 56.2823 20.472C56.3423 20.676 56.3723 20.988 56.3723 21.408V31.398C56.3723 31.674 56.3603 31.884 56.3363 32.028C56.3243 32.16 56.2703 32.316 56.1743 32.496C56.0063 32.82 55.5383 32.982 54.7703 32.982C53.9303 32.982 53.4383 32.76 53.2943 32.316C53.2223 32.112 53.1863 31.8 53.1863 31.38V27.726H48.4163V31.398C48.4163 31.674 48.4043 31.884 48.3803 32.028C48.3683 32.16 48.3143 32.316 48.2183 32.496C48.0503 32.82 47.5823 32.982 46.8143 32.982C45.9743 32.982 45.4823 32.76 45.3383 32.316C45.2663 32.112 45.2303 31.8 45.2303 31.38V21.39C45.2303 21.114 45.2363 20.91 45.2483 20.778C45.2723 20.634 45.3323 20.472 45.4283 20.292C45.5963 19.968 46.0643 19.806 46.8323 19.806C47.6723 19.806 48.1703 20.028 48.3263 20.472C48.3863 20.676 48.4163 20.988 48.4163 21.408V25.08H53.1863V21.39C53.1863 21.114 53.1923 20.91 53.2043 20.778C53.2283 20.634 53.2883 20.472 53.3843 20.292ZM61.5423 29.814H67.0863C67.3623 29.814 67.5663 29.826 67.6983 29.85C67.8423 29.862 68.0043 29.916 68.1843 30.012C68.5083 30.18 68.6703 30.648 68.6703 31.416C68.6703 32.256 68.4483 32.748 68.0043 32.892C67.8003 32.964 67.4883 33 67.0683 33H59.9403C59.1003 33 58.6083 32.772 58.4643 32.316C58.3923 32.124 58.3563 31.818 58.3563 31.398V21.39C58.3563 20.778 58.4703 20.364 58.6983 20.148C58.9263 19.92 59.3583 19.806 59.9943 19.806H67.0863C67.3623 19.806 67.5663 19.818 67.6983 19.842C67.8423 19.854 68.0043 19.908 68.1843 20.004C68.5083 20.172 68.6703 20.64 68.6703 21.408C68.6703 22.248 68.4483 22.74 68.0043 22.884C67.8003 22.956 67.4883 22.992 67.0683 22.992H61.5423V24.81H65.1063C65.3823 24.81 65.5863 24.822 65.7183 24.846C65.8623 24.858 66.0243 24.912 66.2043 25.008C66.5283 25.176 66.6903 25.644 66.6903 26.412C66.6903 27.252 66.4623 27.744 66.0063 27.888C65.8023 27.96 65.4903 27.996 65.0703 27.996H61.5423V29.814ZM78.6188 29.544L78.9428 29.31C79.3508 29.07 79.6388 28.95 79.8068 28.95C80.1788 28.95 80.5808 29.286 81.0128 29.958C81.2768 30.378 81.4088 30.714 81.4088 30.966C81.4088 31.218 81.3248 31.428 81.1568 31.596C81.0008 31.764 80.8148 31.914 80.5988 32.046C80.3828 32.178 80.1728 32.304 79.9688 32.424C79.7768 32.544 79.3748 32.7 78.7628 32.892C78.1508 33.084 77.5568 33.18 76.9808 33.18C76.4168 33.18 75.8408 33.108 75.2528 32.964C74.6768 32.808 74.0768 32.556 73.4528 32.208C72.8408 31.848 72.2888 31.416 71.7968 30.912C71.3048 30.396 70.8968 29.742 70.5728 28.95C70.2608 28.146 70.1048 27.276 70.1048 26.34C70.1048 25.404 70.2608 24.558 70.5728 23.802C70.8848 23.034 71.2808 22.404 71.7608 21.912C72.2528 21.408 72.8108 20.988 73.4348 20.652C74.6108 20.004 75.7928 19.68 76.9808 19.68C77.5448 19.68 78.1148 19.77 78.6908 19.95C79.2788 20.118 79.7228 20.292 80.0228 20.472L80.4548 20.724C80.6708 20.856 80.8388 20.964 80.9588 21.048C81.2708 21.3 81.4268 21.588 81.4268 21.912C81.4268 22.224 81.3008 22.554 81.0488 22.902C80.5808 23.55 80.1608 23.874 79.7888 23.874C79.5728 23.874 79.2668 23.742 78.8708 23.478C78.3668 23.07 77.6948 22.866 76.8548 22.866C76.0748 22.866 75.3068 23.136 74.5508 23.676C74.1908 23.94 73.8908 24.312 73.6508 24.792C73.4108 25.272 73.2908 25.818 73.2908 26.43C73.2908 27.03 73.4108 27.57 73.6508 28.05C73.8908 28.53 74.1968 28.908 74.5688 29.184C75.3008 29.712 76.0628 29.976 76.8548 29.976C77.2268 29.976 77.5748 29.928 77.8988 29.832C78.2348 29.736 78.4748 29.64 78.6188 29.544ZM88.7836 26.376C90.6196 28.14 91.9216 29.466 92.6896 30.354C93.0856 30.798 93.2836 31.176 93.2836 31.488C93.2836 31.788 93.0436 32.148 92.5636 32.568C92.0836 32.976 91.6876 33.18 91.3756 33.18C91.0756 33.18 90.7096 32.928 90.2776 32.424L86.3176 27.906V31.416C86.3176 31.704 86.3056 31.914 86.2816 32.046C86.2696 32.178 86.2156 32.334 86.1196 32.514C85.9516 32.838 85.4836 33 84.7156 33C83.8756 33 83.3836 32.772 83.2396 32.316C83.1676 32.124 83.1316 31.818 83.1316 31.398V21.39C83.1316 21.114 83.1376 20.91 83.1496 20.778C83.1736 20.634 83.2336 20.472 83.3296 20.292C83.4976 19.968 83.9656 19.806 84.7336 19.806C85.5736 19.806 86.0716 20.028 86.2276 20.472C86.2876 20.676 86.3176 20.988 86.3176 21.408V24.846C87.9496 23.01 89.2696 21.504 90.2776 20.328C90.6976 19.836 91.0636 19.59 91.3756 19.59C91.6876 19.59 92.0836 19.8 92.5636 20.22C93.0436 20.628 93.2836 20.988 93.2836 21.3C93.2836 21.6 93.1036 21.96 92.7436 22.38C92.0476 23.184 90.9676 24.288 89.5036 25.692L88.7836 26.376ZM95.3477 30.264C95.4677 30.024 95.6477 29.862 95.8877 29.778C96.1397 29.694 96.5237 29.652 97.0397 29.652C97.5677 29.652 97.9457 29.766 98.1737 29.994C98.4137 30.222 98.5337 30.582 98.5337 31.074V31.362C98.5337 31.65 98.5217 31.866 98.4977 32.01C98.4857 32.142 98.4317 32.304 98.3357 32.496C98.1437 32.844 97.6817 33.018 96.9497 33.018C96.2297 33.018 95.7497 32.904 95.5097 32.676C95.2817 32.436 95.1677 31.98 95.1677 31.308C95.1677 30.84 95.2277 30.492 95.3477 30.264ZM97.7597 28.158C97.5317 28.218 97.2257 28.248 96.8417 28.248C96.4577 28.248 96.1517 28.218 95.9237 28.158C95.6957 28.098 95.5337 27.99 95.4377 27.834C95.3537 27.678 95.2997 27.54 95.2757 27.42C95.2637 27.3 95.2577 27.114 95.2577 26.862V21.156C95.2577 20.904 95.2637 20.718 95.2757 20.598C95.2997 20.466 95.3597 20.322 95.4557 20.166C95.5517 20.01 95.7137 19.902 95.9417 19.842C96.1697 19.77 96.4757 19.734 96.8597 19.734C97.2437 19.734 97.5497 19.77 97.7777 19.842C98.0057 19.902 98.1617 20.016 98.2457 20.184C98.3417 20.34 98.3957 20.484 98.4077 20.616C98.4317 20.736 98.4437 20.922 98.4437 21.174V26.88C98.4437 27.132 98.4317 27.318 98.4077 27.438C98.3957 27.558 98.3417 27.696 98.2457 27.852C98.1497 27.996 97.9877 28.098 97.7597 28.158Z" fill="white"/>
<defs>
<clipPath id="clip0_199_225058">
<rect width="26.125" height="27.5" fill="white" transform="translate(56.375 49.5)"/>
</clipPath>
</defs>
</svg>
