<svg width="894" height="142" viewBox="0 0 894 142" fill="none" xmlns="http://www.w3.org/2000/svg">
<mask id="path-1-outside-1_1_208" maskUnits="userSpaceOnUse" x="0" y="23" width="880" height="105" fill="black">
<rect fill="white" y="23" width="880" height="105"/>
<path d="M49.8 83.8L51.6 82.5C53.8667 81.1667 55.4667 80.5 56.4 80.5C58.4667 80.5 60.7 82.3667 63.1 86.1C64.5667 88.4333 65.3 90.3 65.3 91.7C65.3 93.1 64.8333 94.2667 63.9 95.2C63.0333 96.1333 62 96.9667 60.8 97.7C59.6 98.4333 58.4333 99.1333 57.3 99.8C56.2333 100.467 54 101.333 50.6 102.4C47.2 103.467 43.9 104 40.7 104C37.5667 104 34.3667 103.6 31.1 102.8C27.9 101.933 24.5667 100.533 21.1 98.6C17.7 96.6 14.6333 94.2 11.9 91.4C9.16667 88.5333 6.9 84.9 5.1 80.5C3.36667 76.0333 2.5 71.2 2.5 66C2.5 60.8 3.36667 56.1 5.1 51.9C6.83333 47.6333 9.03333 44.1333 11.7 41.4C14.4333 38.6 17.5333 36.2667 21 34.4C27.5333 30.8 34.1 29 40.7 29C43.8333 29 47 29.5 50.2 30.5C53.4667 31.4333 55.9333 32.4 57.6 33.4L60 34.8C61.2 35.5333 62.1333 36.1333 62.8 36.6C64.5333 38 65.4 39.6 65.4 41.4C65.4 43.1333 64.7 44.9667 63.3 46.9C60.7 50.5 58.3667 52.3 56.3 52.3C55.1 52.3 53.4 51.5667 51.2 50.1C48.4 47.8333 44.6667 46.7 40 46.7C35.6667 46.7 31.4 48.2 27.2 51.2C25.2 52.6667 23.5333 54.7333 22.2 57.4C20.8667 60.0667 20.2 63.1 20.2 66.5C20.2 69.8333 20.8667 72.8333 22.2 75.5C23.5333 78.1667 25.2333 80.2667 27.3 81.8C31.3667 84.7333 35.6 86.2 40 86.2C42.0667 86.2 44 85.9333 45.8 85.4C47.6667 84.8667 49 84.3333 49.8 83.8ZM73.3711 76.7C73.3711 68.7 76.1711 62.1 81.7711 56.9C87.3711 51.7 93.7711 49.1 100.971 49.1C108.171 49.1 114.538 51.7 120.071 56.9C125.604 62.0333 128.371 68.6 128.371 76.6C128.371 82.1333 126.938 87.0667 124.071 91.4C121.204 95.6667 117.704 98.8333 113.571 100.9C109.504 102.9 105.271 103.9 100.871 103.9C96.4711 103.9 92.2044 102.833 88.0711 100.7C83.9378 98.5 80.4378 95.3 77.5711 91.1C74.7711 86.8333 73.3711 82.0333 73.3711 76.7ZM94.2711 83.9C96.4044 85.5 98.5711 86.3 100.771 86.3C102.971 86.3 105.171 85.4667 107.371 83.8C109.571 82.1333 110.671 79.6667 110.671 76.4C110.671 73.1333 109.638 70.7 107.571 69.1C105.504 67.5 103.271 66.7 100.871 66.7C98.4711 66.7 96.2378 67.5333 94.1711 69.2C92.1044 70.8667 91.0711 73.3333 91.0711 76.6C91.0711 79.8 92.1378 82.2333 94.2711 83.9ZM155.032 57.3C158.165 52.5667 161.932 50.2 166.332 50.2C173.132 50.2 178.199 53.1 181.532 58.9C182.265 57.9 183.132 56.8667 184.132 55.8C185.199 54.6667 186.865 53.4667 189.132 52.2C191.399 50.8667 193.732 50.2 196.132 50.2C201.465 50.2 205.932 52.2667 209.532 56.4C213.132 60.4667 214.932 67.2333 214.932 76.7V94.2C214.932 95.7333 214.865 96.9 214.732 97.7C214.665 98.4333 214.365 99.3 213.832 100.3C212.965 102.1 210.399 103 206.132 103C201.932 103 199.365 102.067 198.432 100.2C197.965 99.2 197.665 98.3333 197.532 97.6C197.465 96.8 197.432 95.6333 197.432 94.1V76.6C197.432 70.8 195.365 67.9 191.232 67.9C188.899 67.9 187.299 68.6667 186.432 70.2C185.632 71.7333 185.232 73.9 185.232 76.7V94.2C185.232 95.8 185.165 96.9667 185.032 97.7C184.965 98.4333 184.665 99.3 184.132 100.3C183.199 102.1 180.599 103 176.332 103C172.132 103 169.565 102.067 168.632 100.2C168.165 99.2 167.865 98.3333 167.732 97.6C167.665 96.8 167.632 95.6333 167.632 94.1V76.6C167.632 70.8 165.565 67.9 161.432 67.9C157.432 67.9 155.432 70.8 155.432 76.6V94.3C155.432 95.8333 155.365 97 155.232 97.8C155.165 98.5333 154.865 99.4 154.332 100.4C153.332 102.133 150.732 103 146.532 103C142.332 103 139.765 102.1 138.832 100.3C138.365 99.3 138.065 98.4333 137.932 97.7C137.865 96.9667 137.832 95.8 137.832 94.2V59C137.832 57.4667 137.865 56.3333 137.932 55.6C138.065 54.8 138.399 53.9333 138.932 53C139.932 51.2 142.299 50.3 146.032 50.3C149.765 50.3 152.199 50.9 153.332 52.1C154.465 53.3 155.032 55.0333 155.032 57.3ZM276.691 70.4C276.691 74.4667 275.657 77.5 273.591 79.5C271.591 81.4333 269.357 82.4 266.891 82.4H243.191C243.191 84.2667 244.291 85.8333 246.491 87.1C248.691 88.3667 250.891 89 253.091 89C256.957 89 259.991 88.6 262.191 87.8L263.291 87.4C264.891 86.6667 266.224 86.3 267.291 86.3C269.424 86.3 271.257 87.8 272.791 90.8C273.657 92.6 274.091 94.1333 274.091 95.4C274.091 101.333 266.991 104.3 252.791 104.3C247.857 104.3 243.457 103.467 239.591 101.8C235.791 100.067 232.824 97.8 230.691 95C226.491 89.6 224.391 83.5667 224.391 76.9C224.391 68.5 227.091 61.8 232.491 56.8C237.957 51.7333 244.757 49.2 252.891 49.2C262.157 49.2 268.957 52.4667 273.291 59C275.557 62.4667 276.691 66.2667 276.691 70.4ZM255.591 73.3C258.124 73.3 259.391 72.2333 259.391 70.1C259.391 68.5667 258.791 67.3333 257.591 66.4C256.457 65.4667 254.791 65 252.591 65C250.457 65 248.324 65.9 246.191 67.7C244.057 69.4333 242.991 71.3 242.991 73.3H255.591ZM348.708 55.9C349.108 52.1667 351.741 50.3 356.608 50.3C359.208 50.3 361.141 50.5 362.408 50.9C363.674 51.3 364.541 52 365.008 53C365.541 54 365.841 54.9 365.908 55.7C366.041 56.4333 366.108 57.5667 366.108 59.1V94.1C366.108 95.6333 366.041 96.8 365.908 97.6C365.841 98.3333 365.574 99.2 365.108 100.2C364.174 101.933 361.874 102.8 358.208 102.8C354.608 102.8 352.174 102.367 350.908 101.5C349.708 100.567 349.008 99.2333 348.808 97.5C346.341 101.033 342.208 102.8 336.408 102.8C330.674 102.8 325.341 100.167 320.408 94.9C315.474 89.6333 313.008 83.5333 313.008 76.6C313.008 69.6 315.474 63.5 320.408 58.3C325.408 53.0333 330.874 50.4 336.808 50.4C339.074 50.4 341.141 50.8 343.008 51.6C344.874 52.4 346.174 53.1667 346.908 53.9C347.641 54.5667 348.241 55.2333 348.708 55.9ZM330.508 76.7C330.508 78.9 331.374 80.9 333.108 82.7C334.841 84.4333 336.941 85.3 339.408 85.3C341.874 85.3 343.908 84.4 345.508 82.6C347.174 80.8 348.008 78.8333 348.008 76.7C348.008 74.5 347.208 72.4667 345.608 70.6C344.074 68.7333 341.974 67.8 339.308 67.8C336.708 67.8 334.574 68.7333 332.908 70.6C331.308 72.4667 330.508 74.5 330.508 76.7ZM406.378 50.3C413.045 50.3 418.578 52.8667 422.978 58C427.445 63.0667 429.678 69.2667 429.678 76.6V94.2C429.678 95.7333 429.611 96.9 429.478 97.7C429.411 98.4333 429.145 99.2667 428.678 100.2C427.745 102 425.145 102.9 420.878 102.9C416.145 102.9 413.411 101.667 412.678 99.2C412.278 98.0667 412.078 96.3667 412.078 94.1V76.5C412.078 73.7667 411.278 71.6333 409.678 70.1C408.145 68.5667 406.045 67.8 403.378 67.8C400.778 67.8 398.645 68.6 396.978 70.2C395.378 71.8 394.578 73.9 394.578 76.5V94.2C394.578 95.7333 394.511 96.9 394.378 97.7C394.311 98.4333 394.011 99.2667 393.478 100.2C392.611 102 390.045 102.9 385.778 102.9C381.578 102.9 379.011 102 378.078 100.2C377.611 99.2 377.311 98.3333 377.178 97.6C377.111 96.8 377.078 95.6333 377.078 94.1V58.7C377.078 57.2333 377.111 56.1333 377.178 55.4C377.311 54.6 377.645 53.7333 378.178 52.8C379.111 51.1333 381.678 50.3 385.878 50.3C389.945 50.3 392.445 51.0667 393.378 52.6C394.045 53.7333 394.378 55.1 394.378 56.7C394.645 56.2333 395.245 55.5667 396.178 54.7C397.111 53.8333 398.011 53.1333 398.878 52.6C401.145 51.0667 403.645 50.3 406.378 50.3ZM476.023 28.4C476.556 27.4 477.456 26.7 478.723 26.3C479.989 25.9 481.656 25.7 483.723 25.7C485.856 25.7 487.556 25.9 488.823 26.3C490.089 26.7 490.956 27.4 491.423 28.4C491.956 29.4 492.256 30.3 492.323 31.1C492.456 31.8333 492.523 32.9667 492.523 34.5V94.2C492.523 95.7333 492.456 96.9 492.323 97.7C492.256 98.4333 491.956 99.2667 491.423 100.2C490.423 102 487.589 102.9 482.923 102.9C478.323 102.9 475.756 101.267 475.223 98C472.423 101.2 468.523 102.8 463.523 102.8C457.523 102.8 452.056 100.2 447.123 95C442.189 89.7333 439.723 83.6333 439.723 76.7C439.723 69.7 442.189 63.5667 447.123 58.3C452.123 53.0333 457.589 50.4 463.523 50.4C468.456 50.4 472.289 52.0667 475.023 55.4V34.4C475.023 32.8667 475.056 31.7333 475.123 31C475.256 30.2 475.556 29.3333 476.023 28.4ZM459.823 82.7C461.556 84.5 463.656 85.4 466.123 85.4C468.589 85.4 470.623 84.5 472.223 82.7C473.889 80.9 474.723 78.9333 474.723 76.8C474.723 74.6 473.923 72.5667 472.323 70.7C470.789 68.8333 468.689 67.9 466.023 67.9C463.356 67.9 461.223 68.8333 459.623 70.7C458.023 72.5 457.223 74.5 457.223 76.7C457.223 78.9 458.089 80.9 459.823 82.7ZM545.181 42.5C543.981 42.8333 542.348 43 540.281 43C538.215 43 536.581 42.8 535.381 42.4C534.181 42 533.315 41.3333 532.781 40.4C532.315 39.4 532.015 38.5333 531.881 37.8C531.815 37 531.781 35.8333 531.781 34.3C531.781 32.7667 531.815 31.6333 531.881 30.9C532.015 30.1667 532.315 29.3333 532.781 28.4C533.715 26.6667 536.281 25.8 540.481 25.8C544.481 25.8 546.981 26.6667 547.981 28.4C548.448 29.2667 548.715 30.0667 548.781 30.8C548.915 31.5333 548.981 32.6333 548.981 34.1V34.7C548.981 36.1667 548.915 37.2667 548.781 38C548.715 38.7333 548.415 39.5667 547.881 40.5C547.348 41.4333 546.448 42.1 545.181 42.5ZM535.481 50.6C536.748 50.2 538.415 50 540.481 50C542.548 50 544.181 50.2 545.381 50.6C546.581 51 547.415 51.7 547.881 52.7C548.415 53.6333 548.715 54.5 548.781 55.3C548.915 56.0333 548.981 57.1667 548.981 58.7V99.9C548.981 107.7 546.281 113.933 540.881 118.6C535.481 123.267 529.548 125.6 523.081 125.6C521.548 125.6 520.415 125.533 519.681 125.4C518.948 125.333 518.115 125.067 517.181 124.6C515.448 123.667 514.581 121.233 514.581 117.3C514.581 113.367 515.315 110.9 516.781 109.9C518.181 108.9 520.115 108.4 522.581 108.4C524.981 108.4 527.115 107.733 528.981 106.4C530.848 105.067 531.781 102.667 531.781 99.2V58C531.781 55.6667 532.081 53.9667 532.681 52.9C533.348 51.7667 534.281 51 535.481 50.6ZM558.477 76.7C558.477 68.7 561.277 62.1 566.877 56.9C572.477 51.7 578.877 49.1 586.077 49.1C593.277 49.1 599.643 51.7 605.177 56.9C610.71 62.0333 613.477 68.6 613.477 76.6C613.477 82.1333 612.043 87.0667 609.177 91.4C606.31 95.6667 602.81 98.8333 598.677 100.9C594.61 102.9 590.377 103.9 585.977 103.9C581.577 103.9 577.31 102.833 573.177 100.7C569.043 98.5 565.543 95.3 562.677 91.1C559.877 86.8333 558.477 82.0333 558.477 76.7ZM579.377 83.9C581.51 85.5 583.677 86.3 585.877 86.3C588.077 86.3 590.277 85.4667 592.477 83.8C594.677 82.1333 595.777 79.6667 595.777 76.4C595.777 73.1333 594.743 70.7 592.677 69.1C590.61 67.5 588.377 66.7 585.977 66.7C583.577 66.7 581.343 67.5333 579.277 69.2C577.21 70.8667 576.177 73.3333 576.177 76.6C576.177 79.8 577.243 82.2333 579.377 83.9ZM622.938 59.1C622.938 57.5667 622.971 56.4333 623.038 55.7C623.171 54.9 623.471 54 623.938 53C624.871 51.2667 627.471 50.4 631.738 50.4C634.938 50.4 637.204 50.9667 638.538 52.1C639.671 53.0333 640.271 54.4667 640.338 56.4C640.404 57.0667 640.438 58.0333 640.438 59.3V94.3C640.438 95.8333 640.371 97 640.238 97.8C640.171 98.5333 639.871 99.4 639.338 100.4C638.471 102.133 635.904 103 631.638 103C627.438 103 624.871 102.1 623.938 100.3C623.471 99.3 623.171 98.4333 623.038 97.7C622.971 96.9667 622.938 95.8 622.938 94.2V59.1ZM639.338 40.6C638.871 41.5333 638.004 42.2 636.738 42.6C635.471 43 633.771 43.2 631.638 43.2C629.571 43.2 627.904 43 626.638 42.6C625.371 42.2 624.471 41.5 623.938 40.5C623.471 39.5 623.171 38.6333 623.038 37.9C622.971 37.1 622.938 35.9333 622.938 34.4C622.938 32.8667 622.971 31.7333 623.038 31C623.171 30.2 623.471 29.3333 623.938 28.4C624.871 26.6 627.471 25.7 631.738 25.7C635.938 25.7 638.471 26.6 639.338 28.4C639.871 29.4 640.171 30.3 640.238 31.1C640.371 31.8333 640.438 32.9667 640.438 34.5C640.438 36.0333 640.371 37.2 640.238 38C640.171 38.7333 639.871 39.6 639.338 40.6ZM680.726 50.3C687.392 50.3 692.926 52.8667 697.326 58C701.792 63.0667 704.026 69.2667 704.026 76.6V94.2C704.026 95.7333 703.959 96.9 703.826 97.7C703.759 98.4333 703.492 99.2667 703.026 100.2C702.092 102 699.492 102.9 695.226 102.9C690.492 102.9 687.759 101.667 687.026 99.2C686.626 98.0667 686.426 96.3667 686.426 94.1V76.5C686.426 73.7667 685.626 71.6333 684.026 70.1C682.492 68.5667 680.392 67.8 677.726 67.8C675.126 67.8 672.992 68.6 671.326 70.2C669.726 71.8 668.926 73.9 668.926 76.5V94.2C668.926 95.7333 668.859 96.9 668.726 97.7C668.659 98.4333 668.359 99.2667 667.826 100.2C666.959 102 664.392 102.9 660.126 102.9C655.926 102.9 653.359 102 652.426 100.2C651.959 99.2 651.659 98.3333 651.526 97.6C651.459 96.8 651.426 95.6333 651.426 94.1V58.7C651.426 57.2333 651.459 56.1333 651.526 55.4C651.659 54.6 651.992 53.7333 652.526 52.8C653.459 51.1333 656.026 50.3 660.226 50.3C664.292 50.3 666.792 51.0667 667.726 52.6C668.392 53.7333 668.726 55.1 668.726 56.7C668.992 56.2333 669.592 55.5667 670.526 54.7C671.459 53.8333 672.359 53.1333 673.226 52.6C675.492 51.0667 677.992 50.3 680.726 50.3ZM766.763 102.8C760.03 102.8 754.43 100.267 749.963 95.2C745.563 90.0667 743.363 83.8333 743.363 76.5V59C743.363 57.4 743.397 56.2333 743.463 55.5C743.597 54.7667 743.897 53.9 744.363 52.9C745.297 51.1 747.897 50.2 752.163 50.2C756.83 50.2 759.563 51.4667 760.363 54C760.763 55.0667 760.963 56.7667 760.963 59.1V76.6C760.963 79.3333 761.73 81.4667 763.263 83C764.863 84.5333 766.963 85.3 769.563 85.3C772.23 85.3 774.363 84.5 775.963 82.9C777.63 81.3 778.463 79.2 778.463 76.6V58.9C778.463 57.3667 778.497 56.2333 778.563 55.5C778.697 54.7 779.03 53.8 779.563 52.8C780.43 51.0667 782.997 50.2 787.263 50.2C791.463 50.2 794.03 51.1 794.963 52.9C795.43 53.9 795.697 54.8 795.763 55.6C795.897 56.3333 795.963 57.4667 795.963 59V94.4C795.963 95.8667 795.897 97 795.763 97.8C795.697 98.5333 795.397 99.3667 794.863 100.3C793.863 102.033 791.297 102.9 787.163 102.9C783.097 102.9 780.597 102.1 779.663 100.5C778.997 99.3667 778.663 98 778.663 96.4C778.397 96.8667 777.797 97.5333 776.863 98.4C775.93 99.2667 775.03 100 774.163 100.6C771.897 102.067 769.43 102.8 766.763 102.8ZM807.408 98.3C806.141 97.5 805.508 96.2333 805.508 94.5C805.508 92.7667 806.774 90.1333 809.308 86.6C810.041 85.4667 811.208 84.9 812.808 84.9C814.474 84.9 816.708 85.7333 819.508 87.4C822.308 89 824.841 89.8 827.108 89.8C831.174 89.8 833.208 89 833.208 87.4C833.208 86.1333 830.974 85.2 826.508 84.6C822.308 84 818.141 82.4333 814.008 79.9C812.074 78.7 810.474 76.8333 809.208 74.3C807.941 71.7 807.308 68.6333 807.308 65.1C807.308 54.5667 814.541 49.3 829.008 49.3C833.741 49.3 838.608 50.4333 843.608 52.7C845.941 53.7667 847.108 55.1 847.108 56.7C847.108 58.3 846.374 60.2667 844.908 62.6C843.441 64.9333 841.941 66.1 840.408 66.1C839.608 66.1 838.108 65.6 835.908 64.6C833.774 63.6 831.441 63.1 828.908 63.1C824.974 63.1 823.008 63.8333 823.008 65.3C823.008 67.3 825.274 68.6 829.808 69.2C834.208 69.6667 838.474 70.9333 842.608 73C844.541 73.9333 846.141 75.5667 847.408 77.9C848.741 80.1667 849.408 83.0333 849.408 86.5C849.408 89.9667 848.741 92.9333 847.408 95.4C846.141 97.8 844.341 99.6 842.008 100.8C837.741 102.867 832.374 103.9 825.908 103.9C819.508 103.9 813.341 102.033 807.408 98.3ZM859.934 87.8C860.6 86.4667 861.6 85.5667 862.934 85.1C864.334 84.6333 866.467 84.4 869.334 84.4C872.267 84.4 874.367 85.0333 875.634 86.3C876.967 87.5667 877.634 89.5667 877.634 92.3V93.9C877.634 95.5 877.567 96.7 877.434 97.5C877.367 98.2333 877.067 99.1333 876.534 100.2C875.467 102.133 872.9 103.1 868.834 103.1C864.834 103.1 862.167 102.467 860.834 101.2C859.567 99.8667 858.934 97.3333 858.934 93.6C858.934 91 859.267 89.0667 859.934 87.8ZM873.334 76.1C872.067 76.4333 870.367 76.6 868.234 76.6C866.1 76.6 864.4 76.4333 863.134 76.1C861.867 75.7667 860.967 75.1667 860.434 74.3C859.967 73.4333 859.667 72.6667 859.534 72C859.467 71.3333 859.434 70.3 859.434 68.9V37.2C859.434 35.8 859.467 34.7667 859.534 34.1C859.667 33.3667 860 32.5667 860.534 31.7C861.067 30.8333 861.967 30.2333 863.234 29.9C864.5 29.5 866.2 29.3 868.334 29.3C870.467 29.3 872.167 29.5 873.434 29.9C874.7 30.2333 875.567 30.8667 876.034 31.8C876.567 32.6667 876.867 33.4667 876.934 34.2C877.067 34.8667 877.134 35.9 877.134 37.3V69C877.134 70.4 877.067 71.4333 876.934 72.1C876.867 72.7667 876.567 73.5333 876.034 74.4C875.5 75.2 874.6 75.7667 873.334 76.1Z"/>
</mask>
<path d="M49.8 83.8L50.9094 85.4641L50.9406 85.4433L50.971 85.4214L49.8 83.8ZM51.6 82.5L50.586 80.7761L50.5051 80.8237L50.429 80.8786L51.6 82.5ZM63.1 86.1L64.7933 85.0357L64.7879 85.027L64.7824 85.0185L63.1 86.1ZM63.9 95.2L62.4858 93.7858L62.4596 93.812L62.4344 93.8391L63.9 95.2ZM57.3 99.8L56.286 98.0761L56.2628 98.0898L56.24 98.104L57.3 99.8ZM50.6 102.4L51.1987 104.308L51.1987 104.308L50.6 102.4ZM31.1 102.8L30.5772 104.73L30.6006 104.737L30.6243 104.743L31.1 102.8ZM21.1 98.6L20.086 100.324L20.1058 100.336L20.1259 100.347L21.1 98.6ZM11.9 91.4L10.4525 92.7802L10.4606 92.7887L10.4689 92.7971L11.9 91.4ZM5.1 80.5L3.23547 81.2235L3.24203 81.2405L3.24891 81.2573L5.1 80.5ZM5.1 51.9L6.94878 52.663L6.95293 52.6528L5.1 51.9ZM11.7 41.4L10.2689 40.0029L10.2684 40.0033L11.7 41.4ZM21 34.4L21.9482 36.1609L21.9567 36.1563L21.9652 36.1517L21 34.4ZM50.2 30.5L49.6035 32.409L49.6269 32.4163L49.6506 32.423L50.2 30.5ZM57.6 33.4L56.571 35.115L56.5816 35.1213L56.5923 35.1276L57.6 33.4ZM60 34.8L61.0429 33.0934L61.0254 33.0828L61.0077 33.0724L60 34.8ZM62.8 36.6L64.0567 35.0441L64.0032 35.0009L63.9469 34.9615L62.8 36.6ZM63.3 46.9L61.6801 45.727L61.6786 45.729L63.3 46.9ZM51.2 50.1L49.9416 51.6545L50.0136 51.7127L50.0906 51.7641L51.2 50.1ZM27.2 51.2L26.0375 49.5725L26.0274 49.5798L26.0173 49.5872L27.2 51.2ZM22.2 75.5L23.9889 74.6056L22.2 75.5ZM27.3 81.8L26.1083 83.4062L26.1191 83.4142L26.13 83.4221L27.3 81.8ZM45.8 85.4L45.2506 83.477L45.2412 83.4796L45.2318 83.4824L45.8 85.4ZM50.971 85.4214L52.771 84.1214L50.429 80.8786L48.629 82.1786L50.971 85.4214ZM52.614 84.2239C53.7045 83.5825 54.5847 83.1314 55.2692 82.8462C55.6099 82.7042 55.879 82.6131 56.084 82.5591C56.1851 82.5325 56.2624 82.5172 56.3184 82.5087C56.3749 82.5001 56.4005 82.5 56.4 82.5V78.5C55.5308 78.5 54.6016 78.791 53.7308 79.1538C52.8153 79.5353 51.7622 80.0842 50.586 80.7761L52.614 84.2239ZM56.4 82.5C56.805 82.5 57.4405 82.6807 58.3424 83.4346C59.2448 84.1888 60.2761 85.4057 61.4176 87.1815L64.7824 85.0185C63.5239 83.0609 62.2386 81.4779 60.9076 80.3654C59.5762 79.2526 58.0617 78.5 56.4 78.5V82.5ZM61.4067 87.1643C62.8338 89.4346 63.3 90.8941 63.3 91.7H67.3C67.3 89.7059 66.2996 87.4321 64.7933 85.0357L61.4067 87.1643ZM63.3 91.7C63.3 92.6053 63.0195 93.252 62.4858 93.7858L65.3142 96.6142C66.6471 95.2813 67.3 93.5947 67.3 91.7H63.3ZM62.4344 93.8391C61.7044 94.6253 60.8171 95.3456 59.7571 95.9934L61.8429 99.4066C63.1829 98.5877 64.3623 97.6414 65.3656 96.5609L62.4344 93.8391ZM59.7571 95.9934C58.566 96.7213 57.409 97.4155 56.286 98.0761L58.314 101.524C59.4577 100.851 60.634 100.145 61.8429 99.4066L59.7571 95.9934ZM56.24 98.104C55.4235 98.6143 53.4333 99.415 50.0013 100.492L51.1987 104.308C54.5667 103.252 57.0432 102.319 58.36 101.496L56.24 98.104ZM50.0013 100.492C46.7733 101.504 43.6753 102 40.7 102V106C44.1247 106 47.6267 105.429 51.1987 104.308L50.0013 100.492ZM40.7 102C37.7382 102 34.698 101.622 31.5757 100.857L30.6243 104.743C34.0353 105.578 37.3951 106 40.7 106V102ZM31.6228 100.87C28.6075 100.053 25.4254 98.7223 22.0741 96.8533L20.1259 100.347C23.7079 102.344 27.1925 103.814 30.5772 104.73L31.6228 100.87ZM22.114 96.8761C18.8657 94.9653 15.9395 92.6749 13.3311 90.0029L10.4689 92.7971C13.3271 95.7251 16.5343 98.2347 20.086 100.324L22.114 96.8761ZM13.3475 90.0198C10.8171 87.366 8.67505 83.9569 6.95109 79.7427L3.24891 81.2573C5.12495 85.8431 7.51626 89.7006 10.4525 92.7802L13.3475 90.0198ZM6.96453 79.7764C5.3281 75.5595 4.5 70.9737 4.5 66H0.5C0.5 71.4263 1.40524 76.5072 3.23547 81.2235L6.96453 79.7764ZM4.5 66C4.5 61.0242 5.32866 56.5886 6.94875 52.663L3.25125 51.137C1.40467 55.6114 0.5 60.5758 0.5 66H4.5ZM6.95293 52.6528C8.60841 48.5777 10.6788 45.3107 13.1316 42.7966L10.2684 40.0033C7.38785 42.956 5.05826 46.6889 3.24707 51.1472L6.95293 52.6528ZM13.1311 42.7971C15.722 40.143 18.6589 37.9321 21.9482 36.1609L20.0518 32.6391C16.4078 34.6012 13.1447 37.0569 10.2689 40.0029L13.1311 42.7971ZM21.9652 36.1517C28.242 32.693 34.4795 31 40.7 31V27C33.7205 27 26.8247 28.907 20.0348 32.6483L21.9652 36.1517ZM40.7 31C43.6173 31 46.583 31.4651 49.6035 32.409L50.7966 28.591C47.417 27.5349 44.0493 27 40.7 27V31ZM49.6506 32.423C52.8543 33.3384 55.1258 34.2479 56.571 35.115L58.629 31.685C56.7408 30.5521 54.079 29.5283 50.7494 28.5769L49.6506 32.423ZM56.5923 35.1276L58.9923 36.5276L61.0077 33.0724L58.6077 31.6724L56.5923 35.1276ZM58.9571 36.5066C60.1431 37.2314 61.0361 37.8066 61.6531 38.2385L63.9469 34.9615C63.2306 34.4601 62.2569 33.8353 61.0429 33.0934L58.9571 36.5066ZM61.5433 38.1559C62.9293 39.2754 63.4 40.3462 63.4 41.4H67.4C67.4 38.8538 66.1373 36.7246 64.0567 35.0441L61.5433 38.1559ZM63.4 41.4C63.4 42.5795 62.9241 44.0091 61.6801 45.727L64.9199 48.073C66.4759 45.9243 67.4 43.6871 67.4 41.4H63.4ZM61.6786 45.729C60.4404 47.4435 59.3364 48.6274 58.3784 49.3664C57.4168 50.1083 56.7377 50.3 56.3 50.3V54.3C57.9289 54.3 59.4499 53.5917 60.8216 52.5336C62.1969 51.4726 63.5596 49.9565 64.9214 48.071L61.6786 45.729ZM56.3 50.3C56.0796 50.3 55.6389 50.2249 54.9172 49.9136C54.2137 49.6101 53.3478 49.1282 52.3094 48.4359L50.0906 51.7641C51.2522 52.5385 52.3363 53.1565 53.3328 53.5864C54.3111 54.0084 55.3204 54.3 56.3 54.3V50.3ZM52.4584 48.5455C49.2087 45.9148 44.9877 44.7 40 44.7V48.7C44.3456 48.7 47.5913 49.7519 49.9416 51.6545L52.4584 48.5455ZM40 44.7C35.175 44.7 30.5103 46.3777 26.0375 49.5725L28.3625 52.8275C32.2897 50.0223 36.1583 48.7 40 48.7V44.7ZM26.0173 49.5872C23.7142 51.2761 21.8581 53.6116 20.4111 56.5056L23.9889 58.2944C25.2085 55.855 26.6858 54.0572 28.3827 52.8128L26.0173 49.5872ZM20.4111 56.5056C18.9206 59.4866 18.2 62.8333 18.2 66.5H22.2C22.2 63.3667 22.8127 60.6467 23.9889 58.2944L20.4111 56.5056ZM18.2 66.5C18.2 70.1068 18.9233 73.4187 20.4111 76.3944L23.9889 74.6056C22.81 72.248 22.2 69.5599 22.2 66.5H18.2ZM20.4111 76.3944C21.8626 79.2973 23.7523 81.6582 26.1083 83.4062L28.4917 80.1938C26.7144 78.8752 25.2041 77.036 23.9889 74.6056L20.4111 76.3944ZM26.13 83.4221C30.4879 86.5654 35.1229 88.2 40 88.2V84.2C36.0771 84.2 32.2455 82.9012 28.47 80.1779L26.13 83.4221ZM40 88.2C42.2398 88.2 44.3662 87.9108 46.3682 87.3176L45.2318 83.4824C43.6338 83.9559 41.8935 84.2 40 84.2V88.2ZM46.3494 87.323C48.2554 86.7785 49.839 86.1777 50.9094 85.4641L48.6906 82.1359C48.161 82.489 47.0779 82.9549 45.2506 83.477L46.3494 87.323ZM81.7711 56.9L83.132 58.3656L83.132 58.3656L81.7711 56.9ZM120.071 56.9L118.701 58.3575L118.711 58.3662L120.071 56.9ZM124.071 91.4L125.731 92.5154L125.735 92.5094L125.739 92.5035L124.071 91.4ZM113.571 100.9L114.454 102.695L114.466 102.689L113.571 100.9ZM88.0711 100.7L87.1314 102.465L87.1426 102.471L87.1538 102.477L88.0711 100.7ZM77.5711 91.1L75.899 92.1973L75.909 92.2125L75.9192 92.2275L77.5711 91.1ZM94.2711 83.9L93.0398 85.476L93.0553 85.4882L93.0711 85.5L94.2711 83.9ZM107.371 83.8L106.163 82.2058L106.163 82.2058L107.371 83.8ZM107.571 69.1L106.347 70.6814L106.347 70.6814L107.571 69.1ZM94.1711 69.2L92.9156 67.6432L92.9156 67.6432L94.1711 69.2ZM75.3711 76.7C75.3711 69.2268 77.9606 63.1676 83.132 58.3656L80.4102 55.4344C74.3816 61.0324 71.3711 68.1732 71.3711 76.7H75.3711ZM83.132 58.3656C88.387 53.486 94.3089 51.1 100.971 51.1V47.1C93.2333 47.1 86.3552 49.914 80.4102 55.4344L83.132 58.3656ZM100.971 51.1C107.632 51.1 113.517 53.485 118.701 58.3574L121.441 55.4426C115.559 49.915 108.71 47.1 100.971 47.1V51.1ZM118.711 58.3662C123.81 63.0963 126.371 69.119 126.371 76.6H130.371C130.371 68.081 127.399 60.9703 121.431 55.4338L118.711 58.3662ZM126.371 76.6C126.371 81.7677 125.039 86.3121 122.403 90.2965L125.739 92.5035C128.837 87.8212 130.371 82.499 130.371 76.6H126.371ZM122.411 90.2846C119.715 94.2973 116.467 97.2159 112.677 99.1111L114.466 102.689C118.942 100.451 122.694 97.036 125.731 92.5154L122.411 90.2846ZM112.688 99.1053C108.888 100.974 104.956 101.9 100.871 101.9V105.9C105.586 105.9 110.121 104.826 114.454 102.695L112.688 99.1053ZM100.871 101.9C96.8085 101.9 92.8548 100.918 88.9884 98.9228L87.1538 102.477C91.5541 104.748 96.1337 105.9 100.871 105.9V101.9ZM89.0108 98.9345C85.1871 96.8993 81.9234 93.9289 79.223 89.9725L75.9192 92.2275C78.9521 96.6711 82.6885 100.101 87.1314 102.465L89.0108 98.9345ZM79.2432 90.0027C76.6671 86.0772 75.3711 81.6619 75.3711 76.7H71.3711C71.3711 82.4047 72.8751 87.5895 75.899 92.1973L79.2432 90.0027ZM93.0711 85.5C95.4753 87.3032 98.0529 88.3 100.771 88.3V84.3C99.0893 84.3 97.3335 83.6968 95.4711 82.3L93.0711 85.5ZM100.771 88.3C103.508 88.3 106.121 87.2561 108.579 85.3942L106.163 82.2058C104.221 83.6772 102.434 84.3 100.771 84.3V88.3ZM108.579 85.3942C111.373 83.2775 112.671 80.1633 112.671 76.4H108.671C108.671 79.1701 107.769 80.9891 106.163 82.2058L108.579 85.3942ZM112.671 76.4C112.671 72.6851 111.472 69.5907 108.795 67.5186L106.347 70.6814C107.804 71.8093 108.671 73.5816 108.671 76.4H112.671ZM108.795 67.5186C106.411 65.6729 103.754 64.7 100.871 64.7V68.7C102.788 68.7 104.597 69.3271 106.347 70.6814L108.795 67.5186ZM100.871 64.7C97.9652 64.7 95.2977 65.7221 92.9156 67.6432L95.4266 70.7568C97.1778 69.3445 98.977 68.7 100.871 68.7V64.7ZM92.9156 67.6432C90.2705 69.7763 89.0711 72.8819 89.0711 76.6H93.0711C93.0711 73.7848 93.9384 71.957 95.4266 70.7568L92.9156 67.6432ZM89.0711 76.6C89.0711 80.29 90.3302 83.3592 93.0398 85.476L95.5024 82.3239C93.9453 81.1075 93.0711 79.31 93.0711 76.6H89.0711ZM155.032 57.3H153.032V63.9445L156.7 58.404L155.032 57.3ZM181.532 58.9L179.798 59.8966L181.328 62.5596L183.145 60.0827L181.532 58.9ZM184.132 55.8L182.676 54.4293L182.673 54.4321L184.132 55.8ZM189.132 52.2L190.108 53.9459L190.127 53.9351L190.146 53.9239L189.132 52.2ZM209.532 56.4L208.024 57.7136L208.029 57.7196L208.035 57.7257L209.532 56.4ZM214.732 97.7L212.759 97.3712L212.747 97.4447L212.74 97.5189L214.732 97.7ZM213.832 100.3L212.067 99.3588L212.048 99.3952L212.03 99.4324L213.832 100.3ZM198.432 100.2L196.62 101.046L196.631 101.07L196.643 101.094L198.432 100.2ZM197.532 97.6L195.539 97.7661L195.547 97.8625L195.564 97.9578L197.532 97.6ZM186.432 70.2L184.691 69.2159L184.674 69.2451L184.659 69.2749L186.432 70.2ZM185.032 97.7L183.064 97.3422L183.048 97.43L183.04 97.5189L185.032 97.7ZM184.132 100.3L182.367 99.3588L182.362 99.3691L182.357 99.3794L184.132 100.3ZM168.632 100.2L166.82 101.046L166.831 101.07L166.843 101.094L168.632 100.2ZM167.732 97.6L165.739 97.7661L165.747 97.8625L165.764 97.9578L167.732 97.6ZM155.232 97.8L153.259 97.4712L153.247 97.5447L153.24 97.6189L155.232 97.8ZM154.332 100.4L156.064 101.399L156.081 101.371L156.097 101.341L154.332 100.4ZM138.832 100.3L137.02 101.146L137.037 101.184L137.057 101.221L138.832 100.3ZM137.932 97.7L135.94 97.8811L135.948 97.97L135.964 98.0578L137.932 97.7ZM137.932 55.6L135.959 55.2712L135.947 55.3447L135.94 55.4189L137.932 55.6ZM138.932 53L140.669 53.9923L140.674 53.9818L140.68 53.9713L138.932 53ZM153.332 52.1L151.878 53.4732L151.878 53.4732L153.332 52.1ZM156.7 58.404C159.583 54.0479 162.796 52.2 166.332 52.2V48.2C161.068 48.2 156.747 51.0854 153.364 56.196L156.7 58.404ZM166.332 52.2C172.431 52.2 176.829 54.7299 179.798 59.8966L183.266 57.9034C179.569 51.4701 173.833 48.2 166.332 48.2V52.2ZM183.145 60.0827C183.823 59.1577 184.637 58.186 185.591 57.1679L182.673 54.4321C181.627 55.5473 180.708 56.6423 179.919 57.7173L183.145 60.0827ZM185.588 57.1707C186.453 56.2526 187.917 55.17 190.108 53.9459L188.156 50.4541C185.814 51.7633 183.945 53.0807 182.676 54.4293L185.588 57.1707ZM190.146 53.9239C192.136 52.7535 194.122 52.2 196.132 52.2V48.2C193.342 48.2 190.662 48.9798 188.118 50.4761L190.146 53.9239ZM196.132 52.2C200.869 52.2 204.792 54.0025 208.024 57.7136L211.04 55.0864C207.072 50.5309 202.062 48.2 196.132 48.2V52.2ZM208.035 57.7257C211.144 61.238 212.932 67.3911 212.932 76.7H216.932C216.932 67.0755 215.12 59.6953 211.03 55.0743L208.035 57.7257ZM212.932 76.7V94.2H216.932V76.7H212.932ZM212.932 94.2C212.932 95.7019 212.865 96.7368 212.759 97.3712L216.705 98.0288C216.866 97.0632 216.932 95.7648 216.932 94.2H212.932ZM212.74 97.5189C212.707 97.8823 212.536 98.4805 212.067 99.3588L215.597 101.241C216.195 100.119 216.624 98.9844 216.724 97.8811L212.74 97.5189ZM212.03 99.4324C211.9 99.703 211.564 100.098 210.595 100.438C209.61 100.783 208.153 101 206.132 101V105C208.378 105 210.337 104.767 211.919 104.212C213.517 103.652 214.898 102.697 215.634 101.168L212.03 99.4324ZM206.132 101C204.153 101 202.72 100.777 201.741 100.42C200.785 100.073 200.395 99.6537 200.221 99.3056L196.643 101.094C197.402 102.613 198.762 103.594 200.374 104.18C201.961 104.757 203.911 105 206.132 105V101ZM200.244 99.3542C199.819 98.4428 199.592 97.7472 199.5 97.2422L195.564 97.9578C195.739 98.9195 196.112 99.9572 196.62 101.046L200.244 99.3542ZM199.525 97.4339C199.465 96.7183 199.432 95.618 199.432 94.1H195.432C195.432 95.6486 195.465 96.8817 195.539 97.7661L199.525 97.4339ZM199.432 94.1V76.6H195.432V94.1H199.432ZM199.432 76.6C199.432 73.523 198.895 70.8563 197.511 68.9143C196.038 66.8476 193.826 65.9 191.232 65.9V69.9C192.771 69.9 193.659 70.4024 194.253 71.2357C194.936 72.1937 195.432 73.877 195.432 76.6H199.432ZM191.232 65.9C188.446 65.9 186.027 66.8517 184.691 69.2159L188.173 71.1841C188.57 70.4816 189.351 69.9 191.232 69.9V65.9ZM184.659 69.2749C183.645 71.218 183.232 73.7554 183.232 76.7H187.232C187.232 74.0445 187.619 72.2487 188.205 71.1251L184.659 69.2749ZM183.232 76.7V94.2H187.232V76.7H183.232ZM183.232 94.2C183.232 95.784 183.163 96.7977 183.064 97.3422L187 98.0578C187.167 97.1356 187.232 95.816 187.232 94.2H183.232ZM183.04 97.5189C183.007 97.8823 182.836 98.4805 182.367 99.3588L185.897 101.241C186.495 100.119 186.924 98.9844 187.024 97.8811L183.04 97.5189ZM182.357 99.3794C182.199 99.6825 181.82 100.092 180.828 100.435C179.821 100.784 178.351 101 176.332 101V105C178.579 105 180.543 104.766 182.136 104.215C183.744 103.658 185.131 102.718 185.908 101.221L182.357 99.3794ZM176.332 101C174.353 101 172.92 100.777 171.941 100.42C170.985 100.073 170.595 99.6537 170.421 99.3056L166.843 101.094C167.602 102.613 168.962 103.594 170.574 104.18C172.161 104.757 174.111 105 176.332 105V101ZM170.444 99.3542C170.019 98.4427 169.792 97.7472 169.7 97.2422L165.764 97.9578C165.939 98.9195 166.312 99.9573 166.82 101.046L170.444 99.3542ZM169.725 97.4339C169.665 96.7183 169.632 95.618 169.632 94.1H165.632C165.632 95.6486 165.665 96.8817 165.739 97.7661L169.725 97.4339ZM169.632 94.1V76.6H165.632V94.1H169.632ZM169.632 76.6C169.632 73.523 169.095 70.8563 167.711 68.9143C166.238 66.8476 164.026 65.9 161.432 65.9V69.9C162.971 69.9 163.859 70.4024 164.453 71.2357C165.136 72.1937 165.632 73.877 165.632 76.6H169.632ZM161.432 65.9C158.878 65.9 156.714 66.8683 155.286 68.9395C153.95 70.8765 153.432 73.5321 153.432 76.6H157.432C157.432 73.8679 157.914 72.1735 158.578 71.2105C159.15 70.3817 159.986 69.9 161.432 69.9V65.9ZM153.432 76.6V94.3H157.432V76.6H153.432ZM153.432 94.3C153.432 95.8019 153.365 96.8368 153.259 97.4712L157.205 98.1288C157.366 97.1632 157.432 95.8648 157.432 94.3H153.432ZM153.24 97.6189C153.207 97.9823 153.036 98.5805 152.567 99.4588L156.097 101.341C156.695 100.219 157.124 99.0844 157.224 97.9811L153.24 97.6189ZM152.6 99.4006C152.422 99.7088 152.008 100.117 151 100.453C149.982 100.792 148.519 101 146.532 101V105C148.745 105 150.682 104.775 152.264 104.247C153.856 103.717 155.242 102.825 156.064 101.399L152.6 99.4006ZM146.532 101C144.548 101 143.107 100.784 142.119 100.438C141.149 100.097 140.769 99.6907 140.608 99.3794L137.057 101.221C137.828 102.709 139.199 103.653 140.795 104.212C142.374 104.766 144.316 105 146.532 105V101ZM140.644 99.4542C140.219 98.5427 139.992 97.8472 139.9 97.3422L135.964 98.0578C136.139 99.0195 136.512 100.057 137.02 101.146L140.644 99.4542ZM139.924 97.5189C139.866 96.8821 139.832 95.7926 139.832 94.2H135.832C135.832 95.8074 135.865 97.0512 135.94 97.8811L139.924 97.5189ZM139.832 94.2V59H135.832V94.2H139.832ZM139.832 59C139.832 57.4771 139.866 56.4193 139.924 55.7811L135.94 55.4189C135.865 56.2474 135.832 57.4562 135.832 59H139.832ZM139.905 55.9288C139.989 55.4244 140.217 54.7831 140.669 53.9923L137.196 52.0077C136.581 53.0835 136.142 54.1756 135.959 55.2712L139.905 55.9288ZM140.68 53.9713C141.112 53.1946 142.432 52.3 146.032 52.3V48.3C142.166 48.3 138.752 49.2054 137.184 52.0287L140.68 53.9713ZM146.032 52.3C147.808 52.3 149.174 52.4443 150.178 52.6918C151.202 52.9442 151.679 53.2621 151.878 53.4732L154.786 50.7268C153.852 49.7379 152.546 49.1558 151.136 48.8082C149.706 48.4557 147.99 48.3 146.032 48.3V52.3ZM151.878 53.4732C152.547 54.182 153.032 55.3508 153.032 57.3H157.032C157.032 54.7158 156.383 52.418 154.786 50.7268L151.878 53.4732ZM273.591 79.5L274.981 80.938L274.981 80.9372L273.591 79.5ZM243.191 82.4V80.4H241.191V82.4H243.191ZM246.491 87.1L247.489 85.3668L247.489 85.3668L246.491 87.1ZM262.191 87.8L261.507 85.9204L261.507 85.9204L262.191 87.8ZM263.291 87.4L263.974 89.2796L264.05 89.2519L264.124 89.2181L263.291 87.4ZM272.791 90.8L274.593 89.9324L274.582 89.9109L274.571 89.8898L272.791 90.8ZM239.591 101.8L238.761 103.62L238.78 103.628L238.799 103.637L239.591 101.8ZM230.691 95L232.281 93.7879L232.275 93.78L232.269 93.7721L230.691 95ZM232.491 56.8L233.849 58.2675L233.85 58.2669L232.491 56.8ZM273.291 59L274.965 57.9055L274.957 57.8945L273.291 59ZM257.591 66.4L256.319 67.9439L256.341 67.9616L256.363 67.9787L257.591 66.4ZM246.191 67.7L247.452 69.2522L247.466 69.2405L247.48 69.2286L246.191 67.7ZM242.991 73.3H240.991V75.3H242.991V73.3ZM274.691 70.4C274.691 74.1528 273.739 76.5731 272.2 78.0628L274.981 80.9372C277.575 78.4269 278.691 74.7805 278.691 70.4H274.691ZM272.201 78.062C270.522 79.6848 268.771 80.4 266.891 80.4V84.4C269.944 84.4 272.659 83.1819 274.981 80.938L272.201 78.062ZM266.891 80.4H243.191V84.4H266.891V80.4ZM241.191 82.4C241.191 85.232 242.925 87.3549 245.493 88.8332L247.489 85.3668C245.656 84.3118 245.191 83.3013 245.191 82.4H241.191ZM245.493 88.8332C247.949 90.2474 250.49 91 253.091 91V87C251.292 87 249.432 86.4859 247.489 85.3668L245.493 88.8332ZM253.091 91C257.059 91 260.358 90.5944 262.874 89.6796L261.507 85.9204C259.623 86.6056 256.856 87 253.091 87V91ZM262.874 89.6796L263.974 89.2796L262.607 85.5204L261.507 85.9204L262.874 89.6796ZM264.124 89.2181C265.611 88.5364 266.64 88.3 267.291 88.3V84.3C265.808 84.3 264.17 84.7969 262.457 85.5819L264.124 89.2181ZM267.291 88.3C268.295 88.3 269.603 88.9577 271.01 91.7102L274.571 89.8898C272.912 86.6423 270.553 84.3 267.291 84.3V88.3ZM270.989 91.6676C271.792 93.3368 272.091 94.5577 272.091 95.4H276.091C276.091 93.7089 275.522 91.8632 274.593 89.9324L270.989 91.6676ZM272.091 95.4C272.091 96.4508 271.788 97.3041 271.196 98.0465C270.579 98.82 269.564 99.5739 267.995 100.23C264.816 101.558 259.812 102.3 252.791 102.3V106.3C259.97 106.3 265.615 105.559 269.537 103.92C271.517 103.093 273.165 101.993 274.323 100.541C275.506 99.0584 276.091 97.3158 276.091 95.4H272.091ZM252.791 102.3C248.083 102.3 243.96 101.505 240.382 99.9634L238.799 103.637C242.955 105.428 247.631 106.3 252.791 106.3V102.3ZM240.421 99.9804C236.865 98.3583 234.181 96.281 232.281 93.7879L229.1 96.2121C231.467 99.319 234.717 101.775 238.761 103.62L240.421 99.9804ZM232.269 93.7721C228.335 88.7133 226.391 83.1095 226.391 76.9H222.391C222.391 84.0238 224.647 90.4867 229.112 96.2279L232.269 93.7721ZM226.391 76.9C226.391 68.9704 228.918 62.8339 233.849 58.2675L231.132 55.3325C225.263 60.7661 222.391 68.0296 222.391 76.9H226.391ZM233.85 58.2669C238.912 53.5755 245.211 51.2 252.891 51.2V47.2C244.303 47.2 237.003 49.8912 231.131 55.3331L233.85 58.2669ZM252.891 51.2C261.628 51.2 267.733 54.2389 271.624 60.1055L274.957 57.8945C270.182 50.6944 262.687 47.2 252.891 47.2V51.2ZM271.617 60.0945C273.671 63.2365 274.691 66.6563 274.691 70.4H278.691C278.691 65.877 277.444 61.6968 274.965 57.9055L271.617 60.0945ZM255.591 75.3C257.09 75.3 258.587 74.9916 259.729 74.0298C260.937 73.0126 261.391 71.5737 261.391 70.1H257.391C257.391 70.7596 257.211 70.9207 257.152 70.9702C257.028 71.0751 256.625 71.3 255.591 71.3V75.3ZM261.391 70.1C261.391 67.9557 260.511 66.1374 258.819 64.8213L256.363 67.9787C257.071 68.5293 257.391 69.1776 257.391 70.1H261.391ZM258.862 64.8561C257.23 63.5121 255.032 63 252.591 63V67C254.549 67 255.685 67.4212 256.319 67.9439L258.862 64.8561ZM252.591 63C249.856 63 247.282 64.1623 244.901 66.1714L247.48 69.2286C249.366 67.6377 251.059 67 252.591 67V63ZM244.929 66.1478C242.514 68.1105 240.991 70.4941 240.991 73.3H244.991C244.991 72.1059 245.601 70.7561 247.452 69.2522L244.929 66.1478ZM242.991 75.3H255.591V71.3H242.991V75.3ZM348.708 55.9L347.069 57.0469L350.128 61.4167L350.696 56.1131L348.708 55.9ZM362.408 50.9L363.01 48.9928L363.01 48.9928L362.408 50.9ZM365.008 53L363.195 53.8458L363.218 53.8941L363.243 53.9412L365.008 53ZM365.908 55.7L363.915 55.8661L363.923 55.9625L363.94 56.0578L365.908 55.7ZM365.908 97.6L363.935 97.2712L363.923 97.3447L363.916 97.4189L365.908 97.6ZM365.108 100.2L366.869 101.148L366.896 101.098L366.92 101.046L365.108 100.2ZM350.908 101.5L349.68 103.079L349.728 103.116L349.778 103.151L350.908 101.5ZM348.808 97.5L350.795 97.2708L350.19 92.0268L347.168 96.3552L348.808 97.5ZM320.408 94.9L318.948 96.2673L318.948 96.2673L320.408 94.9ZM320.408 58.3L318.957 56.923L318.957 56.9235L320.408 58.3ZM343.008 51.6L342.22 53.4383L342.22 53.4383L343.008 51.6ZM346.908 53.9L345.494 55.3142L345.527 55.3479L345.562 55.3799L346.908 53.9ZM333.108 82.7L331.667 84.0873L331.68 84.1009L331.694 84.1142L333.108 82.7ZM345.508 82.6L344.04 81.2412L344.026 81.2561L344.013 81.2713L345.508 82.6ZM345.608 70.6L344.062 71.8695L344.076 71.8857L344.089 71.9016L345.608 70.6ZM332.908 70.6L331.416 69.268L331.402 69.2831L331.389 69.2984L332.908 70.6ZM350.696 56.1131C350.846 54.714 351.369 53.8779 352.139 53.3316C352.986 52.7316 354.391 52.3 356.608 52.3V48.3C353.958 48.3 351.613 48.8018 349.826 50.0684C347.964 51.3887 346.969 53.3526 346.719 55.6869L350.696 56.1131ZM356.608 52.3C359.16 52.3 360.841 52.5026 361.806 52.8072L363.01 48.9928C361.441 48.4974 359.256 48.3 356.608 48.3V52.3ZM361.806 52.8072C362.656 53.0757 363.013 53.4556 363.195 53.8458L366.82 52.1542C366.069 50.5443 364.693 49.5243 363.01 48.9928L361.806 52.8072ZM363.243 53.9412C363.697 54.7928 363.878 55.4246 363.915 55.8661L367.901 55.5339C367.804 54.3754 367.385 53.2072 366.773 52.0588L363.243 53.9412ZM363.94 56.0578C364.04 56.6051 364.108 57.5888 364.108 59.1H368.108C368.108 57.5446 368.043 56.2615 367.876 55.3422L363.94 56.0578ZM364.108 59.1V94.1H368.108V59.1H364.108ZM364.108 94.1C364.108 95.6019 364.041 96.6368 363.935 97.2712L367.881 97.9288C368.042 96.9632 368.108 95.6648 368.108 94.1H364.108ZM363.916 97.4189C363.878 97.8374 363.708 98.4697 363.295 99.3542L366.92 101.046C367.441 99.9303 367.804 98.8293 367.9 97.7811L363.916 97.4189ZM363.347 99.2518C362.984 99.9253 361.771 100.8 358.208 100.8V104.8C361.978 104.8 365.365 103.941 366.869 101.148L363.347 99.2518ZM358.208 100.8C356.477 100.8 355.095 100.695 354.033 100.506C352.945 100.312 352.337 100.054 352.037 99.8494L349.778 103.151C350.746 103.812 351.987 104.204 353.332 104.444C354.704 104.688 356.338 104.8 358.208 104.8V100.8ZM352.136 99.9213C351.423 99.3671 350.943 98.5564 350.795 97.2708L346.821 97.7292C347.073 99.9103 347.992 101.766 349.68 103.079L352.136 99.9213ZM347.168 96.3552C345.198 99.1775 341.802 100.8 336.408 100.8V104.8C342.614 104.8 347.485 102.889 350.448 98.6448L347.168 96.3552ZM336.408 100.8C331.363 100.8 326.527 98.5069 321.867 93.5327L318.948 96.2673C324.155 101.826 329.986 104.8 336.408 104.8V100.8ZM321.867 93.5327C317.266 88.62 315.008 83.0031 315.008 76.6H311.008C311.008 84.0636 313.683 90.6467 318.948 96.2673L321.867 93.5327ZM315.008 76.6C315.008 70.1257 317.269 64.5148 321.859 59.6765L318.957 56.9235C313.68 62.4852 311.008 69.0743 311.008 76.6H315.008ZM321.858 59.677C326.571 54.7126 331.542 52.4 336.808 52.4V48.4C330.207 48.4 324.244 51.3541 318.957 56.923L321.858 59.677ZM336.808 52.4C338.835 52.4 340.63 52.7567 342.22 53.4383L343.796 49.7617C341.653 48.8433 339.314 48.4 336.808 48.4V52.4ZM342.22 53.4383C344.033 54.2154 345.04 54.861 345.494 55.3142L348.322 52.4858C347.309 51.4723 345.716 50.5846 343.796 49.7617L342.22 53.4383ZM345.562 55.3799C346.209 55.9675 346.704 56.5247 347.069 57.0469L350.346 54.7531C349.779 53.942 349.073 53.1658 348.253 52.4201L345.562 55.3799ZM328.508 76.7C328.508 79.4887 329.628 81.9694 331.667 84.0873L334.548 81.3127C333.121 79.8306 332.508 78.3113 332.508 76.7H328.508ZM331.694 84.1142C333.805 86.2253 336.414 87.3 339.408 87.3V83.3C337.468 83.3 335.878 82.6414 334.522 81.2858L331.694 84.1142ZM339.408 87.3C342.43 87.3 345.013 86.1674 347.003 83.9287L344.013 81.2713C342.803 82.6326 341.319 83.3 339.408 83.3V87.3ZM346.975 83.9588C348.929 81.8485 350.008 79.4127 350.008 76.7H346.008C346.008 78.254 345.42 79.7515 344.04 81.2412L346.975 83.9588ZM350.008 76.7C350.008 73.9658 348.998 71.482 347.126 69.2984L344.089 71.9016C345.418 73.4513 346.008 75.0342 346.008 76.7H350.008ZM347.153 69.3305C345.197 66.9495 342.502 65.8 339.308 65.8V69.8C341.447 69.8 342.952 70.5172 344.062 71.8695L347.153 69.3305ZM339.308 65.8C336.163 65.8 333.479 66.9578 331.416 69.268L334.4 71.932C335.67 70.5088 337.252 69.8 339.308 69.8V65.8ZM331.389 69.2984C329.518 71.482 328.508 73.9658 328.508 76.7H332.508C332.508 75.0342 333.098 73.4513 334.426 71.9016L331.389 69.2984ZM422.978 58L421.46 59.3016L421.469 59.3121L421.478 59.3226L422.978 58ZM429.478 97.7L427.505 97.3712L427.493 97.4447L427.486 97.5189L429.478 97.7ZM428.678 100.2L430.454 101.121L430.46 101.108L430.467 101.094L428.678 100.2ZM412.678 99.2L414.595 98.6301L414.581 98.5818L414.564 98.5344L412.678 99.2ZM409.678 70.1L408.264 71.5142L408.279 71.5293L408.294 71.544L409.678 70.1ZM396.978 70.2L395.593 68.7572L395.578 68.7714L395.564 68.7858L396.978 70.2ZM394.378 97.7L392.405 97.3712L392.393 97.4447L392.386 97.5189L394.378 97.7ZM393.478 100.2L391.742 99.2077L391.707 99.2689L391.676 99.3324L393.478 100.2ZM378.078 100.2L376.266 101.046L376.283 101.084L376.303 101.121L378.078 100.2ZM377.178 97.6L375.185 97.7661L375.193 97.8625L375.21 97.9578L377.178 97.6ZM377.178 55.4L375.205 55.0712L375.193 55.1447L375.186 55.2189L377.178 55.4ZM378.178 52.8L379.915 53.7923L379.919 53.7848L379.923 53.7772L378.178 52.8ZM393.378 52.6L395.102 51.586L395.094 51.573L395.087 51.5601L393.378 52.6ZM394.378 56.7H392.378V64.2311L396.115 57.6923L394.378 56.7ZM396.178 54.7L397.539 56.1656L397.539 56.1656L396.178 54.7ZM398.878 52.6L399.926 54.3033L399.963 54.2807L399.999 54.2566L398.878 52.6ZM406.378 52.3C412.451 52.3 417.433 54.6043 421.46 59.3016L424.497 56.6984C419.723 51.129 413.638 48.3 406.378 48.3V52.3ZM421.478 59.3226C425.594 63.9914 427.678 69.7085 427.678 76.6H431.678C431.678 68.8248 429.296 62.1419 424.478 56.6774L421.478 59.3226ZM427.678 76.6V94.2H431.678V76.6H427.678ZM427.678 94.2C427.678 95.7019 427.611 96.7368 427.505 97.3712L431.451 98.0288C431.612 97.0632 431.678 95.7648 431.678 94.2H427.678ZM427.486 97.5189C427.45 97.9235 427.287 98.5095 426.889 99.3056L430.467 101.094C431.002 100.024 431.373 98.9431 431.47 97.8811L427.486 97.5189ZM426.903 99.2794C426.745 99.5825 426.366 99.9917 425.374 100.335C424.367 100.684 422.898 100.9 420.878 100.9V104.9C423.125 104.9 425.089 104.666 426.682 104.115C428.29 103.558 429.677 102.618 430.454 101.121L426.903 99.2794ZM420.878 100.9C418.649 100.9 417.102 100.604 416.101 100.152C415.167 99.7306 414.768 99.2122 414.595 98.6301L410.761 99.7699C411.321 101.654 412.656 102.986 414.456 103.798C416.187 104.579 418.374 104.9 420.878 104.9V100.9ZM414.564 98.5344C414.28 97.7283 414.078 96.3038 414.078 94.1H410.078C410.078 96.4295 410.277 98.4051 410.792 99.8656L414.564 98.5344ZM414.078 94.1V76.5H410.078V94.1H414.078ZM414.078 76.5C414.078 73.3574 413.144 70.6513 411.062 68.656L408.294 71.544C409.412 72.6154 410.078 74.1759 410.078 76.5H414.078ZM411.092 68.6858C409.101 66.6948 406.446 65.8 403.378 65.8V69.8C405.644 69.8 407.188 70.4385 408.264 71.5142L411.092 68.6858ZM403.378 65.8C400.332 65.8 397.68 66.7538 395.593 68.7572L398.363 71.6428C399.61 70.4462 401.224 69.8 403.378 69.8V65.8ZM395.564 68.7858C393.532 70.8174 392.578 73.4553 392.578 76.5H396.578C396.578 74.3447 397.224 72.7826 398.392 71.6142L395.564 68.7858ZM392.578 76.5V94.2H396.578V76.5H392.578ZM392.578 94.2C392.578 95.7019 392.511 96.7368 392.405 97.3712L396.351 98.0288C396.512 97.0632 396.578 95.7648 396.578 94.2H392.578ZM392.386 97.5189C392.355 97.8665 392.193 98.4181 391.742 99.2077L395.215 101.192C395.83 100.115 396.268 99.0001 396.37 97.8811L392.386 97.5189ZM391.676 99.3324C391.546 99.603 391.21 99.9981 390.241 100.338C389.256 100.683 387.799 100.9 385.778 100.9V104.9C388.024 104.9 389.983 104.667 391.565 104.112C393.163 103.552 394.544 102.597 395.28 101.068L391.676 99.3324ZM385.778 100.9C383.795 100.9 382.353 100.684 381.365 100.338C380.395 99.9975 380.015 99.5907 379.854 99.2794L376.303 101.121C377.075 102.609 378.445 103.553 380.041 104.112C381.62 104.666 383.562 104.9 385.778 104.9V100.9ZM379.89 99.3542C379.465 98.4427 379.238 97.7472 379.146 97.2422L375.21 97.9578C375.385 98.9195 375.758 99.9573 376.266 101.046L379.89 99.3542ZM379.171 97.4339C379.112 96.7183 379.078 95.618 379.078 94.1H375.078C375.078 95.6486 375.111 96.8817 375.185 97.7661L379.171 97.4339ZM379.078 94.1V58.7H375.078V94.1H379.078ZM379.078 58.7C379.078 57.247 379.112 56.2209 379.17 55.5811L375.186 55.2189C375.111 56.0458 375.078 57.2197 375.078 58.7H379.078ZM379.151 55.7288C379.235 55.2244 379.463 54.5831 379.915 53.7923L376.442 51.8077C375.827 52.8835 375.388 53.9756 375.205 55.0712L379.151 55.7288ZM379.923 53.7772C380.058 53.5358 380.419 53.1526 381.421 52.8272C382.426 52.5009 383.885 52.3 385.878 52.3V48.3C383.671 48.3 381.747 48.5157 380.186 49.0227C378.621 49.5307 377.231 50.3975 376.433 51.8228L379.923 53.7772ZM385.878 52.3C387.81 52.3 389.232 52.485 390.217 52.7871C391.209 53.0913 391.553 53.4473 391.67 53.6399L395.087 51.5601C394.27 50.2193 392.898 49.4254 391.39 48.9629C389.875 48.4984 388.013 48.3 385.878 48.3V52.3ZM391.654 53.614C392.105 54.3797 392.378 55.3794 392.378 56.7H396.378C396.378 54.8206 395.985 53.087 395.102 51.586L391.654 53.614ZM396.115 57.6923C396.215 57.5172 396.607 57.0313 397.539 56.1656L394.817 53.2344C393.883 54.102 393.075 54.9495 392.642 55.7077L396.115 57.6923ZM397.539 56.1656C398.399 55.367 399.195 54.7532 399.926 54.3033L397.83 50.8967C396.828 51.5134 395.824 52.2997 394.817 53.2344L397.539 56.1656ZM399.999 54.2566C401.935 52.9468 404.045 52.3 406.378 52.3V48.3C403.245 48.3 400.355 49.1866 397.758 50.9434L399.999 54.2566ZM476.023 28.4L474.258 27.4588L474.246 27.482L474.234 27.5056L476.023 28.4ZM478.723 26.3L479.325 28.2072L479.325 28.2072L478.723 26.3ZM488.823 26.3L488.22 28.2072L488.22 28.2072L488.823 26.3ZM491.423 28.4L489.61 29.2458L489.633 29.2941L489.658 29.3412L491.423 28.4ZM492.323 31.1L490.33 31.2661L490.338 31.3625L490.355 31.4578L492.323 31.1ZM492.323 97.7L490.35 97.3712L490.338 97.4447L490.331 97.5189L492.323 97.7ZM491.423 100.2L489.686 99.2077L489.68 99.2182L489.674 99.2287L491.423 100.2ZM475.223 98L477.197 97.6777L476.513 93.4886L473.718 96.683L475.223 98ZM447.123 95L445.663 96.3673L445.672 96.3765L447.123 95ZM447.123 58.3L445.672 56.923L445.663 56.9327L447.123 58.3ZM475.023 55.4L473.476 56.6682L477.023 60.9932V55.4H475.023ZM475.123 31L473.15 30.6712L473.138 30.7447L473.131 30.8189L475.123 31ZM472.223 82.7L470.755 81.3412L470.741 81.3561L470.728 81.3713L472.223 82.7ZM472.323 70.7L470.777 71.9695L470.791 71.9857L470.804 72.0016L472.323 70.7ZM459.623 70.7L461.117 72.0287L461.129 72.0153L461.141 72.0016L459.623 70.7ZM477.787 29.3412C478.032 28.8817 478.465 28.4787 479.325 28.2072L478.12 24.3928C476.447 24.9213 475.08 25.9183 474.258 27.4588L477.787 29.3412ZM479.325 28.2072C480.32 27.8929 481.76 27.7 483.723 27.7V23.7C481.552 23.7 479.659 23.907 478.12 24.3928L479.325 28.2072ZM483.723 27.7C485.76 27.7 487.23 27.8944 488.22 28.2072L489.425 24.3928C487.882 23.9056 485.952 23.7 483.723 23.7V27.7ZM488.22 28.2072C489.071 28.4757 489.428 28.8556 489.61 29.2458L493.235 27.5542C492.484 25.9443 491.108 24.9243 489.425 24.3928L488.22 28.2072ZM489.658 29.3412C490.112 30.1928 490.293 30.8246 490.33 31.2661L494.316 30.9339C494.219 29.7753 493.8 28.6072 493.187 27.4588L489.658 29.3412ZM490.355 31.4578C490.454 32.0051 490.523 32.9888 490.523 34.5H494.523C494.523 32.9446 494.458 31.6615 494.29 30.7422L490.355 31.4578ZM490.523 34.5V94.2H494.523V34.5H490.523ZM490.523 94.2C490.523 95.7019 490.456 96.7368 490.35 97.3712L494.295 98.0288C494.456 97.0632 494.523 95.7648 494.523 94.2H490.523ZM490.331 97.5189C490.299 97.8665 490.137 98.4181 489.686 99.2077L493.159 101.192C493.775 100.115 494.213 99.0001 494.314 97.8811L490.331 97.5189ZM489.674 99.2287C489.513 99.5187 489.087 99.9552 487.942 100.319C486.8 100.682 485.154 100.9 482.923 100.9V104.9C485.358 104.9 487.462 104.668 489.153 104.131C490.841 103.595 492.332 102.681 493.171 101.171L489.674 99.2287ZM482.923 100.9C480.822 100.9 479.459 100.521 478.621 99.9877C477.864 99.506 477.38 98.8041 477.197 97.6777L473.249 98.3223C473.598 100.463 474.664 102.211 476.474 103.362C478.203 104.463 480.424 104.9 482.923 104.9V100.9ZM473.718 96.683C471.365 99.3714 468.058 100.8 463.523 100.8V104.8C468.988 104.8 473.48 103.029 476.728 99.317L473.718 96.683ZM463.523 100.8C458.177 100.8 453.209 98.5092 448.574 93.6235L445.672 96.3765C450.903 101.891 456.868 104.8 463.523 104.8V100.8ZM448.582 93.6327C443.98 88.72 441.723 83.1031 441.723 76.7H437.723C437.723 84.1636 440.398 90.7467 445.663 96.3673L448.582 93.6327ZM441.723 76.7C441.723 70.2249 443.984 64.576 448.582 59.6673L445.663 56.9327C440.394 62.5573 437.723 69.1751 437.723 76.7H441.723ZM448.573 59.677C453.286 54.7126 458.257 52.4 463.523 52.4V48.4C456.922 48.4 450.959 51.3541 445.672 56.923L448.573 59.677ZM463.523 52.4C467.954 52.4 471.18 53.8683 473.476 56.6682L476.569 54.1318C473.398 50.265 468.958 48.4 463.523 48.4V52.4ZM477.023 55.4V34.4H473.023V55.4H477.023ZM477.023 34.4C477.023 32.8771 477.056 31.8193 477.114 31.1811L473.131 30.8189C473.056 31.6474 473.023 32.8562 473.023 34.4H477.023ZM477.095 31.3288C477.188 30.7724 477.41 30.0977 477.812 29.2944L474.234 27.5056C473.702 28.5689 473.324 29.6276 473.15 30.6712L477.095 31.3288ZM458.382 84.0873C460.487 86.273 463.104 87.4 466.123 87.4V83.4C464.207 83.4 462.625 82.727 461.263 81.3127L458.382 84.0873ZM466.123 87.4C469.145 87.4 471.728 86.2674 473.717 84.0287L470.728 81.3713C469.518 82.7326 468.034 83.4 466.123 83.4V87.4ZM473.69 84.0588C475.644 81.9485 476.723 79.5127 476.723 76.8H472.723C472.723 78.354 472.134 79.8515 470.755 81.3412L473.69 84.0588ZM476.723 76.8C476.723 74.0658 475.713 71.582 473.841 69.3984L470.804 72.0016C472.132 73.5513 472.723 75.1342 472.723 76.8H476.723ZM473.868 69.4305C471.912 67.0495 469.217 65.9 466.023 65.9V69.9C468.161 69.9 469.666 70.6172 470.777 71.9695L473.868 69.4305ZM466.023 65.9C462.828 65.9 460.119 67.0477 458.104 69.3984L461.141 72.0016C462.326 70.619 463.884 69.9 466.023 69.9V65.9ZM458.128 69.3713C456.236 71.4999 455.223 73.9623 455.223 76.7H459.223C459.223 75.0377 459.81 73.5001 461.117 72.0287L458.128 69.3713ZM455.223 76.7C455.223 79.4887 456.343 81.9694 458.382 84.0873L461.263 81.3127C459.836 79.8306 459.223 78.3113 459.223 76.7H455.223ZM545.181 42.5L545.717 44.427L545.75 44.4177L545.784 44.4072L545.181 42.5ZM535.381 42.4L534.749 44.2974L534.749 44.2974L535.381 42.4ZM532.781 40.4L530.969 41.2458L531.004 41.3206L531.045 41.3923L532.781 40.4ZM531.881 37.8L529.888 37.9661L529.896 38.0625L529.914 38.1578L531.881 37.8ZM531.881 30.9L529.914 30.5422L529.898 30.63L529.889 30.7189L531.881 30.9ZM532.781 28.4L531.02 27.4518L531.006 27.4785L530.992 27.5056L532.781 28.4ZM547.981 28.4L549.742 27.4518L549.728 27.426L549.714 27.4005L547.981 28.4ZM548.781 30.8L546.789 30.9811L546.798 31.07L546.814 31.1578L548.781 30.8ZM548.781 38L546.814 37.6422L546.798 37.73L546.789 37.8189L548.781 38ZM547.881 40.5L549.618 41.4923L549.618 41.4923L547.881 40.5ZM535.481 50.6L534.879 48.6928L534.864 48.6976L534.849 48.7026L535.481 50.6ZM545.381 50.6L546.014 48.7026L546.014 48.7026L545.381 50.6ZM547.881 52.7L546.069 53.5458L546.104 53.6206L546.145 53.6923L547.881 52.7ZM548.781 55.3L546.788 55.4661L546.796 55.5625L546.814 55.6578L548.781 55.3ZM540.881 118.6L542.189 120.113L540.881 118.6ZM519.681 125.4L520.039 123.432L519.951 123.416L519.862 123.408L519.681 125.4ZM517.181 124.6L516.233 126.361L516.26 126.375L516.287 126.389L517.181 124.6ZM516.781 109.9L517.908 111.552L517.926 111.54L517.944 111.527L516.781 109.9ZM528.981 106.4L530.144 108.027L528.981 106.4ZM532.681 52.9L530.957 51.886L530.948 51.9026L530.938 51.9195L532.681 52.9ZM544.646 40.573C543.697 40.8366 542.269 41 540.281 41V45C542.427 45 544.265 44.8301 545.717 44.427L544.646 40.573ZM540.281 41C538.311 41 536.922 40.8053 536.014 40.5026L534.749 44.2974C536.241 44.7947 538.118 45 540.281 45V41ZM536.014 40.5026C535.193 40.2291 534.765 39.8401 534.518 39.4077L531.045 41.3923C531.864 42.8266 533.169 43.7709 534.749 44.2974L536.014 40.5026ZM534.594 39.5542C534.168 38.6427 533.941 37.9472 533.849 37.4422L529.914 38.1578C530.088 39.1195 530.461 40.1572 530.969 41.2458L534.594 39.5542ZM533.874 37.6339C533.815 36.9183 533.781 35.818 533.781 34.3H529.781C529.781 35.8486 529.814 37.0817 529.888 37.9661L533.874 37.6339ZM533.781 34.3C533.781 32.7771 533.815 31.7193 533.873 31.0811L529.889 30.7189C529.814 31.5474 529.781 32.7562 529.781 34.3H533.781ZM533.849 31.2578C533.938 30.7687 534.157 30.1204 534.57 29.2944L530.992 27.5056C530.472 28.5463 530.091 29.5646 529.914 30.5422L533.849 31.2578ZM534.542 29.3482C534.691 29.0725 535.06 28.6777 536.046 28.3449C537.042 28.0085 538.493 27.8 540.481 27.8V23.8C538.27 23.8 536.337 24.0248 534.766 24.5551C533.185 25.0889 531.805 25.9941 531.02 27.4518L534.542 29.3482ZM540.481 27.8C542.36 27.8 543.741 28.0067 544.701 28.3397C545.645 28.667 546.058 29.068 546.249 29.3994L549.714 27.4005C548.905 25.9987 547.567 25.0997 546.011 24.5603C544.472 24.0267 542.602 23.8 540.481 23.8V27.8ZM546.22 29.3482C546.6 30.053 546.754 30.5905 546.789 30.9811L550.773 30.6189C550.675 29.5429 550.296 28.4803 549.742 27.4518L546.22 29.3482ZM546.814 31.1578C546.914 31.7082 546.981 32.6618 546.981 34.1H550.981C550.981 32.6049 550.916 31.3584 550.749 30.4422L546.814 31.1578ZM546.981 34.1V34.7H550.981V34.1H546.981ZM546.981 34.7C546.981 36.1382 546.914 37.0917 546.814 37.6422L550.749 38.3578C550.916 37.4416 550.981 36.1951 550.981 34.7H546.981ZM546.789 37.8189C546.758 38.1665 546.596 38.7181 546.145 39.5077L549.618 41.4923C550.233 40.4153 550.671 39.3001 550.773 38.1811L546.789 37.8189ZM546.145 39.5077C545.916 39.9073 545.484 40.3069 544.579 40.5928L545.784 44.4072C547.411 43.8931 548.779 42.9594 549.618 41.4923L546.145 39.5077ZM536.084 52.5072C537.079 52.193 538.519 52 540.481 52V48C538.31 48 536.417 48.207 534.879 48.6928L536.084 52.5072ZM540.481 52C542.451 52 543.841 52.1947 544.749 52.4974L546.014 48.7026C544.522 48.2053 542.645 48 540.481 48V52ZM544.749 52.4974C545.511 52.7515 545.869 53.1179 546.069 53.5458L549.694 51.8542C548.96 50.2821 547.651 49.2485 546.014 48.7026L544.749 52.4974ZM546.145 53.6923C546.58 54.4539 546.752 55.0379 546.788 55.4661L550.774 55.1339C550.677 53.9621 550.249 52.8128 549.618 51.7077L546.145 53.6923ZM546.814 55.6578C546.913 56.2051 546.981 57.1888 546.981 58.7H550.981C550.981 57.1446 550.916 55.8615 550.749 54.9422L546.814 55.6578ZM546.981 58.7V99.9H550.981V58.7H546.981ZM546.981 99.9C546.981 107.18 544.49 112.838 539.574 117.087L542.189 120.113C548.073 115.029 550.981 108.22 550.981 99.9H546.981ZM539.574 117.087C534.496 121.474 529.017 123.6 523.081 123.6V127.6C530.079 127.6 536.466 125.059 542.189 120.113L539.574 117.087ZM523.081 123.6C521.57 123.6 520.586 123.532 520.039 123.432L519.323 127.368C520.243 127.535 521.526 127.6 523.081 127.6V123.6ZM519.862 123.408C519.458 123.371 518.872 123.209 518.076 122.811L516.287 126.389C517.357 126.924 518.438 127.295 519.5 127.392L519.862 123.408ZM518.129 122.839C517.821 122.673 517.436 122.303 517.115 121.404C516.788 120.484 516.581 119.145 516.581 117.3H512.581C512.581 119.388 512.808 121.232 513.347 122.746C513.894 124.28 514.809 125.594 516.233 126.361L518.129 122.839ZM516.581 117.3C516.581 115.436 516.758 114.048 517.048 113.07C517.341 112.085 517.693 111.699 517.908 111.552L515.655 108.248C514.403 109.101 513.655 110.449 513.214 111.93C512.772 113.419 512.581 115.231 512.581 117.3H516.581ZM517.944 111.527C518.886 110.854 520.358 110.4 522.581 110.4V106.4C519.872 106.4 517.476 106.946 515.619 108.273L517.944 111.527ZM522.581 110.4C525.378 110.4 527.922 109.615 530.144 108.027L527.819 104.773C526.308 105.852 524.585 106.4 522.581 106.4V110.4ZM530.144 108.027C532.764 106.156 533.781 102.968 533.781 99.2H529.781C529.781 102.365 528.931 103.978 527.819 104.773L530.144 108.027ZM533.781 99.2V58H529.781V99.2H533.781ZM533.781 58C533.781 55.7507 534.086 54.4826 534.424 53.8805L530.938 51.9195C530.077 53.4507 529.781 55.5826 529.781 58H533.781ZM534.405 53.914C534.837 53.1794 535.392 52.738 536.114 52.4974L534.849 48.7026C533.171 49.262 531.859 50.354 530.957 51.886L534.405 53.914ZM566.877 56.9L568.237 58.3656L568.237 58.3656L566.877 56.9ZM605.177 56.9L603.807 58.3575L603.816 58.3662L605.177 56.9ZM609.177 91.4L610.837 92.5154L610.841 92.5094L610.845 92.5035L609.177 91.4ZM598.677 100.9L599.559 102.695L599.571 102.689L598.677 100.9ZM573.177 100.7L572.237 102.465L572.248 102.471L572.259 102.477L573.177 100.7ZM562.677 91.1L561.004 92.1973L561.014 92.2125L561.025 92.2275L562.677 91.1ZM579.377 83.9L578.145 85.476L578.161 85.4882L578.177 85.5L579.377 83.9ZM592.477 83.8L591.269 82.2058L591.269 82.2058L592.477 83.8ZM592.677 69.1L591.452 70.6814L591.452 70.6814L592.677 69.1ZM579.277 69.2L578.021 67.6432L578.021 67.6432L579.277 69.2ZM560.477 76.7C560.477 69.2268 563.066 63.1676 568.237 58.3656L565.516 55.4344C559.487 61.0324 556.477 68.1732 556.477 76.7H560.477ZM568.237 58.3656C573.492 53.486 579.414 51.1 586.077 51.1V47.1C578.339 47.1 571.461 49.914 565.516 55.4344L568.237 58.3656ZM586.077 51.1C592.738 51.1 598.622 53.485 603.807 58.3574L606.546 55.4426C600.664 49.915 593.815 47.1 586.077 47.1V51.1ZM603.816 58.3662C608.915 63.0963 611.477 69.119 611.477 76.6H615.477C615.477 68.081 612.505 60.9703 606.537 55.4338L603.816 58.3662ZM611.477 76.6C611.477 81.7677 610.144 86.3121 607.509 90.2965L610.845 92.5035C613.942 87.8212 615.477 82.499 615.477 76.6H611.477ZM607.516 90.2846C604.82 94.2973 601.573 97.2159 597.782 99.1111L599.571 102.689C604.047 100.451 607.799 97.036 610.837 92.5154L607.516 90.2846ZM597.794 99.1053C593.993 100.974 590.061 101.9 585.977 101.9V105.9C590.692 105.9 595.226 104.826 599.559 102.695L597.794 99.1053ZM585.977 101.9C581.914 101.9 577.96 100.918 574.094 98.9228L572.259 102.477C576.66 104.748 581.239 105.9 585.977 105.9V101.9ZM574.116 98.9345C570.293 96.8993 567.029 93.9289 564.328 89.9725L561.025 92.2275C564.058 96.6711 567.794 100.101 572.237 102.465L574.116 98.9345ZM564.349 90.0027C561.773 86.0772 560.477 81.6619 560.477 76.7H556.477C556.477 82.4047 557.981 87.5895 561.004 92.1973L564.349 90.0027ZM578.177 85.5C580.581 87.3032 583.158 88.3 585.877 88.3V84.3C584.195 84.3 582.439 83.6968 580.577 82.3L578.177 85.5ZM585.877 88.3C588.613 88.3 591.227 87.2561 593.684 85.3942L591.269 82.2058C589.327 83.6772 587.54 84.3 585.877 84.3V88.3ZM593.684 85.3942C596.478 83.2775 597.777 80.1633 597.777 76.4H593.777C593.777 79.1701 592.875 80.9891 591.269 82.2058L593.684 85.3942ZM597.777 76.4C597.777 72.6851 596.577 69.5907 593.901 67.5186L591.452 70.6814C592.909 71.8093 593.777 73.5816 593.777 76.4H597.777ZM593.901 67.5186C591.517 65.6729 588.86 64.7 585.977 64.7V68.7C587.893 68.7 589.703 69.3271 591.452 70.6814L593.901 67.5186ZM585.977 64.7C583.071 64.7 580.403 65.7221 578.021 67.6432L580.532 70.7568C582.283 69.3445 584.082 68.7 585.977 68.7V64.7ZM578.021 67.6432C575.376 69.7763 574.177 72.8819 574.177 76.6H578.177C578.177 73.7848 579.044 71.957 580.532 70.7568L578.021 67.6432ZM574.177 76.6C574.177 80.29 575.436 83.3592 578.145 85.476L580.608 82.3239C579.051 81.1075 578.177 79.31 578.177 76.6H574.177ZM623.038 55.7L621.065 55.3712L621.052 55.4447L621.046 55.5189L623.038 55.7ZM623.938 53L622.177 52.0518L622.149 52.1023L622.125 52.1542L623.938 53ZM638.538 52.1L637.242 53.6239L637.254 53.634L637.266 53.6439L638.538 52.1ZM640.338 56.4L638.339 56.4689L638.341 56.5341L638.347 56.599L640.338 56.4ZM640.238 97.8L638.265 97.4712L638.252 97.5447L638.246 97.6189L640.238 97.8ZM639.338 100.4L637.573 99.4588L637.56 99.482L637.549 99.5056L639.338 100.4ZM623.938 100.3L622.125 101.146L622.143 101.184L622.162 101.221L623.938 100.3ZM623.038 97.7L621.046 97.8811L621.054 97.97L621.07 98.0578L623.038 97.7ZM639.338 40.6L637.573 39.6588L637.56 39.682L637.549 39.7056L639.338 40.6ZM636.738 42.6L636.135 40.6928L636.135 40.6928L636.738 42.6ZM626.638 42.6L627.24 40.6928L627.24 40.6928L626.638 42.6ZM623.938 40.5L622.125 41.3458L622.148 41.3941L622.173 41.4412L623.938 40.5ZM623.038 37.9L621.044 38.0661L621.052 38.1625L621.07 38.2578L623.038 37.9ZM623.038 31L621.065 30.6712L621.052 30.7447L621.046 30.8189L623.038 31ZM623.938 28.4L622.162 27.4794L622.155 27.4924L622.149 27.5056L623.938 28.4ZM639.338 28.4L637.535 29.2676L637.553 29.3048L637.573 29.3412L639.338 28.4ZM640.238 31.1L638.244 31.2661L638.252 31.3625L638.27 31.4578L640.238 31.1ZM640.238 38L638.265 37.6712L638.252 37.7447L638.246 37.8189L640.238 38ZM624.938 59.1C624.938 57.5771 624.971 56.5193 625.029 55.8811L621.046 55.5189C620.97 56.3474 620.938 57.5562 620.938 59.1H624.938ZM625.01 56.0288C625.105 55.4587 625.334 54.7363 625.75 53.8458L622.125 52.1542C621.607 53.2637 621.236 54.3413 621.065 55.3712L625.01 56.0288ZM625.698 53.9482C625.843 53.6805 626.212 53.2833 627.22 52.9474C628.235 52.6089 629.713 52.4 631.738 52.4V48.4C629.495 48.4 627.54 48.6244 625.955 49.1526C624.363 49.6834 622.966 50.5861 622.177 52.0518L625.698 53.9482ZM631.738 52.4C634.812 52.4 636.468 52.9661 637.242 53.6239L639.833 50.5761C637.94 48.9672 635.063 48.4 631.738 48.4V52.4ZM637.266 53.6439C637.827 54.1057 638.285 54.9161 638.339 56.4689L642.336 56.3311C642.257 54.0172 641.515 51.9609 639.809 50.5561L637.266 53.6439ZM638.347 56.599C638.404 57.165 638.438 58.0524 638.438 59.3H642.438C642.438 58.0142 642.404 56.9683 642.328 56.201L638.347 56.599ZM638.438 59.3V94.3H642.438V59.3H638.438ZM638.438 94.3C638.438 95.8019 638.37 96.8368 638.265 97.4712L642.21 98.1288C642.371 97.1632 642.438 95.8648 642.438 94.3H638.438ZM638.246 97.6189C638.213 97.9823 638.041 98.5805 637.573 99.4588L641.102 101.341C641.7 100.219 642.129 99.0844 642.229 97.9811L638.246 97.6189ZM637.549 99.5056C637.432 99.7389 637.108 100.122 636.123 100.455C635.129 100.791 633.663 101 631.638 101V105C633.878 105 635.829 104.776 637.402 104.245C638.984 103.711 640.376 102.794 641.126 101.294L637.549 99.5056ZM631.638 101C629.654 101 628.212 100.784 627.224 100.438C626.254 100.097 625.874 99.6907 625.713 99.3794L622.162 101.221C622.934 102.709 624.304 103.653 625.901 104.212C627.48 104.766 629.421 105 631.638 105V101ZM625.75 99.4542C625.325 98.5427 625.097 97.8472 625.005 97.3422L621.07 98.0578C621.245 99.0195 621.617 100.057 622.125 101.146L625.75 99.4542ZM625.029 97.5189C624.971 96.8821 624.938 95.7926 624.938 94.2H620.938C620.938 95.8074 620.97 97.0512 621.046 97.8811L625.029 97.5189ZM624.938 94.2V59.1H620.938V94.2H624.938ZM637.549 39.7056C637.386 40.0309 637.034 40.4089 636.135 40.6928L637.34 44.5072C638.974 43.9911 640.356 43.0357 641.126 41.4944L637.549 39.7056ZM636.135 40.6928C635.145 41.0056 633.674 41.2 631.638 41.2V45.2C633.867 45.2 635.797 44.9944 637.34 44.5072L636.135 40.6928ZM631.638 41.2C629.675 41.2 628.235 41.007 627.24 40.6928L626.035 44.5072C627.574 44.993 629.467 45.2 631.638 45.2V41.2ZM627.24 40.6928C626.38 40.4213 625.947 40.0183 625.702 39.5588L622.173 41.4412C622.994 42.9817 624.362 43.9787 626.035 44.5072L627.24 40.6928ZM625.75 39.6542C625.325 38.7427 625.097 38.0472 625.005 37.5422L621.07 38.2578C621.245 39.2195 621.617 40.2572 622.125 41.3458L625.75 39.6542ZM625.031 37.7339C624.971 37.0183 624.938 35.918 624.938 34.4H620.938C620.938 35.9486 620.971 37.1817 621.044 38.0661L625.031 37.7339ZM624.938 34.4C624.938 32.8771 624.971 31.8193 625.029 31.1811L621.046 30.8189C620.97 31.6474 620.938 32.8562 620.938 34.4H624.938ZM625.01 31.3288C625.103 30.7724 625.325 30.0977 625.726 29.2944L622.149 27.5056C621.617 28.5689 621.239 29.6276 621.065 30.6712L625.01 31.3288ZM625.713 29.3206C625.87 29.0175 626.25 28.6083 627.242 28.265C628.249 27.9164 629.718 27.7 631.738 27.7V23.7C629.49 23.7 627.526 23.9335 625.933 24.485C624.325 25.0417 622.938 25.9825 622.162 27.4794L625.713 29.3206ZM631.738 27.7C633.723 27.7 635.152 27.9164 636.118 28.2596C637.064 28.5958 637.401 28.9883 637.535 29.2676L641.14 27.5324C640.407 26.0117 639.044 25.0541 637.457 24.4904C635.89 23.9335 633.952 23.7 631.738 23.7V27.7ZM637.573 29.3412C638.027 30.1928 638.208 30.8246 638.244 31.2661L642.231 30.9339C642.134 29.7754 641.715 28.6072 641.102 27.4588L637.573 29.3412ZM638.27 31.4578C638.369 32.0051 638.438 32.9888 638.438 34.5H642.438C642.438 32.9446 642.372 31.6615 642.205 30.7422L638.27 31.4578ZM638.438 34.5C638.438 36.0019 638.37 37.0368 638.265 37.6712L642.21 38.3288C642.371 37.3632 642.438 36.0648 642.438 34.5H638.438ZM638.246 37.8189C638.213 38.1823 638.041 38.7805 637.573 39.6588L641.102 41.5412C641.7 40.4195 642.129 39.2843 642.229 38.1811L638.246 37.8189ZM697.326 58L695.807 59.3016L695.816 59.3121L695.826 59.3226L697.326 58ZM703.826 97.7L701.853 97.3712L701.841 97.4447L701.834 97.5189L703.826 97.7ZM703.026 100.2L704.801 101.121L704.808 101.108L704.815 101.094L703.026 100.2ZM687.026 99.2L688.943 98.6301L688.929 98.5818L688.912 98.5344L687.026 99.2ZM684.026 70.1L682.612 71.5142L682.627 71.5293L682.642 71.544L684.026 70.1ZM671.326 70.2L669.941 68.7572L669.926 68.7714L669.912 68.7858L671.326 70.2ZM668.726 97.7L666.753 97.3712L666.741 97.4447L666.734 97.5189L668.726 97.7ZM667.826 100.2L666.089 99.2077L666.054 99.2689L666.024 99.3324L667.826 100.2ZM652.426 100.2L650.613 101.046L650.631 101.084L650.65 101.121L652.426 100.2ZM651.526 97.6L649.533 97.7661L649.541 97.8625L649.558 97.9578L651.526 97.6ZM651.526 55.4L649.553 55.0712L649.541 55.1447L649.534 55.2189L651.526 55.4ZM652.526 52.8L654.262 53.7923L654.267 53.7848L654.271 53.7772L652.526 52.8ZM667.726 52.6L669.45 51.586L669.442 51.573L669.434 51.5601L667.726 52.6ZM668.726 56.7H666.726V64.2311L670.462 57.6923L668.726 56.7ZM670.526 54.7L671.887 56.1656L671.887 56.1656L670.526 54.7ZM673.226 52.6L674.274 54.3033L674.311 54.2807L674.346 54.2566L673.226 52.6ZM680.726 52.3C686.799 52.3 691.781 54.6043 695.807 59.3016L698.844 56.6984C694.071 51.129 687.986 48.3 680.726 48.3V52.3ZM695.826 59.3226C699.941 63.9914 702.026 69.7085 702.026 76.6H706.026C706.026 68.8248 703.643 62.1419 698.826 56.6774L695.826 59.3226ZM702.026 76.6V94.2H706.026V76.6H702.026ZM702.026 94.2C702.026 95.7019 701.959 96.7368 701.853 97.3712L705.799 98.0288C705.96 97.0632 706.026 95.7648 706.026 94.2H702.026ZM701.834 97.5189C701.797 97.9235 701.635 98.5095 701.237 99.3056L704.815 101.094C705.35 100.024 705.721 98.9431 705.818 97.8811L701.834 97.5189ZM701.25 99.2794C701.093 99.5825 700.713 99.9917 699.722 100.335C698.715 100.684 697.245 100.9 695.226 100.9V104.9C697.473 104.9 699.437 104.666 701.03 104.115C702.638 103.558 704.025 102.618 704.801 101.121L701.25 99.2794ZM695.226 100.9C692.996 100.9 691.45 100.604 690.448 100.152C689.514 99.7306 689.116 99.2122 688.943 98.6301L685.109 99.7699C685.669 101.654 687.004 102.986 688.803 103.798C690.535 104.579 692.722 104.9 695.226 104.9V100.9ZM688.912 98.5344C688.627 97.7283 688.426 96.3038 688.426 94.1H684.426C684.426 96.4295 684.624 98.4051 685.14 99.8656L688.912 98.5344ZM688.426 94.1V76.5H684.426V94.1H688.426ZM688.426 76.5C688.426 73.3574 687.492 70.6513 685.41 68.656L682.642 71.544C683.76 72.6154 684.426 74.1759 684.426 76.5H688.426ZM685.44 68.6858C683.449 66.6948 680.793 65.8 677.726 65.8V69.8C679.991 69.8 681.536 70.4385 682.612 71.5142L685.44 68.6858ZM677.726 65.8C674.68 65.8 672.028 66.7538 669.941 68.7572L672.711 71.6428C673.957 70.4462 675.572 69.8 677.726 69.8V65.8ZM669.912 68.7858C667.88 70.8174 666.926 73.4553 666.926 76.5H670.926C670.926 74.3447 671.572 72.7826 672.74 71.6142L669.912 68.7858ZM666.926 76.5V94.2H670.926V76.5H666.926ZM666.926 94.2C666.926 95.7019 666.859 96.7368 666.753 97.3712L670.699 98.0288C670.859 97.0632 670.926 95.7648 670.926 94.2H666.926ZM666.734 97.5189C666.702 97.8665 666.541 98.4181 666.089 99.2077L669.562 101.192C670.178 100.115 670.616 99.0001 670.718 97.8811L666.734 97.5189ZM666.024 99.3324C665.893 99.603 665.557 99.9981 664.589 100.338C663.604 100.683 662.147 100.9 660.126 100.9V104.9C662.371 104.9 664.331 104.667 665.913 104.112C667.511 103.552 668.891 102.597 669.628 101.068L666.024 99.3324ZM660.126 100.9C658.142 100.9 656.7 100.684 655.713 100.338C654.742 99.9975 654.363 99.5907 654.201 99.2794L650.65 101.121C651.422 102.609 652.793 103.553 654.389 104.112C655.968 104.666 657.909 104.9 660.126 104.9V100.9ZM654.238 99.3542C653.813 98.4427 653.585 97.7472 653.494 97.2422L649.558 97.9578C649.733 98.9195 650.105 99.9573 650.613 101.046L654.238 99.3542ZM653.519 97.4339C653.459 96.7183 653.426 95.618 653.426 94.1H649.426C649.426 95.6486 649.459 96.8817 649.533 97.7661L653.519 97.4339ZM653.426 94.1V58.7H649.426V94.1H653.426ZM653.426 58.7C653.426 57.247 653.459 56.2209 653.518 55.5811L649.534 55.2189C649.459 56.0458 649.426 57.2197 649.426 58.7H653.426ZM653.499 55.7288C653.583 55.2244 653.81 54.5831 654.262 53.7923L650.789 51.8077C650.175 52.8835 649.736 53.9756 649.553 55.0712L653.499 55.7288ZM654.271 53.7772C654.406 53.5358 654.766 53.1526 655.768 52.8272C656.773 52.5009 658.232 52.3 660.226 52.3V48.3C658.019 48.3 656.095 48.5157 654.533 49.0227C652.969 49.5307 651.579 50.3975 650.781 51.8228L654.271 53.7772ZM660.226 52.3C662.158 52.3 663.579 52.485 664.564 52.7871C665.556 53.0913 665.9 53.4473 666.017 53.6399L669.434 51.5601C668.618 50.2193 667.245 49.4254 665.737 48.9629C664.222 48.4984 662.361 48.3 660.226 48.3V52.3ZM666.002 53.614C666.452 54.3797 666.726 55.3794 666.726 56.7H670.726C670.726 54.8206 670.333 53.087 669.45 51.586L666.002 53.614ZM670.462 57.6923C670.562 57.5172 670.954 57.0313 671.887 56.1656L669.165 53.2344C668.231 54.102 667.423 54.9495 666.989 55.7077L670.462 57.6923ZM671.887 56.1656C672.747 55.367 673.543 54.7532 674.274 54.3033L672.178 50.8967C671.175 51.5134 670.172 52.2997 669.165 53.2344L671.887 56.1656ZM674.346 54.2566C676.283 52.9468 678.392 52.3 680.726 52.3V48.3C677.592 48.3 674.702 49.1866 672.105 50.9434L674.346 54.2566ZM749.963 95.2L748.445 96.5016L748.454 96.5121L748.463 96.5226L749.963 95.2ZM743.463 55.5L741.496 55.1422L741.48 55.23L741.471 55.3189L743.463 55.5ZM744.363 52.9L742.588 51.9794L742.569 52.0164L742.551 52.0542L744.363 52.9ZM760.363 54L758.456 54.6023L758.472 54.6527L758.491 54.7022L760.363 54ZM763.263 83L761.849 84.4142L761.864 84.4293L761.879 84.444L763.263 83ZM775.963 82.9L774.578 81.4572L774.563 81.4714L774.549 81.4858L775.963 82.9ZM778.563 55.5L776.59 55.1712L776.578 55.2447L776.571 55.3189L778.563 55.5ZM779.563 52.8L781.328 53.7412L781.34 53.718L781.352 53.6944L779.563 52.8ZM794.963 52.9L796.776 52.0542L796.758 52.0164L796.739 51.9794L794.963 52.9ZM795.763 55.6L793.77 55.7661L793.778 55.8625L793.796 55.9578L795.763 55.6ZM795.763 97.8L793.79 97.4712L793.778 97.5447L793.771 97.6189L795.763 97.8ZM794.863 100.3L796.596 101.299L796.6 101.292L794.863 100.3ZM779.663 100.5L781.391 99.4923L781.387 99.486L779.663 100.5ZM778.663 96.4H780.663V88.8688L776.927 95.4077L778.663 96.4ZM776.863 98.4L775.502 96.9344L775.502 96.9344L776.863 98.4ZM774.163 100.6L775.25 102.279L775.276 102.262L775.302 102.244L774.163 100.6ZM766.763 100.8C760.606 100.8 755.552 98.515 751.464 93.8774L748.463 96.5226C753.308 102.018 759.454 104.8 766.763 104.8V100.8ZM751.482 93.8984C747.42 89.1593 745.363 83.3995 745.363 76.5H741.363C741.363 84.2672 743.707 90.974 748.445 96.5016L751.482 93.8984ZM745.363 76.5V59H741.363V76.5H745.363ZM745.363 59C745.363 57.4074 745.397 56.3179 745.455 55.6811L741.471 55.3189C741.396 56.1488 741.363 57.3926 741.363 59H745.363ZM745.431 55.8578C745.523 55.3528 745.75 54.6572 746.176 53.7458L742.551 52.0542C742.043 53.1427 741.67 54.1805 741.496 55.1422L745.431 55.8578ZM746.139 53.8206C746.296 53.5175 746.676 53.1083 747.668 52.765C748.674 52.4164 750.144 52.2 752.163 52.2V48.2C749.916 48.2 747.952 48.4336 746.359 48.985C744.751 49.5417 743.364 50.4825 742.588 51.9794L746.139 53.8206ZM752.163 52.2C756.698 52.2 758.089 53.4382 758.456 54.6023L762.27 53.3977C761.038 49.4951 756.962 48.2 752.163 48.2V52.2ZM758.491 54.7022C758.757 55.4136 758.963 56.8088 758.963 59.1H762.963C762.963 56.7245 762.769 54.7198 762.236 53.2978L758.491 54.7022ZM758.963 59.1V76.6H762.963V59.1H758.963ZM758.963 76.6C758.963 79.7182 759.849 82.4141 761.849 84.4142L764.677 81.5858C763.611 80.5192 762.963 78.9484 762.963 76.6H758.963ZM761.879 84.444C763.916 86.3952 766.543 87.3 769.563 87.3V83.3C767.383 83.3 765.811 82.6714 764.647 81.556L761.879 84.444ZM769.563 87.3C772.658 87.3 775.336 86.3557 777.377 84.3142L774.549 81.4858C773.391 82.6443 771.801 83.3 769.563 83.3V87.3ZM777.348 84.3428C779.459 82.3167 780.463 79.6696 780.463 76.6H776.463C776.463 78.7304 775.801 80.2833 774.578 81.4572L777.348 84.3428ZM780.463 76.6V58.9H776.463V76.6H780.463ZM780.463 58.9C780.463 57.3771 780.497 56.3193 780.555 55.6811L776.571 55.3189C776.496 56.1474 776.463 57.3562 776.463 58.9H780.463ZM780.536 55.8288C780.623 55.3092 780.859 54.6198 781.328 53.7412L777.799 51.8588C777.201 52.9802 776.771 54.0908 776.59 55.1712L780.536 55.8288ZM781.352 53.6944C781.469 53.4611 781.793 53.0775 782.778 52.7449C783.772 52.4093 785.237 52.2 787.263 52.2V48.2C785.022 48.2 783.071 48.424 781.498 48.9551C779.917 49.4891 778.524 50.4055 777.774 51.9056L781.352 53.6944ZM787.263 52.2C789.247 52.2 790.689 52.416 791.676 52.7623C792.647 53.1025 793.026 53.5093 793.188 53.8206L796.739 51.9794C795.967 50.4907 794.597 49.5475 793 48.9877C791.421 48.434 789.48 48.2 787.263 48.2V52.2ZM793.151 53.7458C793.552 54.6063 793.729 55.2716 793.77 55.7661L797.756 55.4339C797.664 54.3284 797.307 53.1937 796.776 52.0542L793.151 53.7458ZM793.796 55.9578C793.895 56.5051 793.963 57.4888 793.963 59H797.963C797.963 57.4446 797.898 56.1615 797.731 55.2422L793.796 55.9578ZM793.963 59V94.4H797.963V59H793.963ZM793.963 94.4C793.963 95.8294 793.897 96.8337 793.79 97.4712L797.736 98.1288C797.896 97.1663 797.963 95.9039 797.963 94.4H793.963ZM793.771 97.6189C793.74 97.9665 793.578 98.5181 793.127 99.3077L796.6 101.292C797.215 100.215 797.653 99.1001 797.755 97.9811L793.771 97.6189ZM793.131 99.3006C792.949 99.6164 792.535 100.022 791.548 100.355C790.55 100.692 789.114 100.9 787.163 100.9V104.9C789.346 104.9 791.26 104.674 792.828 104.145C794.408 103.611 795.778 102.717 796.596 101.299L793.131 99.3006ZM787.163 100.9C785.236 100.9 783.824 100.707 782.848 100.395C781.873 100.083 781.522 99.7163 781.391 99.4923L777.936 101.508C778.738 102.884 780.103 103.717 781.629 104.205C783.153 104.693 785.024 104.9 787.163 104.9V100.9ZM781.387 99.486C780.937 98.7203 780.663 97.7206 780.663 96.4H776.663C776.663 98.2794 777.056 100.013 777.939 101.514L781.387 99.486ZM776.927 95.4077C776.827 95.5828 776.435 96.0687 775.502 96.9344L778.224 99.8656C779.159 98.998 779.966 98.1505 780.4 97.3923L776.927 95.4077ZM775.502 96.9344C774.625 97.7491 773.799 98.4196 773.025 98.9556L775.302 102.244C776.261 101.58 777.235 100.784 778.224 99.8656L775.502 96.9344ZM773.077 98.9209C771.13 100.181 769.039 100.8 766.763 100.8V104.8C769.821 104.8 772.664 103.952 775.25 102.279L773.077 98.9209ZM807.408 98.3L806.34 99.991L806.343 99.9928L807.408 98.3ZM809.308 86.6L810.933 87.7654L810.961 87.7266L810.987 87.6865L809.308 86.6ZM819.508 87.4L818.485 89.1186L818.5 89.1277L818.516 89.1365L819.508 87.4ZM826.508 84.6L826.225 86.5799L826.233 86.5811L826.242 86.5822L826.508 84.6ZM814.008 79.9L812.953 81.5993L812.963 81.6052L814.008 79.9ZM809.208 74.3L807.41 75.1759L807.414 75.1852L807.419 75.1944L809.208 74.3ZM843.608 52.7L844.439 50.881L844.434 50.8784L843.608 52.7ZM844.908 62.6L846.601 63.6643L846.601 63.6643L844.908 62.6ZM835.908 64.6L835.059 66.4109L835.07 66.4159L835.08 66.4207L835.908 64.6ZM829.808 69.2L829.545 71.1827L829.571 71.1861L829.597 71.1888L829.808 69.2ZM842.608 73L841.713 74.7889L841.726 74.7951L841.738 74.8011L842.608 73ZM847.408 77.9L845.65 78.8542L845.667 78.8844L845.684 78.914L847.408 77.9ZM847.408 95.4L845.648 94.449L845.644 94.4577L845.639 94.4665L847.408 95.4ZM842.008 100.8L842.88 102.6L842.901 102.59L842.923 102.579L842.008 100.8ZM808.476 96.609C807.889 96.2383 807.508 95.6736 807.508 94.5H803.508C803.508 96.7931 804.394 98.7617 806.34 99.991L808.476 96.609ZM807.508 94.5C807.508 94.0722 807.679 93.2997 808.26 92.0919C808.825 90.9168 809.705 89.4787 810.933 87.7654L807.682 85.4346C806.377 87.2547 805.357 88.8998 804.655 90.3581C803.97 91.7837 803.508 93.1945 803.508 94.5H807.508ZM810.987 87.6865C811.279 87.2352 811.74 86.9 812.808 86.9V82.9C810.675 82.9 808.803 83.6981 807.629 85.5135L810.987 87.6865ZM812.808 86.9C813.909 86.9 815.75 87.4906 818.485 89.1186L820.531 85.6814C817.666 83.976 815.04 82.9 812.808 82.9V86.9ZM818.516 89.1365C821.497 90.8403 824.377 91.8 827.108 91.8V87.8C825.306 87.8 823.118 87.1597 820.5 85.6635L818.516 89.1365ZM827.108 91.8C829.214 91.8 831.043 91.601 832.415 91.0611C833.117 90.7848 833.818 90.3739 834.353 89.7428C834.919 89.0748 835.208 88.2645 835.208 87.4H831.208C831.208 87.3355 831.243 87.2252 831.301 87.1572C831.327 87.1261 831.265 87.2152 830.951 87.3389C830.289 87.599 829.068 87.8 827.108 87.8V91.8ZM835.208 87.4C835.208 86.4262 834.757 85.6438 834.193 85.0877C833.66 84.5631 832.983 84.1886 832.304 83.9047C830.942 83.3355 829.059 82.9248 826.774 82.6178L826.242 86.5822C828.423 86.8752 829.89 87.2312 830.762 87.5953C831.199 87.7781 831.36 87.9119 831.386 87.9373C831.39 87.9415 831.343 87.8964 831.294 87.7941C831.242 87.6841 831.208 87.5466 831.208 87.4H835.208ZM826.791 82.6201C822.897 82.0638 818.987 80.6058 815.053 78.1948L812.963 81.6052C817.296 84.2609 821.719 85.9362 826.225 86.5799L826.791 82.6201ZM815.063 78.2007C813.512 77.2385 812.138 75.6885 810.997 73.4056L807.419 75.1944C808.811 77.9782 810.637 80.1615 812.953 81.5993L815.063 78.2007ZM811.006 73.4241C809.898 71.1507 809.308 68.3959 809.308 65.1H805.308C805.308 68.8708 805.984 72.2493 807.41 75.1759L811.006 73.4241ZM809.308 65.1C809.308 60.3439 810.906 57.0538 813.91 54.8668C817.032 52.5939 821.958 51.3 829.008 51.3V47.3C821.591 47.3 815.667 48.6394 811.556 51.6332C807.326 54.7128 805.308 59.3227 805.308 65.1H809.308ZM829.008 51.3C833.414 51.3 838 52.3538 842.782 54.5216L844.434 50.8784C839.215 48.5128 834.068 47.3 829.008 47.3V51.3ZM842.776 54.5189C844.871 55.4766 845.108 56.2957 845.108 56.7H849.108C849.108 53.9043 847.011 52.0567 844.439 50.881L842.776 54.5189ZM845.108 56.7C845.108 57.7398 844.608 59.3182 843.215 61.5357L846.601 63.6643C848.141 61.2151 849.108 58.8602 849.108 56.7H845.108ZM843.215 61.5357C841.826 63.7449 840.846 64.1 840.408 64.1V68.1C843.036 68.1 845.056 66.1218 846.601 63.6643L843.215 61.5357ZM840.408 64.1C840.409 64.1 840.385 64.0999 840.329 64.0928C840.275 64.0858 840.199 64.0732 840.101 64.0519C839.903 64.0088 839.644 63.9371 839.315 63.8276C838.656 63.608 837.801 63.2637 836.735 62.7793L835.08 66.4207C836.214 66.9363 837.209 67.342 838.05 67.6224C838.846 67.8875 839.673 68.1 840.408 68.1V64.1ZM836.757 62.7891C834.338 61.6554 831.712 61.1 828.908 61.1V65.1C831.17 65.1 833.211 65.5446 835.059 66.4109L836.757 62.7891ZM828.908 61.1C826.874 61.1 825.109 61.282 823.784 61.776C823.109 62.0278 822.42 62.4071 821.885 63.0046C821.314 63.6438 821.008 64.4383 821.008 65.3H825.008C825.008 65.4283 824.947 65.5812 824.868 65.6704C824.825 65.7179 824.874 65.6388 825.182 65.524C825.823 65.2846 827.009 65.1 828.908 65.1V61.1ZM821.008 65.3C821.008 67.2374 822.177 68.6289 823.713 69.5099C825.181 70.3521 827.185 70.8703 829.545 71.1827L830.07 67.2173C827.897 66.9297 826.501 66.4979 825.703 66.0401C824.972 65.6211 825.008 65.3626 825.008 65.3H821.008ZM829.597 71.1888C833.748 71.6292 837.784 72.8244 841.713 74.7889L843.502 71.2111C839.165 69.0423 834.667 67.7042 830.019 67.2112L829.597 71.1888ZM841.738 74.8011C843.213 75.5129 844.535 76.8009 845.65 78.8542L849.166 76.9458C847.747 74.3325 845.87 72.3538 843.477 71.1989L841.738 74.8011ZM845.684 78.914C846.788 80.7905 847.408 83.2796 847.408 86.5H851.408C851.408 82.7871 850.695 79.5429 849.132 76.886L845.684 78.914ZM847.408 86.5C847.408 89.712 846.791 92.3357 845.648 94.449L849.167 96.351C850.692 93.531 851.408 90.2213 851.408 86.5H847.408ZM845.639 94.4665C844.557 96.5171 843.049 98.0156 841.093 99.0214L842.923 102.579C845.633 101.184 847.726 99.0829 849.177 96.3335L845.639 94.4665ZM841.136 99C837.221 100.896 832.177 101.9 825.908 101.9V105.9C832.572 105.9 838.261 104.837 842.88 102.6L841.136 99ZM825.908 101.9C819.92 101.9 814.119 100.16 808.473 96.6072L806.343 99.9928C812.563 103.907 819.095 105.9 825.908 105.9V101.9ZM859.934 87.8L861.703 88.7315L861.713 88.7131L861.722 88.6944L859.934 87.8ZM862.934 85.1L862.301 83.2026L862.287 83.2074L862.273 83.2123L862.934 85.1ZM875.634 86.3L874.219 87.7142L874.238 87.7323L874.256 87.75L875.634 86.3ZM877.434 97.5L875.461 97.1712L875.449 97.2447L875.442 97.3189L877.434 97.5ZM876.534 100.2L878.285 101.166L878.304 101.131L878.322 101.094L876.534 100.2ZM860.834 101.2L859.384 102.577L859.419 102.615L859.456 102.65L860.834 101.2ZM873.334 76.1L872.825 74.1658L872.825 74.1658L873.334 76.1ZM863.134 76.1L863.643 74.1658L863.643 74.1658L863.134 76.1ZM860.434 74.3L858.673 75.2482L858.7 75.299L858.73 75.3482L860.434 74.3ZM859.534 72L857.544 72.199L857.553 72.2963L857.572 72.3922L859.534 72ZM859.534 34.1L857.566 33.7422L857.552 33.8212L857.544 33.901L859.534 34.1ZM860.534 31.7L858.83 30.6518L858.83 30.6518L860.534 31.7ZM863.234 29.9L863.743 31.8341L863.79 31.8218L863.836 31.8072L863.234 29.9ZM873.434 29.9L872.831 31.8072L872.878 31.8218L872.925 31.8341L873.434 29.9ZM876.034 31.8L874.245 32.6944L874.284 32.7732L874.33 32.8482L876.034 31.8ZM876.934 34.2L874.942 34.3811L874.951 34.4875L874.972 34.5922L876.934 34.2ZM876.934 72.1L874.972 71.7078L874.953 71.8037L874.944 71.901L876.934 72.1ZM876.034 74.4L877.698 75.5094L877.718 75.4792L877.737 75.4482L876.034 74.4ZM861.722 88.6944C862.171 87.7978 862.781 87.2723 863.594 86.9877L862.273 83.2123C860.419 83.861 859.03 85.1355 858.145 86.9056L861.722 88.6944ZM863.566 86.9974C864.65 86.6359 866.519 86.4 869.334 86.4V82.4C866.415 82.4 864.017 82.6307 862.301 83.2026L863.566 86.9974ZM869.334 86.4C872.059 86.4 873.507 87.0014 874.219 87.7142L877.048 84.8858C875.227 83.0652 872.475 82.4 869.334 82.4V86.4ZM874.256 87.75C875.033 88.4882 875.634 89.8484 875.634 92.3H879.634C879.634 89.285 878.901 86.6452 877.011 84.85L874.256 87.75ZM875.634 92.3V93.9H879.634V92.3H875.634ZM875.634 93.9C875.634 95.4741 875.566 96.5396 875.461 97.1712L879.406 97.8288C879.568 96.8604 879.634 95.5259 879.634 93.9H875.634ZM875.442 97.3189C875.407 97.6977 875.227 98.341 874.745 99.3056L878.322 101.094C878.907 99.9257 879.326 98.769 879.425 97.6811L875.442 97.3189ZM874.782 99.2338C874.287 100.131 872.784 101.1 868.834 101.1V105.1C873.017 105.1 876.646 104.136 878.285 101.166L874.782 99.2338ZM868.834 101.1C866.925 101.1 865.426 100.948 864.296 100.679C863.15 100.407 862.526 100.049 862.211 99.75L859.456 102.65C860.474 103.617 861.851 104.21 863.371 104.571C864.908 104.936 866.742 105.1 868.834 105.1V101.1ZM862.284 99.8225C861.591 99.0935 860.934 97.2722 860.934 93.6H856.934C856.934 97.3945 857.543 100.64 859.384 102.577L862.284 99.8225ZM860.934 93.6C860.934 91.0999 861.266 89.5624 861.703 88.7315L858.164 86.8685C857.268 88.5709 856.934 90.9001 856.934 93.6H860.934ZM872.825 74.1658C871.795 74.4368 870.288 74.6 868.234 74.6V78.6C870.446 78.6 872.339 78.4298 873.843 78.0341L872.825 74.1658ZM868.234 74.6C866.179 74.6 864.672 74.4368 863.643 74.1658L862.625 78.0341C864.128 78.4298 866.022 78.6 868.234 78.6V74.6ZM863.643 74.1658C862.725 73.9243 862.33 73.5655 862.137 73.2518L858.73 75.3482C859.604 76.7678 861.009 77.609 862.625 78.0341L863.643 74.1658ZM862.195 73.3518C861.784 72.5887 861.576 72.0146 861.495 71.6078L857.572 72.3922C857.758 73.3187 858.15 74.2779 858.673 75.2482L862.195 73.3518ZM861.524 71.801C861.467 71.2389 861.434 70.2888 861.434 68.9H857.434C857.434 70.3112 857.466 71.4277 857.544 72.199L861.524 71.801ZM861.434 68.9V37.2H857.434V68.9H861.434ZM861.434 37.2C861.434 35.8112 861.467 34.8611 861.524 34.299L857.544 33.901C857.466 34.6723 857.434 35.7888 857.434 37.2H861.434ZM861.501 34.4578C861.577 34.0405 861.789 33.4754 862.237 32.7482L858.83 30.6518C858.211 31.6579 857.757 32.6928 857.566 33.7422L861.501 34.4578ZM862.237 32.7482C862.43 32.4345 862.825 32.0757 863.743 31.8341L862.725 27.9659C861.109 28.391 859.704 29.2322 858.83 30.6518L862.237 32.7482ZM863.836 31.8072C864.826 31.4944 866.297 31.3 868.334 31.3V27.3C866.104 27.3 864.174 27.5056 862.631 27.9928L863.836 31.8072ZM868.334 31.3C870.371 31.3 871.841 31.4944 872.831 31.8072L874.036 27.9928C872.493 27.5056 870.563 27.3 868.334 27.3V31.3ZM872.925 31.8341C873.788 32.0613 874.098 32.4019 874.245 32.6944L877.822 30.9056C877.035 29.3314 875.613 28.4053 873.943 27.9659L872.925 31.8341ZM874.33 32.8482C874.76 33.5467 874.912 34.0495 874.942 34.3811L878.925 34.0189C878.822 32.8838 878.374 31.7866 877.737 30.7518L874.33 32.8482ZM874.972 34.5922C875.065 35.0553 875.134 35.924 875.134 37.3H879.134C879.134 35.876 879.069 34.678 878.895 33.8078L874.972 34.5922ZM875.134 37.3V69H879.134V37.3H875.134ZM875.134 69C875.134 70.376 875.065 71.2447 874.972 71.7078L878.895 72.4922C879.069 71.622 879.134 70.424 879.134 69H875.134ZM874.944 71.901C874.919 72.151 874.78 72.6213 874.33 73.3518L877.737 75.4482C878.354 74.4454 878.815 73.3823 878.924 72.299L874.944 71.901ZM874.369 73.2906C874.192 73.5564 873.791 73.9116 872.825 74.1658L873.843 78.0341C875.41 77.6218 876.808 76.8436 877.698 75.5094L874.369 73.2906Z" fill="#1B9BC3" mask="url(#path-1-outside-1_1_208)"/>
</svg>
