<svg width="280" height="221" viewBox="0 0 280 221" fill="none" xmlns="http://www.w3.org/2000/svg">
<path d="M54.276 55.392C53.58 54.7347 53.2127 53.9227 53.174 52.956C53.1353 51.9893 53.4447 51.158 54.102 50.462C55.6873 48.8767 57.1567 46.982 58.51 44.778C59.8633 42.5353 61.0427 40.196 62.048 37.76C58.8773 36.948 55.842 36.368 52.942 36.02C51.5113 39.036 49.8873 41.5493 48.07 43.56C46.2527 45.5707 44.3193 46.9627 42.27 47.736C40.3367 48.5093 38.442 48.78 36.586 48.548C34.73 48.2773 33.1833 47.5233 31.946 46.286C30.7473 45.0487 30.148 43.3087 30.148 41.066C30.148 38.9393 30.786 37.006 32.062 35.266C33.338 33.526 35.31 32.134 37.978 31.09C40.6847 30.0073 44.1647 29.466 48.418 29.466C49.23 27.1847 49.984 24.5553 50.68 21.578C51.2213 19.3353 51.1247 17.8467 50.39 17.112C49.6553 16.3387 48.2247 16.0873 46.098 16.358C45.3633 16.474 44.416 16.6093 43.256 16.764C42.096 16.9187 41.1873 17.0347 40.53 17.112C39.5633 17.1507 38.7127 16.8607 37.978 16.242C37.2433 15.6233 36.8373 14.8307 36.76 13.864C36.7213 12.8973 37.0113 12.066 37.63 11.37C38.2487 10.6353 39.0413 10.2293 40.008 10.152C40.82 10.0747 41.8253 9.978 43.024 9.862C44.2227 9.746 45.2087 9.66866 45.982 9.63C50.854 9.32066 54.1987 10.1713 56.016 12.182C57.872 14.1927 58.3553 17.518 57.466 22.158C57.1953 23.55 56.886 24.9033 56.538 26.218C56.19 27.494 55.8227 28.7313 55.436 29.93C56.828 30.0847 58.2587 30.3167 59.728 30.626C61.1973 30.8967 62.6473 31.206 64.078 31.554C64.3873 30.2393 64.6387 28.9633 64.832 27.726C65.0253 26.45 65.1413 25.232 65.18 24.072C65.2187 23.1053 65.5473 22.2933 66.166 21.636C66.8233 20.94 67.6353 20.5727 68.602 20.534C69.5687 20.534 70.3807 20.882 71.038 21.578C71.734 22.2353 72.0627 23.0473 72.024 24.014C71.9853 25.522 71.8307 27.0687 71.56 28.654C71.328 30.2007 70.9993 31.7667 70.574 33.352C71.7727 33.7387 72.9327 34.1447 74.054 34.57C75.214 34.9567 76.3353 35.3627 77.418 35.788C78.3073 36.1747 78.926 36.8127 79.274 37.702C79.6607 38.5913 79.6607 39.4807 79.274 40.37C78.926 41.2207 78.3073 41.8393 77.418 42.226C76.5287 42.6127 75.6393 42.6127 74.75 42.226C73.7447 41.762 72.72 41.3367 71.676 40.95C70.632 40.5247 69.588 40.1187 68.544 39.732C67.3453 42.8253 65.934 45.7253 64.31 48.432C62.7247 51.1387 61.0233 53.4007 59.206 55.218C58.5487 55.8753 57.7367 56.2233 56.77 56.262C55.842 56.3007 55.0107 56.0107 54.276 55.392ZM39.834 41.646C40.762 41.2593 41.7093 40.602 42.676 39.674C43.6427 38.746 44.59 37.47 45.518 35.846C42.4633 36.1167 40.2787 36.6967 38.964 37.586C37.688 38.4753 37.0307 39.4613 36.992 40.544C36.992 41.1627 37.224 41.6073 37.688 41.878C38.1907 42.11 38.906 42.0327 39.834 41.646ZM90.584 54.928C89.7333 54.58 89.134 53.942 88.786 53.014C88.438 52.086 88.4573 51.1967 88.844 50.346C89.5013 48.9153 90.3327 47.1173 91.338 44.952C92.382 42.7867 93.5033 40.428 94.702 37.876C95.9393 35.324 97.196 32.714 98.472 30.046C99.748 27.378 101.005 24.7873 102.242 22.274C103.479 19.7607 104.62 17.4793 105.664 15.43C106.708 13.342 107.578 11.6407 108.274 10.326C108.699 9.47533 109.376 8.934 110.304 8.702C111.271 8.43133 112.16 8.54733 112.972 9.05C113.823 9.55267 114.364 10.268 114.596 11.196C114.867 12.0853 114.751 12.9553 114.248 13.806C113.707 14.7727 112.991 16.0873 112.102 17.75C111.251 19.4127 110.285 21.288 109.202 23.376C108.158 25.464 107.075 27.6487 105.954 29.93C107.307 29.35 108.68 29.06 110.072 29.06C113.745 29.06 116.259 30.22 117.612 32.54C119.004 34.86 119.139 38.0307 118.018 42.052C117.438 44.14 117.38 45.5707 117.844 46.344C118.347 47.1173 119.255 47.504 120.57 47.504C121.459 47.504 122.31 47.3107 123.122 46.924C123.934 46.4987 124.765 45.6673 125.616 44.43C126.467 43.1927 127.356 41.3753 128.284 38.978C128.632 38.0887 129.251 37.4507 130.14 37.064C131.029 36.6773 131.919 36.6387 132.808 36.948C133.697 37.296 134.335 37.9147 134.722 38.804C135.147 39.6933 135.186 40.602 134.838 41.53C133.291 45.8607 131.358 49.0893 129.038 51.216C126.757 53.304 123.837 54.348 120.28 54.348C117.844 54.348 115.795 53.8453 114.132 52.84C112.469 51.8347 111.367 50.3267 110.826 48.316C110.285 46.2667 110.439 43.7147 111.29 40.66C111.831 38.804 111.889 37.5087 111.464 36.774C111.039 36.0007 110.149 35.614 108.796 35.614C107.056 35.614 105.432 36.1553 103.924 37.238C102.416 38.3207 100.947 40.3507 99.516 43.328C99.3613 43.6373 99.0713 44.256 98.646 45.184C98.2593 46.0733 97.834 47.0593 97.37 48.142C96.906 49.2247 96.4613 50.2107 96.036 51.1C95.6493 51.9507 95.398 52.5307 95.282 52.84C94.8953 53.7293 94.2573 54.3867 93.368 54.812C92.5173 55.276 91.5893 55.3147 90.584 54.928ZM166.738 57.828C163.799 57.828 161.363 57.074 159.43 55.566C157.535 54.0967 156.588 51.912 156.588 49.012C156.588 46.3827 157.516 44.2947 159.372 42.748C161.267 41.1627 163.761 40.37 166.854 40.37C168.014 40.37 169.135 40.428 170.218 40.544V29.582C170.218 28.5767 170.547 27.7453 171.204 27.088C171.861 26.4307 172.673 26.102 173.64 26.102C174.607 26.102 175.419 26.4307 176.076 27.088C176.733 27.7453 177.062 28.5767 177.062 29.582V42.11C179.15 42.7673 181.122 43.5793 182.978 44.546C184.873 45.474 186.535 46.4407 187.966 47.446C188.739 48.026 189.203 48.7993 189.358 49.766C189.513 50.694 189.3 51.5447 188.72 52.318C188.179 53.0913 187.425 53.5553 186.458 53.71C185.53 53.8647 184.679 53.6713 183.906 53.13C182.978 52.3953 181.915 51.6993 180.716 51.042C179.556 50.346 178.338 49.708 177.062 49.128C176.83 51.9507 175.844 54.0967 174.104 55.566C172.364 57.074 169.909 57.828 166.738 57.828ZM151.31 41.762C150.575 42.3807 149.725 42.69 148.758 42.69C147.83 42.69 147.037 42.3613 146.38 41.704C145.684 41.008 145.336 40.1767 145.336 39.21C145.336 38.2047 145.703 37.3927 146.438 36.774C148.642 34.802 150.575 32.5593 152.238 30.046C153.939 27.5327 155.331 24.9227 156.414 22.216C155.37 22.3707 154.345 22.4867 153.34 22.564C152.373 22.6413 151.445 22.7187 150.556 22.796C149.551 22.8347 148.7 22.5447 148.004 21.926C147.308 21.3073 146.941 20.4567 146.902 19.374C146.863 18.4073 147.153 17.6147 147.772 16.996C148.391 16.3387 149.241 15.9907 150.324 15.952C151.561 15.8747 152.857 15.7587 154.21 15.604C155.602 15.4493 156.994 15.2753 158.386 15.082C158.579 14.1927 158.695 13.284 158.734 12.356C158.811 11.428 158.85 10.5387 158.85 9.688C158.85 8.72133 159.179 7.90933 159.836 7.252C160.493 6.556 161.305 6.208 162.272 6.208C163.239 6.208 164.07 6.556 164.766 7.252C165.462 7.90933 165.791 8.72133 165.752 9.688C165.713 11.0027 165.597 12.3753 165.404 13.806C165.675 13.7287 165.926 13.6707 166.158 13.632C166.429 13.5547 166.68 13.4967 166.912 13.458C167.879 13.226 168.768 13.342 169.58 13.806C170.392 14.27 170.895 15.0047 171.088 16.01C171.281 16.9767 171.107 17.8467 170.566 18.62C170.063 19.3933 169.348 19.896 168.42 20.128C167.801 20.2827 167.086 20.4373 166.274 20.592C165.501 20.7467 164.689 20.9013 163.838 21.056C162.639 25.116 160.957 28.944 158.792 32.54C156.665 36.136 154.171 39.21 151.31 41.762ZM184.776 26.392C183.539 25.6187 182.069 24.826 180.368 24.014C178.705 23.202 177.236 22.6027 175.96 22.216C175.071 21.9067 174.375 21.3653 173.872 20.592C173.369 19.8187 173.234 18.968 173.466 18.04C173.659 17.112 174.162 16.3967 174.974 15.894C175.825 15.3913 176.714 15.2753 177.642 15.546C178.802 15.8553 180.078 16.3 181.47 16.88C182.862 17.46 184.196 18.0787 185.472 18.736C186.787 19.3933 187.869 20.012 188.72 20.592C189.493 21.0947 189.957 21.8293 190.112 22.796C190.305 23.7627 190.131 24.652 189.59 25.464C189.087 26.2373 188.353 26.7207 187.386 26.914C186.458 27.0687 185.588 26.8947 184.776 26.392ZM166.68 51.448C167.956 51.448 168.865 51.158 169.406 50.578C169.947 49.998 170.218 49.1087 170.218 47.91V46.924C169.599 46.7693 168.981 46.6727 168.362 46.634C167.782 46.5567 167.221 46.518 166.68 46.518C165.481 46.518 164.592 46.75 164.012 47.214C163.471 47.6393 163.2 48.2387 163.2 49.012C163.2 49.7467 163.471 50.346 164.012 50.81C164.553 51.2353 165.443 51.448 166.68 51.448ZM231.466 53.826C230.499 54.058 229.591 53.9227 228.74 53.42C227.889 52.9173 227.348 52.202 227.116 51.274C226.884 50.346 227.019 49.476 227.522 48.664C228.025 47.8133 228.74 47.272 229.668 47.04C233.96 45.9187 237.111 44.1013 239.122 41.588C241.171 39.0747 242.196 35.8847 242.196 32.018C242.196 29.582 241.655 27.3973 240.572 25.464C239.489 23.5307 237.943 21.9647 235.932 20.766C233.96 19.5673 231.582 18.8327 228.798 18.562C228.102 25.058 226.923 30.684 225.26 35.44C223.636 40.1573 221.703 43.8113 219.46 46.402C217.256 48.954 214.936 50.23 212.5 50.23C210.451 50.23 208.575 49.6307 206.874 48.432C205.173 47.2333 203.819 45.5127 202.814 43.27C201.847 41.0273 201.364 38.34 201.364 35.208C201.364 31.9987 201.963 29.002 203.162 26.218C204.399 23.3953 206.139 20.9207 208.382 18.794C210.625 16.6673 213.254 15.0047 216.27 13.806C219.325 12.6073 222.669 12.008 226.304 12.008C230.712 12.008 234.617 12.8587 238.02 14.56C241.461 16.2227 244.168 18.562 246.14 21.578C248.112 24.5553 249.098 28.0353 249.098 32.018C249.098 37.6247 247.59 42.3033 244.574 46.054C241.597 49.766 237.227 52.3567 231.466 53.826ZM212.558 43.096C213.254 43.096 214.047 42.516 214.936 41.356C215.864 40.1573 216.792 38.4753 217.72 36.31C218.648 34.1447 219.499 31.5927 220.272 28.654C221.045 25.6767 221.625 22.39 222.012 18.794C218.996 19.374 216.463 20.4953 214.414 22.158C212.365 23.782 210.818 25.7347 209.774 28.016C208.73 30.2587 208.189 32.6173 208.15 35.092C208.15 37.7213 208.556 39.7127 209.368 41.066C210.219 42.4193 211.282 43.096 212.558 43.096Z" fill="white"/>
<path d="M190.834 63.005C215.082 63.365 235.03 82.6134 235.965 106.586C236.976 132.419 216.022 153.747 190.131 153.747C189.707 153.747 189.287 153.742 188.868 153.732C178.209 153.447 167.955 157.707 160.955 165.661C149.129 179.1 131.551 187.47 112.058 186.98C78.6116 186.14 51.5126 159.047 51.0072 125.955C50.4816 91.3326 78.7986 63 113.676 63H190.834V63.005Z" fill="#F46D6D"/>
<path d="M97.138 138.524C96.1327 138.563 95.2433 138.331 94.47 137.828C93.7353 137.325 93.31 136.591 93.194 135.624C93.1167 134.735 93.3293 133.923 93.832 133.188C94.3733 132.453 95.1467 132.028 96.152 131.912C97.1573 131.835 97.8147 131.641 98.124 131.332C98.472 130.984 98.646 130.385 98.646 129.534V118.108H93.136C92.7493 125.687 91.4153 131.777 89.134 136.378C88.67 137.267 87.9933 137.867 87.104 138.176C86.2147 138.485 85.3253 138.466 84.436 138.118C83.7013 137.809 83.1793 137.229 82.87 136.378C82.5993 135.527 82.696 134.677 83.16 133.826C84.5133 131.313 85.5187 128.316 86.176 124.836C86.8333 121.317 87.162 117.045 87.162 112.018V94.85C87.162 92.762 87.4133 91.1187 87.916 89.92C88.4573 88.7213 89.3853 87.89 90.7 87.426C92.0147 86.9233 93.832 86.672 96.152 86.672C98.472 86.672 100.27 86.9233 101.546 87.426C102.822 87.89 103.711 88.7213 104.214 89.92C104.755 91.1187 105.026 92.762 105.026 94.85V130.52C105.026 133.343 104.407 135.353 103.17 136.552C101.933 137.751 99.922 138.408 97.138 138.524ZM121.266 138.698C120.338 138.698 119.545 138.389 118.888 137.77C118.269 137.19 117.96 136.397 117.96 135.392V112.076H108.796C107.945 112.076 107.23 111.786 106.65 111.206C106.07 110.626 105.78 109.911 105.78 109.06C105.78 108.209 106.07 107.494 106.65 106.914C107.23 106.334 107.945 106.044 108.796 106.044H117.96V93.806H109.898C109.086 93.806 108.371 93.516 107.752 92.936C107.172 92.356 106.882 91.6407 106.882 90.79C106.882 89.9393 107.172 89.224 107.752 88.644C108.332 88.064 109.047 87.774 109.898 87.774H132.75C133.562 87.774 134.258 88.064 134.838 88.644C135.418 89.224 135.708 89.9393 135.708 90.79C135.708 91.6407 135.418 92.356 134.838 92.936C134.258 93.516 133.562 93.806 132.75 93.806H124.514V106.044H134.548C135.399 106.044 136.114 106.334 136.694 106.914C137.274 107.494 137.564 108.209 137.564 109.06C137.564 109.911 137.274 110.626 136.694 111.206C136.114 111.786 135.399 112.076 134.548 112.076H124.514V135.392C124.514 136.397 124.185 137.19 123.528 137.77C122.909 138.389 122.155 138.698 121.266 138.698ZM93.31 112.54H98.646V105.116H93.31V112.54ZM93.31 99.548H98.646V94.85C98.646 93.922 98.4527 93.284 98.066 92.936C97.718 92.5493 97.0413 92.356 96.036 92.356C94.992 92.356 94.2767 92.5493 93.89 92.936C93.5033 93.284 93.31 93.922 93.31 94.85V99.548ZM159.894 138.408C159.082 138.099 158.579 137.596 158.386 136.9C158.193 136.204 158.231 135.527 158.502 134.87C159.353 132.898 159.991 130.404 160.416 127.388C160.841 124.372 161.054 120.95 161.054 117.122V109.118C161.054 106.759 161.325 104.942 161.866 103.666C162.407 102.351 163.393 101.443 164.824 100.94C166.255 100.437 168.265 100.186 170.856 100.186H181.586V99.606C181.122 99.374 180.735 99.026 180.426 98.562C180.117 98.098 179.962 97.5567 179.962 96.938V95.14H174.162V96.938C174.162 97.8273 173.872 98.5427 173.292 99.084C172.712 99.6253 172.016 99.896 171.204 99.896C170.392 99.896 169.696 99.6253 169.116 99.084C168.536 98.5427 168.246 97.8273 168.246 96.938V95.14H162.04C161.383 95.14 160.803 94.8887 160.3 94.386C159.836 93.8833 159.604 93.3033 159.604 92.646C159.604 91.9887 159.836 91.4087 160.3 90.906C160.803 90.4033 161.383 90.152 162.04 90.152H168.246V88.122C168.246 87.2327 168.536 86.5173 169.116 85.976C169.696 85.4347 170.392 85.164 171.204 85.164C172.016 85.164 172.712 85.4347 173.292 85.976C173.872 86.5173 174.162 87.2327 174.162 88.122V90.152H179.962V88.122C179.962 87.2327 180.252 86.5173 180.832 85.976C181.412 85.4347 182.108 85.164 182.92 85.164C183.732 85.164 184.409 85.4347 184.95 85.976C185.53 86.5173 185.82 87.2327 185.82 88.122V90.152H194.056C194.752 90.152 195.332 90.4033 195.796 90.906C196.299 91.4087 196.55 91.9887 196.55 92.646C196.55 93.3033 196.299 93.8833 195.796 94.386C195.332 94.8887 194.752 95.14 194.056 95.14H192.2C192.509 95.4493 192.857 95.7973 193.244 96.184C193.669 96.5707 193.959 96.8607 194.114 97.054C194.539 97.518 194.752 98.0593 194.752 98.678C194.752 99.258 194.52 99.7607 194.056 100.186C194.752 100.225 195.332 100.495 195.796 100.998C196.26 101.462 196.492 102.042 196.492 102.738C196.492 103.473 196.241 104.072 195.738 104.536C195.274 105 194.655 105.232 193.882 105.232H187.096C187.173 107.281 187.27 109.273 187.386 111.206C187.541 113.139 187.715 114.995 187.908 116.774C188.797 114.415 189.493 112.134 189.996 109.93C190.189 109.157 190.634 108.615 191.33 108.306C192.026 107.958 192.741 107.881 193.476 108.074C194.172 108.306 194.694 108.731 195.042 109.35C195.39 109.93 195.467 110.626 195.274 111.438C194.617 113.835 193.805 116.252 192.838 118.688C191.871 121.124 190.75 123.483 189.474 125.764C189.706 126.615 189.957 127.427 190.228 128.2C190.499 128.973 190.789 129.669 191.098 130.288C191.291 130.713 191.485 130.926 191.678 130.926C191.91 130.926 192.103 130.694 192.258 130.23C192.374 129.921 192.471 129.631 192.548 129.36C192.664 129.051 192.761 128.761 192.838 128.49C193.109 127.678 193.573 127.117 194.23 126.808C194.887 126.46 195.603 126.421 196.376 126.692C197.884 127.272 198.445 128.335 198.058 129.882C197.865 130.694 197.594 131.583 197.246 132.55C196.898 133.517 196.55 134.406 196.202 135.218C195.583 136.571 194.752 137.519 193.708 138.06C192.703 138.64 191.659 138.756 190.576 138.408C189.532 138.099 188.623 137.325 187.85 136.088C187.038 134.851 186.342 133.362 185.762 131.622C184.911 132.743 184.003 133.826 183.036 134.87C182.108 135.953 181.141 136.939 180.136 137.828C179.556 138.331 178.879 138.601 178.106 138.64C177.371 138.679 176.733 138.447 176.192 137.944C175.651 137.403 175.38 136.745 175.38 135.972C175.419 135.237 175.728 134.619 176.308 134.116C176.617 133.845 176.907 133.575 177.178 133.304C177.487 133.033 177.777 132.763 178.048 132.492H175.554C173.659 132.492 172.151 132.299 171.03 131.912C169.947 131.487 169.155 130.752 168.652 129.708C168.188 128.625 167.956 127.117 167.956 125.184V114.918C167.956 112.985 168.169 111.496 168.594 110.452C169.058 109.369 169.851 108.635 170.972 108.248C172.093 107.823 173.621 107.61 175.554 107.61H180.484C180.987 107.61 181.47 107.803 181.934 108.19C181.895 107.262 181.837 106.276 181.76 105.232H170.856C169.155 105.232 168.014 105.483 167.434 105.986C166.854 106.489 166.564 107.533 166.564 109.118V117.122C166.564 121.569 166.351 125.377 165.926 128.548C165.501 131.719 164.785 134.483 163.78 136.842C163.471 137.538 162.929 138.041 162.156 138.35C161.421 138.659 160.667 138.679 159.894 138.408ZM151.774 138.64C150.923 138.64 150.208 138.408 149.628 137.944C149.087 137.48 148.777 136.861 148.7 136.088C148.661 135.315 148.855 134.619 149.28 134C149.744 133.42 150.324 133.091 151.02 133.014C151.909 132.937 152.489 132.763 152.76 132.492C153.069 132.221 153.224 131.622 153.224 130.694V118.804H149.28C149.164 122.4 148.893 125.706 148.468 128.722C148.081 131.699 147.424 134.387 146.496 136.784C146.225 137.596 145.742 138.137 145.046 138.408C144.35 138.717 143.615 138.737 142.842 138.466C142.107 138.195 141.585 137.712 141.276 137.016C141.005 136.359 141.005 135.701 141.276 135.044C142.359 132.376 143.093 129.089 143.48 125.184C143.905 121.279 144.118 116.774 144.118 111.67V93.922C144.118 92.1047 144.331 90.674 144.756 89.63C145.181 88.5473 145.916 87.7933 146.96 87.368C148.004 86.904 149.473 86.672 151.368 86.672C153.263 86.672 154.732 86.904 155.776 87.368C156.82 87.7933 157.555 88.5473 157.98 89.63C158.405 90.674 158.618 92.1047 158.618 93.922V131.274C158.618 133.942 158.077 135.837 156.994 136.958C155.911 138.079 154.171 138.64 151.774 138.64ZM181.702 128.258C182.127 127.717 182.514 127.175 182.862 126.634C183.21 126.054 183.558 125.474 183.906 124.894C183.519 122.883 183.171 120.737 182.862 118.456C182.553 116.175 182.301 113.758 182.108 111.206C181.644 111.747 181.103 112.018 180.484 112.018H178.86V114.802C179.865 115.073 180.542 115.595 180.89 116.368C181.238 117.141 181.412 118.321 181.412 119.906C181.412 121.453 181.238 122.613 180.89 123.386C180.542 124.159 179.865 124.681 178.86 124.952V128.084H180.89C181.199 128.084 181.47 128.142 181.702 128.258ZM149.338 113.352H153.224V105.232H149.396V111.67L149.338 113.352ZM149.396 99.838H153.224V93.98C153.224 93.284 153.108 92.82 152.876 92.588C152.644 92.3173 152.122 92.182 151.31 92.182C150.498 92.182 149.976 92.3173 149.744 92.588C149.512 92.82 149.396 93.284 149.396 93.98V99.838ZM186.98 100.186H190.808C190.537 99.9153 190.112 99.5093 189.532 98.968C188.991 98.4267 188.585 98.0207 188.314 97.75C187.966 97.402 187.753 96.9767 187.676 96.474C187.637 95.9713 187.734 95.5267 187.966 95.14H185.82V96.764C186.555 97.2667 186.922 98.0013 186.922 98.968L186.98 100.186ZM172.306 121.24H175.148C175.728 121.24 176.095 121.163 176.25 121.008C176.443 120.853 176.54 120.525 176.54 120.022C176.54 119.519 176.443 119.191 176.25 119.036C176.095 118.843 175.728 118.746 175.148 118.746H172.306V121.24ZM174.684 128.026V125.242H172.306C172.306 126.325 172.422 127.059 172.654 127.446C172.925 127.794 173.601 127.987 174.684 128.026ZM172.306 114.512H174.684V112.018C173.679 112.057 173.041 112.25 172.77 112.598C172.499 112.907 172.345 113.545 172.306 114.512Z" fill="white"/>
<path d="M50.68 219.494C49.8293 219.997 48.9013 220.093 47.896 219.784C46.9293 219.475 46.214 218.895 45.75 218.044C45.286 217.155 45.17 216.246 45.402 215.318C45.6727 214.39 46.2333 213.675 47.084 213.172C49.4813 211.857 51.492 210.407 53.116 208.822C54.74 207.198 56.0353 205.323 57.002 203.196C58.0073 201.069 58.7227 198.556 59.148 195.656C59.612 192.756 59.844 189.334 59.844 185.39C59.844 183.766 59.786 182.026 59.67 180.17C59.5927 178.314 59.4573 176.787 59.264 175.588C59.148 174.583 59.3993 173.693 60.018 172.92C60.6753 172.147 61.4873 171.702 62.454 171.586C63.4593 171.47 64.3293 171.721 65.064 172.34C65.8373 172.959 66.282 173.771 66.398 174.776C66.5527 175.704 66.6493 176.825 66.688 178.14C66.7653 179.416 66.804 180.692 66.804 181.968C66.8427 183.244 66.862 184.385 66.862 185.39C66.862 190.958 66.398 195.869 65.47 200.122C64.542 204.337 62.8987 208.029 60.54 211.2C58.22 214.332 54.9333 217.097 50.68 219.494ZM44.88 200.296C43.9133 200.219 43.1207 199.813 42.502 199.078C41.922 198.343 41.6513 197.454 41.69 196.41C41.7673 195.405 41.7867 194.071 41.748 192.408C41.7093 190.707 41.6513 188.928 41.574 187.072C41.4967 185.177 41.3807 183.379 41.226 181.678C41.11 179.938 40.9747 178.527 40.82 177.444C40.6653 176.4 40.8973 175.491 41.516 174.718C42.1347 173.945 42.9273 173.5 43.894 173.384C44.8993 173.268 45.7887 173.5 46.562 174.08C47.3353 174.621 47.78 175.395 47.896 176.4C48.012 177.483 48.128 178.952 48.244 180.808C48.3987 182.625 48.5147 184.559 48.592 186.608C48.708 188.657 48.7853 190.629 48.824 192.524C48.9013 194.38 48.9013 195.888 48.824 197.048C48.7853 198.092 48.36 198.904 47.548 199.484C46.7747 200.064 45.8853 200.335 44.88 200.296ZM105.954 219.436C105.065 219.823 104.156 219.842 103.228 219.494C102.3 219.185 101.623 218.585 101.198 217.696C100.811 216.807 100.773 215.898 101.082 214.97C101.43 214.003 102.049 213.327 102.938 212.94C107.307 210.891 110.536 208.126 112.624 204.646C114.712 201.166 115.814 196.681 115.93 191.19H107.114C107.153 192.737 107.172 194.206 107.172 195.598C107.172 196.99 107.133 198.247 107.056 199.368C107.017 200.373 106.631 201.205 105.896 201.862C105.161 202.481 104.291 202.771 103.286 202.732C102.319 202.655 101.527 202.249 100.908 201.514C100.289 200.741 99.9993 199.871 100.038 198.904C100.115 197.86 100.154 196.681 100.154 195.366C100.154 194.013 100.135 192.621 100.096 191.19H88.206C87.2393 191.19 86.408 190.861 85.712 190.204C85.0547 189.547 84.726 188.735 84.726 187.768C84.726 186.801 85.0547 185.989 85.712 185.332C86.408 184.636 87.2393 184.288 88.206 184.288H99.864C99.7867 182.935 99.69 181.659 99.574 180.46C99.4967 179.223 99.3807 178.14 99.226 177.212C99.0713 176.245 99.2647 175.375 99.806 174.602C100.386 173.79 101.159 173.307 102.126 173.152C103.131 172.959 104.021 173.152 104.794 173.732C105.606 174.312 106.07 175.085 106.186 176.052C106.341 177.135 106.476 178.391 106.592 179.822C106.708 181.214 106.805 182.703 106.882 184.288H115.872C115.833 182.625 115.775 181.021 115.698 179.474C115.659 177.889 115.582 176.516 115.466 175.356C115.389 174.351 115.659 173.481 116.278 172.746C116.935 171.973 117.747 171.547 118.714 171.47C119.719 171.393 120.589 171.683 121.324 172.34C122.097 172.959 122.503 173.771 122.542 174.776C122.658 175.975 122.735 177.425 122.774 179.126C122.851 180.789 122.909 182.509 122.948 184.288H133.968C134.935 184.288 135.747 184.636 136.404 185.332C137.1 185.989 137.448 186.801 137.448 187.768C137.448 188.735 137.1 189.547 136.404 190.204C135.747 190.861 134.935 191.19 133.968 191.19H122.948C122.832 198.073 121.343 203.892 118.482 208.648C115.621 213.365 111.445 216.961 105.954 219.436ZM150.382 198.788C149.415 198.788 148.565 198.44 147.83 197.744C147.134 197.009 146.786 196.159 146.786 195.192C146.786 194.187 147.134 193.336 147.83 192.64C148.565 191.944 149.415 191.596 150.382 191.596H186.516C187.521 191.596 188.372 191.944 189.068 192.64C189.764 193.336 190.112 194.187 190.112 195.192C190.112 196.159 189.764 197.009 189.068 197.744C188.372 198.44 187.521 198.788 186.516 198.788H150.382ZM216.734 218.044C215.961 218.624 215.071 218.837 214.066 218.682C213.099 218.566 212.326 218.121 211.746 217.348C211.127 216.536 210.895 215.647 211.05 214.68C211.205 213.713 211.669 212.921 212.442 212.302C214.994 210.407 217.14 208.107 218.88 205.4C220.62 202.693 221.896 199.735 222.708 196.526H202.872C201.905 196.526 201.074 196.197 200.378 195.54C199.721 194.844 199.392 194.013 199.392 193.046C199.392 192.079 199.721 191.267 200.378 190.61C201.074 189.914 201.905 189.566 202.872 189.566H223.694C223.733 187.555 223.617 185.506 223.346 183.418C221.026 183.805 218.725 184.133 216.444 184.404C214.163 184.636 212.036 184.81 210.064 184.926C209.097 185.003 208.247 184.694 207.512 183.998C206.816 183.302 206.449 182.471 206.41 181.504C206.371 180.499 206.7 179.667 207.396 179.01C208.092 178.314 208.923 177.947 209.89 177.908C211.823 177.831 213.911 177.657 216.154 177.386C218.397 177.115 220.659 176.787 222.94 176.4C225.221 176.013 227.387 175.588 229.436 175.124C231.524 174.621 233.361 174.119 234.946 173.616C235.913 173.307 236.841 173.345 237.73 173.732C238.619 174.119 239.238 174.776 239.586 175.704C239.934 176.632 239.895 177.541 239.47 178.43C239.083 179.319 238.407 179.919 237.44 180.228C236.473 180.576 235.371 180.905 234.134 181.214C232.897 181.523 231.582 181.833 230.19 182.142C230.383 183.341 230.499 184.578 230.538 185.854C230.615 187.091 230.635 188.329 230.596 189.566H247.358C248.325 189.566 249.137 189.914 249.794 190.61C250.49 191.267 250.838 192.079 250.838 193.046C250.838 194.013 250.49 194.844 249.794 195.54C249.137 196.197 248.325 196.526 247.358 196.526H229.726C228.837 200.934 227.271 205.033 225.028 208.822C222.824 212.573 220.059 215.647 216.734 218.044Z" fill="white"/>
</svg>
