<svg width="120" height="66" viewBox="0 0 120 66" fill="none" xmlns="http://www.w3.org/2000/svg">
<path d="M28.4015 6.835C28.4708 6.965 28.5098 7.082 28.5185 7.186C28.5358 7.29 28.5445 7.44167 28.5445 7.641V14.856C28.5445 15.454 28.3798 15.805 28.0505 15.909C27.8858 15.961 27.6778 15.987 27.4265 15.987C27.1752 15.987 26.9758 15.9653 26.8285 15.922C26.6812 15.8787 26.5685 15.8267 26.4905 15.766C26.4125 15.7053 26.3518 15.6187 26.3085 15.506C26.2652 15.3587 26.2435 15.1333 26.2435 14.83V10.475C26.0268 10.7437 25.7105 11.1727 25.2945 11.762C24.8785 12.3427 24.6142 12.7067 24.5015 12.854C24.3888 13.0013 24.3108 13.1053 24.2675 13.166C24.2242 13.218 24.1158 13.296 23.9425 13.4C23.7778 13.4953 23.5958 13.543 23.3965 13.543C23.2058 13.543 23.0282 13.4997 22.8635 13.413C22.7075 13.3177 22.5948 13.2267 22.5255 13.14L22.4215 12.997C22.2482 12.7803 21.9058 12.321 21.3945 11.619C20.8832 10.9083 20.6058 10.527 20.5625 10.475V14.856C20.5625 15.0553 20.5538 15.207 20.5365 15.311C20.5278 15.4063 20.4888 15.5147 20.4195 15.636C20.2895 15.87 19.9515 15.987 19.4055 15.987C18.8768 15.987 18.5475 15.87 18.4175 15.636C18.3482 15.5147 18.3048 15.402 18.2875 15.298C18.2788 15.194 18.2745 15.038 18.2745 14.83V7.615C18.2745 7.41567 18.2788 7.26833 18.2875 7.173C18.3048 7.069 18.3482 6.952 18.4175 6.822C18.5475 6.59667 18.8855 6.484 19.4315 6.484C19.6655 6.484 19.8648 6.51433 20.0295 6.575C20.2028 6.627 20.3155 6.68333 20.3675 6.744L20.4455 6.822L23.3965 10.696C24.8698 8.746 25.8535 7.459 26.3475 6.835C26.4948 6.601 26.8415 6.484 27.3875 6.484C27.9422 6.484 28.2802 6.601 28.4015 6.835ZM32.186 7.615C32.186 7.41567 32.1903 7.26833 32.199 7.173C32.2163 7.069 32.2597 6.952 32.329 6.822C32.4503 6.588 32.7883 6.471 33.343 6.471C33.9497 6.471 34.3093 6.63133 34.422 6.952C34.4653 7.09933 34.487 7.32467 34.487 7.628V14.856C34.487 15.064 34.4783 15.2157 34.461 15.311C34.4523 15.4063 34.4133 15.519 34.344 15.649C34.2227 15.883 33.8847 16 33.33 16C32.7233 16 32.368 15.8353 32.264 15.506C32.212 15.3673 32.186 15.1463 32.186 14.843V7.615ZM44.2739 6.874C44.3605 6.718 44.4862 6.614 44.6509 6.562C44.8155 6.51 45.0192 6.484 45.2619 6.484C45.5132 6.484 45.7125 6.50567 45.8599 6.549C46.0159 6.59233 46.1285 6.64433 46.1979 6.705C46.2759 6.76567 46.3322 6.85667 46.3669 6.978C46.4189 7.11667 46.4449 7.33767 46.4449 7.641V14.856C46.4449 15.064 46.4362 15.2157 46.4189 15.311C46.4102 15.4063 46.3712 15.519 46.3019 15.649C46.1805 15.883 45.8425 16 45.2879 16C44.9499 16 44.7159 15.974 44.5859 15.922C44.4559 15.87 44.3475 15.7877 44.2609 15.675C42.3109 13.075 41.0282 11.3763 40.4129 10.579V14.856C40.4129 15.064 40.4042 15.2157 40.3869 15.311C40.3782 15.4063 40.3392 15.519 40.2699 15.649C40.1485 15.883 39.8105 16 39.2559 16C38.7185 16 38.3892 15.883 38.2679 15.649C38.1985 15.519 38.1552 15.402 38.1379 15.298C38.1292 15.194 38.1249 15.0423 38.1249 14.843V7.589C38.1249 7.25967 38.1639 7.02133 38.2419 6.874C38.3285 6.718 38.4542 6.614 38.6189 6.562C38.7835 6.51 38.9959 6.484 39.2559 6.484C39.5159 6.484 39.7195 6.51 39.8669 6.562C40.0229 6.60533 40.1312 6.65733 40.1919 6.718C40.2265 6.744 40.3262 6.85667 40.4909 7.056C42.3195 9.54333 43.5415 11.1857 44.1569 11.983V7.589C44.1569 7.25967 44.1959 7.02133 44.2739 6.874ZM56.2303 6.874C56.317 6.718 56.4427 6.614 56.6073 6.562C56.772 6.51 56.9757 6.484 57.2183 6.484C57.4697 6.484 57.669 6.50567 57.8163 6.549C57.9723 6.59233 58.085 6.64433 58.1543 6.705C58.2323 6.76567 58.2887 6.85667 58.3233 6.978C58.3753 7.11667 58.4013 7.33767 58.4013 7.641V14.856C58.4013 15.064 58.3927 15.2157 58.3753 15.311C58.3667 15.4063 58.3277 15.519 58.2583 15.649C58.137 15.883 57.799 16 57.2443 16C56.9063 16 56.6723 15.974 56.5423 15.922C56.4123 15.87 56.304 15.7877 56.2173 15.675C54.2673 13.075 52.9847 11.3763 52.3693 10.579V14.856C52.3693 15.064 52.3607 15.2157 52.3433 15.311C52.3347 15.4063 52.2957 15.519 52.2263 15.649C52.105 15.883 51.767 16 51.2123 16C50.675 16 50.3457 15.883 50.2243 15.649C50.155 15.519 50.1117 15.402 50.0943 15.298C50.0857 15.194 50.0813 15.0423 50.0813 14.843V7.589C50.0813 7.25967 50.1203 7.02133 50.1983 6.874C50.285 6.718 50.4107 6.614 50.5753 6.562C50.74 6.51 50.9523 6.484 51.2123 6.484C51.4723 6.484 51.676 6.51 51.8233 6.562C51.9793 6.60533 52.0877 6.65733 52.1483 6.718C52.183 6.744 52.2827 6.85667 52.4473 7.056C54.276 9.54333 55.498 11.1857 56.1133 11.983V7.589C56.1133 7.25967 56.1523 7.02133 56.2303 6.874ZM67.5368 7.147L71.0468 14.401C71.1941 14.6957 71.2678 14.9167 71.2678 15.064C71.2678 15.376 71.0164 15.6577 70.5138 15.909C70.2191 16.0563 69.9851 16.13 69.8118 16.13C69.6471 16.13 69.5084 16.091 69.3958 16.013C69.2918 15.935 69.2138 15.8527 69.1618 15.766C69.1184 15.6793 69.0534 15.5493 68.9668 15.376L68.2908 13.972H64.6898L64.0138 15.376C63.9271 15.5493 63.8578 15.675 63.8058 15.753C63.7624 15.831 63.6844 15.9133 63.5718 16C63.4678 16.078 63.3291 16.117 63.1558 16.117C62.9911 16.117 62.7614 16.0433 62.4668 15.896C61.9641 15.6533 61.7128 15.376 61.7128 15.064C61.7128 14.9167 61.7864 14.6957 61.9338 14.401L65.4438 7.134C65.5391 6.93467 65.6821 6.77433 65.8728 6.653C66.0721 6.53167 66.2801 6.471 66.4968 6.471C66.9648 6.471 67.3114 6.69633 67.5368 7.147ZM66.4838 10.267L65.6258 12.048H67.3548L66.4838 10.267ZM86.6153 6.874C86.7019 6.718 86.8276 6.614 86.9923 6.562C87.1569 6.51 87.3606 6.484 87.6033 6.484C87.8546 6.484 88.0539 6.50567 88.2013 6.549C88.3573 6.59233 88.4699 6.64433 88.5393 6.705C88.6173 6.76567 88.6736 6.85667 88.7083 6.978C88.7603 7.11667 88.7863 7.33767 88.7863 7.641V14.856C88.7863 15.064 88.7776 15.2157 88.7603 15.311C88.7516 15.4063 88.7126 15.519 88.6433 15.649C88.5219 15.883 88.1839 16 87.6293 16C87.2913 16 87.0573 15.974 86.9273 15.922C86.7973 15.87 86.6889 15.7877 86.6023 15.675C84.6523 13.075 83.3696 11.3763 82.7543 10.579V14.856C82.7543 15.064 82.7456 15.2157 82.7283 15.311C82.7196 15.4063 82.6806 15.519 82.6113 15.649C82.4899 15.883 82.1519 16 81.5973 16C81.0599 16 80.7306 15.883 80.6093 15.649C80.5399 15.519 80.4966 15.402 80.4793 15.298C80.4706 15.194 80.4663 15.0423 80.4663 14.843V7.589C80.4663 7.25967 80.5053 7.02133 80.5833 6.874C80.6699 6.718 80.7956 6.614 80.9603 6.562C81.1249 6.51 81.3373 6.484 81.5973 6.484C81.8573 6.484 82.0609 6.51 82.2083 6.562C82.3643 6.60533 82.4726 6.65733 82.5333 6.718C82.5679 6.744 82.6676 6.85667 82.8323 7.056C84.6609 9.54333 85.8829 11.1857 86.4983 11.983V7.589C86.4983 7.25967 86.5373 7.02133 86.6153 6.874ZM96.8947 6.354C98.1774 6.354 99.2911 6.81767 100.236 7.745C101.18 8.67233 101.653 9.825 101.653 11.203C101.653 12.5723 101.202 13.7423 100.301 14.713C99.3994 15.675 98.2901 16.156 96.9727 16.156C95.6554 16.156 94.5331 15.6793 93.6057 14.726C92.6871 13.7727 92.2277 12.6373 92.2277 11.32C92.2277 10.6007 92.3577 9.929 92.6177 9.305C92.8777 8.67233 93.2244 8.14367 93.6577 7.719C94.0911 7.29433 94.5894 6.96067 95.1527 6.718C95.7161 6.47533 96.2967 6.354 96.8947 6.354ZM94.5287 11.255C94.5287 12.0263 94.7757 12.6547 95.2697 13.14C95.7724 13.6167 96.3314 13.855 96.9467 13.855C97.5621 13.855 98.1167 13.621 98.6107 13.153C99.1047 12.685 99.3517 12.0567 99.3517 11.268C99.3517 10.4793 99.1004 9.84667 98.5977 9.37C98.1037 8.89333 97.5491 8.655 96.9337 8.655C96.3184 8.655 95.7637 8.89767 95.2697 9.383C94.7757 9.85967 94.5287 10.4837 94.5287 11.255Z" fill="white"/>
<path d="M24.4376 64.0854C24.5676 64.3974 24.6326 64.6227 24.6326 64.7614C24.6326 65.0907 24.3639 65.3681 23.8266 65.5934C23.5493 65.7147 23.3239 65.7754 23.1506 65.7754C22.9859 65.7754 22.8473 65.7364 22.7346 65.6584C22.6306 65.5717 22.5526 65.4851 22.5006 65.3984C22.4139 65.2337 22.0759 64.4494 21.4866 63.0454L21.0836 63.0714H19.4456V64.5404C19.4456 64.7397 19.4369 64.8914 19.4196 64.9954C19.4109 65.0907 19.3719 65.2034 19.3026 65.3334C19.1813 65.5674 18.8433 65.6844 18.2886 65.6844C17.6819 65.6844 17.3266 65.5241 17.2226 65.2034C17.1706 65.0561 17.1446 64.8307 17.1446 64.5274V57.3124C17.1446 57.1131 17.1489 56.9657 17.1576 56.8704C17.1749 56.7664 17.2183 56.6494 17.2876 56.5194C17.4089 56.2854 17.7469 56.1684 18.3016 56.1684H21.1096C21.8723 56.1684 22.6133 56.4457 23.3326 57.0004C23.6793 57.2691 23.9653 57.6331 24.1906 58.0924C24.4159 58.5517 24.5286 59.0631 24.5286 59.6264C24.5286 60.6057 24.2036 61.4117 23.5536 62.0444C23.7443 62.5037 24.0389 63.1841 24.4376 64.0854ZM19.4456 60.7704H21.1096C21.3609 60.7704 21.6123 60.6751 21.8636 60.4844C22.1149 60.2937 22.2406 60.0077 22.2406 59.6264C22.2406 59.2451 22.1149 58.9591 21.8636 58.7684C21.6123 58.5691 21.3523 58.4694 21.0836 58.4694H19.4456V60.7704ZM30.2468 63.3964H34.2508C34.4501 63.3964 34.5974 63.4051 34.6928 63.4224C34.7968 63.4311 34.9138 63.4701 35.0438 63.5394C35.2778 63.6607 35.3948 63.9987 35.3948 64.5534C35.3948 65.1601 35.2344 65.5154 34.9138 65.6194C34.7664 65.6714 34.5411 65.6974 34.2378 65.6974H29.0898C28.4831 65.6974 28.1278 65.5327 28.0238 65.2034C27.9718 65.0647 27.9458 64.8437 27.9458 64.5404V57.3124C27.9458 56.8704 28.0281 56.5714 28.1928 56.4154C28.3574 56.2507 28.6694 56.1684 29.1288 56.1684H34.2508C34.4501 56.1684 34.5974 56.1771 34.6928 56.1944C34.7968 56.2031 34.9138 56.2421 35.0438 56.3114C35.2778 56.4327 35.3948 56.7707 35.3948 57.3254C35.3948 57.9321 35.2344 58.2874 34.9138 58.3914C34.7664 58.4434 34.5411 58.4694 34.2378 58.4694H30.2468V59.7824H32.8208C33.0201 59.7824 33.1674 59.7911 33.2628 59.8084C33.3668 59.8171 33.4838 59.8561 33.6138 59.9254C33.8478 60.0467 33.9648 60.3847 33.9648 60.9394C33.9648 61.5461 33.8001 61.9014 33.4708 62.0054C33.3234 62.0574 33.0981 62.0834 32.7948 62.0834H30.2468V63.3964ZM38.9788 64.3584C38.7535 64.0811 38.6408 63.8341 38.6408 63.6174C38.6408 63.3921 38.8271 63.0974 39.1998 62.7334C39.4165 62.5254 39.6461 62.4214 39.8888 62.4214C40.1315 62.4214 40.4695 62.6381 40.9028 63.0714C41.0241 63.2187 41.1975 63.3617 41.4228 63.5004C41.6481 63.6304 41.8561 63.6954 42.0468 63.6954C42.8528 63.6954 43.2558 63.3661 43.2558 62.7074C43.2558 62.5081 43.1431 62.3434 42.9178 62.2134C42.7011 62.0747 42.4281 61.9751 42.0988 61.9144C41.7695 61.8537 41.4141 61.7584 41.0328 61.6284C40.6515 61.4897 40.2961 61.3294 39.9668 61.1474C39.6375 60.9654 39.3601 60.6794 39.1348 60.2894C38.9181 59.8907 38.8098 59.4141 38.8098 58.8594C38.8098 58.0967 39.0915 57.4337 39.6548 56.8704C40.2268 56.2984 41.0025 56.0124 41.9818 56.0124C42.5018 56.0124 42.9741 56.0817 43.3988 56.2204C43.8321 56.3504 44.1311 56.4847 44.2958 56.6234L44.6208 56.8704C44.8895 57.1217 45.0238 57.3341 45.0238 57.5074C45.0238 57.6807 44.9198 57.9191 44.7118 58.2224C44.4171 58.6557 44.1138 58.8724 43.8018 58.8724C43.6198 58.8724 43.3945 58.7857 43.1258 58.6124C43.0998 58.5951 43.0478 58.5517 42.9698 58.4824C42.9005 58.4131 42.8355 58.3567 42.7748 58.3134C42.5928 58.2007 42.3588 58.1444 42.0728 58.1444C41.7955 58.1444 41.5615 58.2137 41.3708 58.3524C41.1888 58.4824 41.0978 58.6687 41.0978 58.9114C41.0978 59.1454 41.2061 59.3361 41.4228 59.4834C41.6481 59.6307 41.9255 59.7304 42.2548 59.7824C42.5841 59.8344 42.9438 59.9167 43.3338 60.0294C43.7238 60.1334 44.0835 60.2634 44.4128 60.4194C44.7421 60.5754 45.0151 60.8484 45.2318 61.2384C45.4571 61.6197 45.5698 62.0921 45.5698 62.6554C45.5698 63.2187 45.4571 63.7171 45.2318 64.1504C45.0065 64.5751 44.7118 64.9044 44.3478 65.1384C43.6458 65.5977 42.8961 65.8274 42.0988 65.8274C41.6915 65.8274 41.3058 65.7797 40.9418 65.6844C40.5778 65.5804 40.2831 65.4547 40.0578 65.3074C39.5985 65.0301 39.2778 64.7614 39.0958 64.5014L38.9788 64.3584ZM51.3159 63.3964H55.3199C55.5192 63.3964 55.6666 63.4051 55.7619 63.4224C55.8659 63.4311 55.9829 63.4701 56.1129 63.5394C56.3469 63.6607 56.4639 63.9987 56.4639 64.5534C56.4639 65.1601 56.3036 65.5154 55.9829 65.6194C55.8356 65.6714 55.6102 65.6974 55.3069 65.6974H50.1589C49.5522 65.6974 49.1969 65.5327 49.0929 65.2034C49.0409 65.0647 49.0149 64.8437 49.0149 64.5404V57.3124C49.0149 56.8704 49.0972 56.5714 49.2619 56.4154C49.4266 56.2507 49.7386 56.1684 50.1979 56.1684H55.3199C55.5192 56.1684 55.6666 56.1771 55.7619 56.1944C55.8659 56.2031 55.9829 56.2421 56.1129 56.3114C56.3469 56.4327 56.4639 56.7707 56.4639 57.3254C56.4639 57.9321 56.3036 58.2874 55.9829 58.3914C55.8356 58.4434 55.6102 58.4694 55.3069 58.4694H51.3159V59.7824H53.8899C54.0892 59.7824 54.2366 59.7911 54.3319 59.8084C54.4359 59.8171 54.5529 59.8561 54.6829 59.9254C54.9169 60.0467 55.0339 60.3847 55.0339 60.9394C55.0339 61.5461 54.8692 61.9014 54.5399 62.0054C54.3926 62.0574 54.1672 62.0834 53.8639 62.0834H51.3159V63.3964ZM65.404 56.8444L68.914 64.0984C69.0613 64.3931 69.135 64.6141 69.135 64.7614C69.135 65.0734 68.8836 65.3551 68.381 65.6064C68.0863 65.7537 67.8523 65.8274 67.679 65.8274C67.5143 65.8274 67.3756 65.7884 67.263 65.7104C67.159 65.6324 67.081 65.5501 67.029 65.4634C66.9856 65.3767 66.9206 65.2467 66.834 65.0734L66.158 63.6694H62.557L61.881 65.0734C61.7943 65.2467 61.725 65.3724 61.673 65.4504C61.6296 65.5284 61.5516 65.6107 61.439 65.6974C61.335 65.7754 61.1963 65.8144 61.023 65.8144C60.8583 65.8144 60.6286 65.7407 60.334 65.5934C59.8313 65.3507 59.58 65.0734 59.58 64.7614C59.58 64.6141 59.6536 64.3931 59.801 64.0984L63.311 56.8314C63.4063 56.6321 63.5493 56.4717 63.74 56.3504C63.9393 56.2291 64.1473 56.1684 64.364 56.1684C64.832 56.1684 65.1786 56.3937 65.404 56.8444ZM64.351 59.9644L63.493 61.7454H65.222L64.351 59.9644ZM79.7384 64.0854C79.8684 64.3974 79.9334 64.6227 79.9334 64.7614C79.9334 65.0907 79.6647 65.3681 79.1274 65.5934C78.8501 65.7147 78.6247 65.7754 78.4514 65.7754C78.2867 65.7754 78.1481 65.7364 78.0354 65.6584C77.9314 65.5717 77.8534 65.4851 77.8014 65.3984C77.7147 65.2337 77.3767 64.4494 76.7874 63.0454L76.3844 63.0714H74.7464V64.5404C74.7464 64.7397 74.7377 64.8914 74.7204 64.9954C74.7117 65.0907 74.6727 65.2034 74.6034 65.3334C74.4821 65.5674 74.1441 65.6844 73.5894 65.6844C72.9827 65.6844 72.6274 65.5241 72.5234 65.2034C72.4714 65.0561 72.4454 64.8307 72.4454 64.5274V57.3124C72.4454 57.1131 72.4497 56.9657 72.4584 56.8704C72.4757 56.7664 72.5191 56.6494 72.5884 56.5194C72.7097 56.2854 73.0477 56.1684 73.6024 56.1684H76.4104C77.1731 56.1684 77.9141 56.4457 78.6334 57.0004C78.9801 57.2691 79.2661 57.6331 79.4914 58.0924C79.7167 58.5517 79.8294 59.0631 79.8294 59.6264C79.8294 60.6057 79.5044 61.4117 78.8544 62.0444C79.0451 62.5037 79.3397 63.1841 79.7384 64.0854ZM74.7464 60.7704H76.4104C76.6617 60.7704 76.9131 60.6751 77.1644 60.4844C77.4157 60.2937 77.5414 60.0077 77.5414 59.6264C77.5414 59.2451 77.4157 58.9591 77.1644 58.7684C76.9131 58.5691 76.6531 58.4694 76.3844 58.4694H74.7464V60.7704ZM89.0736 63.2014L89.3076 63.0324C89.6023 62.8591 89.8103 62.7724 89.9316 62.7724C90.2003 62.7724 90.4906 63.0151 90.8026 63.5004C90.9933 63.8037 91.0886 64.0464 91.0886 64.2284C91.0886 64.4104 91.0279 64.5621 90.9066 64.6834C90.7939 64.8047 90.6596 64.9131 90.5036 65.0084C90.3476 65.1037 90.1959 65.1947 90.0486 65.2814C89.9099 65.3681 89.6196 65.4807 89.1776 65.6194C88.7356 65.7581 88.3066 65.8274 87.8906 65.8274C87.4833 65.8274 87.0673 65.7754 86.6426 65.6714C86.2266 65.5587 85.7933 65.3767 85.3426 65.1254C84.9006 64.8654 84.5019 64.5534 84.1466 64.1894C83.7913 63.8167 83.4966 63.3444 83.2626 62.7724C83.0373 62.1917 82.9246 61.5634 82.9246 60.8874C82.9246 60.2114 83.0373 59.6004 83.2626 59.0544C83.4879 58.4997 83.7739 58.0447 84.1206 57.6894C84.4759 57.3254 84.8789 57.0221 85.3296 56.7794C86.1789 56.3114 87.0326 56.0774 87.8906 56.0774C88.2979 56.0774 88.7096 56.1424 89.1256 56.2724C89.5503 56.3937 89.8709 56.5194 90.0876 56.6494L90.3996 56.8314C90.5556 56.9267 90.6769 57.0047 90.7636 57.0654C90.9889 57.2474 91.1016 57.4554 91.1016 57.6894C91.1016 57.9147 91.0106 58.1531 90.8286 58.4044C90.4906 58.8724 90.1873 59.1064 89.9186 59.1064C89.7626 59.1064 89.5416 59.0111 89.2556 58.8204C88.8916 58.5257 88.4063 58.3784 87.7996 58.3784C87.2363 58.3784 86.6816 58.5734 86.1356 58.9634C85.8756 59.1541 85.6589 59.4227 85.4856 59.7694C85.3123 60.1161 85.2256 60.5104 85.2256 60.9524C85.2256 61.3857 85.3123 61.7757 85.4856 62.1224C85.6589 62.4691 85.8799 62.7421 86.1486 62.9414C86.6773 63.3227 87.2276 63.5134 87.7996 63.5134C88.0683 63.5134 88.3196 63.4787 88.5536 63.4094C88.7963 63.3401 88.9696 63.2707 89.0736 63.2014ZM100.432 56.5194C100.501 56.3894 100.618 56.2984 100.783 56.2464C100.948 56.1944 101.156 56.1684 101.407 56.1684C101.658 56.1684 101.858 56.1901 102.005 56.2334C102.152 56.2767 102.265 56.3287 102.343 56.3894C102.421 56.4501 102.482 56.5367 102.525 56.6494C102.568 56.7967 102.59 57.0221 102.59 57.3254V64.5404C102.59 64.7397 102.581 64.8914 102.564 64.9954C102.555 65.0907 102.516 65.2034 102.447 65.3334C102.326 65.5674 101.988 65.6844 101.433 65.6844C100.826 65.6844 100.471 65.5241 100.367 65.2034C100.315 65.0561 100.289 64.8307 100.289 64.5274V61.8884H96.8438V64.5404C96.8438 64.7397 96.8352 64.8914 96.8178 64.9954C96.8092 65.0907 96.7702 65.2034 96.7008 65.3334C96.5795 65.5674 96.2415 65.6844 95.6868 65.6844C95.0802 65.6844 94.7248 65.5241 94.6208 65.2034C94.5688 65.0561 94.5428 64.8307 94.5428 64.5274V57.3124C94.5428 57.1131 94.5472 56.9657 94.5558 56.8704C94.5732 56.7664 94.6165 56.6494 94.6858 56.5194C94.8072 56.2854 95.1452 56.1684 95.6998 56.1684C96.3065 56.1684 96.6662 56.3287 96.7788 56.6494C96.8222 56.7967 96.8438 57.0221 96.8438 57.3254V59.9774H100.289V57.3124C100.289 57.1131 100.293 56.9657 100.302 56.8704C100.319 56.7664 100.363 56.6494 100.432 56.5194Z" fill="white"/>
<path d="M16.451 35.9597L19.1312 38.6399C19.5604 39.0737 19.88 39.5622 20.0854 40.1101C20.2909 40.6581 20.3959 41.2151 20.3959 41.7721C20.3959 42.3292 20.2909 42.8817 20.0854 43.4204C19.88 43.9592 19.5604 44.4478 19.1312 44.877C18.7202 45.2879 18.2408 45.6075 17.702 45.8358C17.1632 46.0595 16.5971 46.1737 16.0081 46.1737H4.41067C3.8034 46.1737 3.2281 46.055 2.68932 45.8221C2.15054 45.5847 1.68482 45.2742 1.29215 44.8815C0.899484 44.4889 0.584436 44.0231 0.351575 43.4844C0.114148 42.9456 0 42.3703 0 41.763V30.161C0 29.5538 0.118714 28.9785 0.351575 28.4397C0.589002 27.9009 0.899484 27.4352 1.29215 27.0425C1.68482 26.6499 2.15054 26.3348 2.68932 26.1019C3.2281 25.8645 3.8034 25.7504 4.41067 25.7504C5.01793 25.7504 5.58867 25.8691 6.11832 26.1019C6.64796 26.3348 7.10912 26.6499 7.50179 27.0425C7.89445 27.4352 8.2095 27.9009 8.44236 28.4397C8.67979 28.9785 8.79394 29.5538 8.79394 30.161V31.1336L12.8896 27.038C13.3188 26.6088 13.8073 26.2891 14.3461 26.0791C14.8849 25.8736 15.4419 25.7686 16.0081 25.7686C16.5742 25.7686 17.1313 25.8736 17.6701 26.0791C18.2088 26.2846 18.6974 26.6042 19.1266 27.038C19.5558 27.4717 19.8754 27.9557 20.0809 28.4945C20.2863 29.0333 20.3913 29.5857 20.3913 30.1428C20.3913 30.6998 20.2863 31.2569 20.0809 31.8048C19.8754 32.3527 19.5558 32.8458 19.1266 33.275L16.4464 35.9552L16.451 35.9597Z" fill="white"/>
<path d="M33.8191 43.3474L32.6137 44.5847C32.084 45.1144 31.4813 45.5116 30.8056 45.7764C30.1298 46.0413 29.4358 46.1737 28.7327 46.1737C28.0295 46.1737 27.3355 46.0413 26.6597 45.7764C25.984 45.5116 25.3813 45.1144 24.8516 44.5847C24.322 44.0551 23.9248 43.4524 23.6599 42.7766C23.3951 42.1009 23.2627 41.4069 23.2627 40.6991C23.2627 39.9914 23.3951 39.302 23.6599 38.6262C23.9248 37.9505 24.322 37.3478 24.8516 36.8181L34.6775 26.9832C35.1888 26.4718 35.7824 26.0745 36.4582 25.7915C37.1339 25.5084 37.8462 25.3668 38.5904 25.3668C39.3347 25.3668 40.0652 25.5084 40.7227 25.7915C41.3802 26.0745 41.9601 26.4672 42.4578 26.9695C42.96 27.4717 43.3527 28.047 43.6358 28.7045C43.9189 29.362 44.0604 30.0743 44.0604 30.8368V40.6991C44.0604 41.4662 43.9189 42.1739 43.6358 42.8314C43.3527 43.4889 42.96 44.0688 42.4578 44.5665C41.9555 45.0641 41.3802 45.4614 40.7227 45.7445C40.0652 46.0276 39.353 46.1691 38.5904 46.1691C37.5677 46.1691 36.6317 45.9134 35.7779 45.402C34.924 44.8906 34.2711 44.2058 33.8191 43.3428V43.3474Z" fill="white"/>
<path d="M56.8496 26.9831L59.8814 30.0149C59.9179 29.4076 60.0732 28.8278 60.338 28.2798C60.6028 27.7319 60.9453 27.2617 61.3699 26.869C61.79 26.4763 62.2876 26.1613 62.8538 25.9284C63.4245 25.691 64.0227 25.5768 64.6482 25.5768C65.3148 25.5768 65.9404 25.7001 66.5157 25.9467C67.0955 26.1932 67.5978 26.5311 68.0315 26.9603C68.4653 27.3941 68.8078 27.8963 69.0634 28.4762C69.3191 29.0561 69.447 29.677 69.447 30.3436V41.5895C69.447 42.53 69.1913 43.393 68.6799 44.1783L68.6525 44.2377C68.3009 44.7856 67.8489 45.2376 67.301 45.5938C66.4974 46.1234 65.6116 46.3882 64.6528 46.3882C63.6939 46.3882 62.8492 46.1325 62.0639 45.6212L62.0365 45.5938C61.8813 45.4979 61.7352 45.3929 61.6119 45.2833C61.484 45.1737 61.3608 45.0641 61.242 44.9454L58.2103 41.9137C58.1692 42.5437 58.0185 43.1236 57.7537 43.667C57.4889 44.2057 57.1419 44.676 56.7081 45.0778C56.2743 45.4796 55.7812 45.7992 55.2196 46.0367C54.6626 46.2741 54.0644 46.3882 53.4389 46.3882C52.7723 46.3882 52.1468 46.2604 51.5714 46.0047C50.9916 45.749 50.4848 45.4066 50.0556 44.9728C49.6218 44.5436 49.2794 44.0368 49.0237 43.4569C48.768 42.8771 48.6401 42.2561 48.6401 41.5895V30.3391C48.6401 29.6725 48.768 29.0469 49.0237 28.4716C49.2794 27.8917 49.6218 27.3895 50.0556 26.9557C50.4848 26.5265 50.9916 26.1841 51.5714 25.9421C52.1513 25.6955 52.7723 25.5723 53.4389 25.5723C54.069 25.5723 54.6808 25.6955 55.279 25.9421C55.8771 26.1887 56.4022 26.5357 56.8542 26.9877L56.8496 26.9831Z" fill="white"/>
<path d="M93.0536 33.7498L90.0812 36.7222C90.6884 36.7633 91.2592 36.914 91.7888 37.1788C92.3184 37.4436 92.7842 37.7861 93.186 38.2107C93.5878 38.6308 93.9028 39.1193 94.1266 39.6672C94.3503 40.2151 94.4644 40.8041 94.4644 41.4342C94.4644 42.0643 94.3411 42.6899 94.0946 43.2606C93.848 43.8313 93.5102 44.329 93.081 44.7628C92.6472 45.1965 92.1495 45.5344 91.5788 45.7764C91.008 46.023 90.4008 46.1462 89.7524 46.1462H78.744C77.8217 46.1462 76.9679 45.8906 76.1825 45.3792L76.1232 45.3518C75.5935 45.0002 75.1506 44.5573 74.7991 44.0277C74.2877 43.2423 74.032 42.3794 74.032 41.4388C74.032 40.4982 74.2785 39.6718 74.7671 38.9093L74.7945 38.8499C74.8904 38.7129 74.9954 38.5805 75.105 38.4527C75.2146 38.3248 75.3241 38.2016 75.4429 38.0829L78.4153 35.1104C77.808 35.0694 77.2373 34.9187 76.7076 34.6539C76.178 34.389 75.7122 34.0466 75.3104 33.622C74.9086 33.2019 74.5936 32.7133 74.3699 32.1654C74.1461 31.6175 74.032 31.0285 74.032 30.3984C74.032 29.7683 74.1553 29.1428 74.4018 28.5721C74.6484 28.0013 74.9817 27.5082 75.4018 27.0836C75.8218 26.6635 76.3241 26.3302 76.9039 26.0836C77.4838 25.8371 78.0956 25.7138 78.744 25.7138H89.7524C90.4008 25.7138 91.008 25.8371 91.5788 26.0836C92.1495 26.3302 92.6472 26.6635 93.081 27.0836C93.5102 27.5036 93.8526 28.0013 94.0946 28.5721C94.3411 29.1428 94.4644 29.7501 94.4644 30.3984C94.4644 31.0468 94.3411 31.6312 94.0946 32.2065C93.848 32.7864 93.501 33.3023 93.049 33.7498H93.0536Z" fill="white"/>
<path d="M120 35.841V36.0785C120 37.8272 119.676 39.3522 119.027 40.6535C118.379 41.9593 117.521 43.0415 116.452 43.9044C115.384 44.7674 114.165 45.4203 112.804 45.8632C111.439 46.3061 110.051 46.5252 108.64 46.5252C107.229 46.5252 105.837 46.3061 104.476 45.8632C103.111 45.4203 101.896 44.7674 100.828 43.9044C99.7593 43.0415 98.9009 41.9593 98.2526 40.6535C97.6042 39.3476 97.28 37.8226 97.28 36.0785V35.841C97.28 34.0968 97.6042 32.5673 98.2526 31.266C98.9009 29.9601 99.7593 28.878 100.828 28.0151C101.896 27.1521 103.115 26.4992 104.476 26.0563C105.841 25.6134 107.229 25.3942 108.64 25.3942C110.051 25.3942 111.439 25.6134 112.804 26.0563C114.169 26.4992 115.384 27.1521 116.452 28.0151C117.521 28.878 118.379 29.9647 119.027 31.266C119.676 32.5718 120 34.0968 120 35.841Z" fill="white"/>
</svg>
