<svg width="169" height="88" viewBox="0 0 169 88" fill="none" xmlns="http://www.w3.org/2000/svg">
<path d="M36.089 4.08371C36.1957 4.28371 36.2557 4.46371 36.269 4.62372C36.2957 4.78372 36.309 5.01705 36.309 5.32372V16.4237C36.309 17.3437 36.0557 17.8837 35.549 18.0437C35.2957 18.1237 34.9757 18.1637 34.589 18.1637C34.2023 18.1637 33.8957 18.1304 33.669 18.0637C33.4423 17.997 33.269 17.917 33.149 17.8237C33.029 17.7304 32.9357 17.597 32.869 17.4237C32.8023 17.197 32.769 16.8504 32.769 16.3837V9.68372C32.4357 10.097 31.949 10.757 31.309 11.6637C30.669 12.557 30.2623 13.117 30.089 13.3437C29.9157 13.5704 29.7957 13.7304 29.729 13.8237C29.6623 13.9037 29.4957 14.0237 29.229 14.1837C28.9757 14.3304 28.6957 14.4037 28.389 14.4037C28.0957 14.4037 27.8223 14.337 27.569 14.2037C27.329 14.057 27.1557 13.917 27.049 13.7837L26.889 13.5637C26.6223 13.2304 26.0957 12.5237 25.309 11.4437C24.5223 10.3504 24.0957 9.76372 24.029 9.68372V16.4237C24.029 16.7304 24.0157 16.9637 23.989 17.1237C23.9757 17.2704 23.9157 17.437 23.809 17.6237C23.609 17.9837 23.089 18.1637 22.249 18.1637C21.4357 18.1637 20.929 17.9837 20.729 17.6237C20.6223 17.437 20.5557 17.2637 20.529 17.1037C20.5157 16.9437 20.509 16.7037 20.509 16.3837V5.28372C20.509 4.97705 20.5157 4.75038 20.529 4.60372C20.5557 4.44372 20.6223 4.26372 20.729 4.06372C20.929 3.71705 21.449 3.54371 22.289 3.54371C22.649 3.54371 22.9557 3.59038 23.209 3.68372C23.4757 3.76372 23.649 3.85038 23.729 3.94372L23.849 4.06372L28.389 10.0237C30.6557 7.02372 32.169 5.04372 32.929 4.08371C33.1557 3.72371 33.689 3.54371 34.529 3.54371C35.3823 3.54371 35.9023 3.72371 36.089 4.08371ZM41.9113 5.28372C41.9113 4.97705 41.918 4.75038 41.9313 4.60372C41.958 4.44372 42.0247 4.26372 42.1313 4.06372C42.318 3.70372 42.838 3.52372 43.6913 3.52372C44.6247 3.52372 45.178 3.77038 45.3513 4.26372C45.418 4.49038 45.4513 4.83705 45.4513 5.30371V16.4237C45.4513 16.7437 45.438 16.977 45.4113 17.1237C45.398 17.2704 45.338 17.4437 45.2313 17.6437C45.0447 18.0037 44.5247 18.1837 43.6713 18.1837C42.738 18.1837 42.1913 17.9304 42.0313 17.4237C41.9513 17.2104 41.9113 16.8704 41.9113 16.4037V5.28372ZM60.508 4.14372C60.6414 3.90372 60.8347 3.74372 61.088 3.66372C61.3414 3.58372 61.6547 3.54371 62.028 3.54371C62.4147 3.54371 62.7214 3.57705 62.948 3.64371C63.188 3.71038 63.3614 3.79038 63.468 3.88372C63.588 3.97705 63.6747 4.11705 63.728 4.30372C63.808 4.51705 63.848 4.85705 63.848 5.32372V16.4237C63.848 16.7437 63.8347 16.977 63.808 17.1237C63.7947 17.2704 63.7347 17.4437 63.628 17.6437C63.4414 18.0037 62.9214 18.1837 62.068 18.1837C61.548 18.1837 61.188 18.1437 60.988 18.0637C60.788 17.9837 60.6214 17.857 60.488 17.6837C57.488 13.6837 55.5147 11.0704 54.568 9.84372V16.4237C54.568 16.7437 54.5547 16.977 54.528 17.1237C54.5147 17.2704 54.4547 17.4437 54.348 17.6437C54.1614 18.0037 53.6414 18.1837 52.788 18.1837C51.9614 18.1837 51.4547 18.0037 51.268 17.6437C51.1614 17.4437 51.0947 17.2637 51.068 17.1037C51.0547 16.9437 51.048 16.7104 51.048 16.4037V5.24372C51.048 4.73705 51.108 4.37038 51.228 4.14372C51.3614 3.90372 51.5547 3.74372 51.808 3.66372C52.0614 3.58372 52.388 3.54371 52.788 3.54371C53.188 3.54371 53.5014 3.58372 53.728 3.66372C53.968 3.73038 54.1347 3.81038 54.228 3.90371C54.2814 3.94372 54.4347 4.11705 54.688 4.42372C57.5014 8.25038 59.3814 10.777 60.328 12.0037V5.24372C60.328 4.73705 60.388 4.37038 60.508 4.14372ZM78.9026 4.14372C79.0359 3.90372 79.2292 3.74372 79.4826 3.66372C79.7359 3.58372 80.0492 3.54371 80.4226 3.54371C80.8092 3.54371 81.1159 3.57705 81.3426 3.64371C81.5826 3.71038 81.7559 3.79038 81.8626 3.88372C81.9826 3.97705 82.0692 4.11705 82.1226 4.30372C82.2026 4.51705 82.2426 4.85705 82.2426 5.32372V16.4237C82.2426 16.7437 82.2292 16.977 82.2026 17.1237C82.1892 17.2704 82.1292 17.4437 82.0226 17.6437C81.8359 18.0037 81.3159 18.1837 80.4626 18.1837C79.9426 18.1837 79.5826 18.1437 79.3826 18.0637C79.1826 17.9837 79.0159 17.857 78.8826 17.6837C75.8826 13.6837 73.9092 11.0704 72.9626 9.84372V16.4237C72.9626 16.7437 72.9492 16.977 72.9226 17.1237C72.9092 17.2704 72.8492 17.4437 72.7426 17.6437C72.5559 18.0037 72.0359 18.1837 71.1826 18.1837C70.3559 18.1837 69.8492 18.0037 69.6626 17.6437C69.5559 17.4437 69.4892 17.2637 69.4626 17.1037C69.4492 16.9437 69.4426 16.7104 69.4426 16.4037V5.24372C69.4426 4.73705 69.5026 4.37038 69.6226 4.14372C69.7559 3.90372 69.9492 3.74372 70.2026 3.66372C70.4559 3.58372 70.7826 3.54371 71.1826 3.54371C71.5826 3.54371 71.8959 3.58372 72.1226 3.66372C72.3626 3.73038 72.5292 3.81038 72.6226 3.90371C72.6759 3.94372 72.8292 4.11705 73.0826 4.42372C75.8959 8.25038 77.7759 10.777 78.7226 12.0037V5.24372C78.7226 4.73705 78.7826 4.37038 78.9026 4.14372ZM96.2971 4.56371L101.697 15.7237C101.924 16.177 102.037 16.517 102.037 16.7437C102.037 17.2237 101.65 17.657 100.877 18.0437C100.424 18.2704 100.064 18.3837 99.7971 18.3837C99.5438 18.3837 99.3304 18.3237 99.1571 18.2037C98.9971 18.0837 98.8771 17.957 98.7971 17.8237C98.7304 17.6904 98.6304 17.4904 98.4971 17.2237L97.4571 15.0637H91.9171L90.8771 17.2237C90.7438 17.4904 90.6371 17.6837 90.5571 17.8037C90.4904 17.9237 90.3704 18.0504 90.1971 18.1837C90.0371 18.3037 89.8238 18.3637 89.5571 18.3637C89.3038 18.3637 88.9504 18.2504 88.4971 18.0237C87.7238 17.6504 87.3371 17.2237 87.3371 16.7437C87.3371 16.517 87.4504 16.177 87.6771 15.7237L93.0771 4.54372C93.2238 4.23705 93.4438 3.99038 93.7371 3.80371C94.0438 3.61705 94.3638 3.52372 94.6971 3.52372C95.4171 3.52372 95.9504 3.87038 96.2971 4.56371ZM94.6771 9.36372L93.3571 12.1037H96.0171L94.6771 9.36372ZM125.649 4.14372C125.782 3.90372 125.975 3.74372 126.229 3.66372C126.482 3.58372 126.795 3.54371 127.169 3.54371C127.555 3.54371 127.862 3.57705 128.089 3.64371C128.329 3.71038 128.502 3.79038 128.609 3.88372C128.729 3.97705 128.815 4.11705 128.869 4.30372C128.949 4.51705 128.989 4.85705 128.989 5.32372V16.4237C128.989 16.7437 128.975 16.977 128.949 17.1237C128.935 17.2704 128.875 17.4437 128.769 17.6437C128.582 18.0037 128.062 18.1837 127.209 18.1837C126.689 18.1837 126.329 18.1437 126.129 18.0637C125.929 17.9837 125.762 17.857 125.629 17.6837C122.629 13.6837 120.655 11.0704 119.709 9.84372V16.4237C119.709 16.7437 119.695 16.977 119.669 17.1237C119.655 17.2704 119.595 17.4437 119.489 17.6437C119.302 18.0037 118.782 18.1837 117.929 18.1837C117.102 18.1837 116.595 18.0037 116.409 17.6437C116.302 17.4437 116.235 17.2637 116.209 17.1037C116.195 16.9437 116.189 16.7104 116.189 16.4037V5.24372C116.189 4.73705 116.249 4.37038 116.369 4.14372C116.502 3.90372 116.695 3.74372 116.949 3.66372C117.202 3.58372 117.529 3.54371 117.929 3.54371C118.329 3.54371 118.642 3.58372 118.869 3.66372C119.109 3.73038 119.275 3.81038 119.369 3.90371C119.422 3.94372 119.575 4.11705 119.829 4.42372C122.642 8.25038 124.522 10.777 125.469 12.0037V5.24372C125.469 4.73705 125.529 4.37038 125.649 4.14372ZM141.463 3.34371C143.437 3.34371 145.15 4.05705 146.603 5.48371C148.057 6.91038 148.783 8.68372 148.783 10.8037C148.783 12.9104 148.09 14.7104 146.703 16.2037C145.317 17.6837 143.61 18.4237 141.583 18.4237C139.557 18.4237 137.83 17.6904 136.403 16.2237C134.99 14.757 134.283 13.0104 134.283 10.9837C134.283 9.87705 134.483 8.84372 134.883 7.88371C135.283 6.91038 135.817 6.09705 136.483 5.44372C137.15 4.79038 137.917 4.27705 138.783 3.90371C139.65 3.53038 140.543 3.34371 141.463 3.34371ZM137.823 10.8837C137.823 12.0704 138.203 13.037 138.963 13.7837C139.737 14.517 140.597 14.8837 141.543 14.8837C142.49 14.8837 143.343 14.5237 144.103 13.8037C144.863 13.0837 145.243 12.117 145.243 10.9037C145.243 9.69038 144.857 8.71705 144.083 7.98371C143.323 7.25038 142.47 6.88372 141.523 6.88372C140.577 6.88372 139.723 7.25705 138.963 8.00372C138.203 8.73705 137.823 9.69705 137.823 10.8837Z" fill="white"/>
<path d="M29.9907 84.8357C30.1907 85.3157 30.2907 85.6624 30.2907 85.8757C30.2907 86.3824 29.8774 86.8091 29.0507 87.1557C28.624 87.3424 28.2774 87.4357 28.0107 87.4357C27.7574 87.4357 27.544 87.3757 27.3707 87.2557C27.2107 87.1224 27.0907 86.9891 27.0107 86.8557C26.8774 86.6024 26.3574 85.3957 25.4507 83.2357L24.8307 83.2757H22.3107V85.5357C22.3107 85.8424 22.2974 86.0757 22.2707 86.2357C22.2574 86.3824 22.1974 86.5557 22.0907 86.7557C21.904 87.1157 21.384 87.2957 20.5307 87.2957C19.5974 87.2957 19.0507 87.0491 18.8907 86.5557C18.8107 86.3291 18.7707 85.9824 18.7707 85.5157V74.4157C18.7707 74.1091 18.7774 73.8824 18.7907 73.7357C18.8174 73.5757 18.884 73.3957 18.9907 73.1957C19.1774 72.8357 19.6974 72.6557 20.5507 72.6557H24.8707C26.044 72.6557 27.184 73.0824 28.2907 73.9357C28.824 74.3491 29.264 74.9091 29.6107 75.6157C29.9574 76.3224 30.1307 77.1091 30.1307 77.9757C30.1307 79.4824 29.6307 80.7224 28.6307 81.6957C28.924 82.4024 29.3774 83.4491 29.9907 84.8357ZM22.3107 79.7357H24.8707C25.2574 79.7357 25.644 79.5891 26.0307 79.2957C26.4174 79.0024 26.6107 78.5624 26.6107 77.9757C26.6107 77.3891 26.4174 76.9491 26.0307 76.6557C25.644 76.3491 25.244 76.1957 24.8307 76.1957H22.3107V79.7357ZM38.9279 83.7757H45.0879C45.3946 83.7757 45.6212 83.7891 45.7679 83.8157C45.9279 83.8291 46.1079 83.8891 46.3079 83.9957C46.6679 84.1824 46.8479 84.7024 46.8479 85.5557C46.8479 86.4891 46.6012 87.0357 46.1079 87.1957C45.8812 87.2757 45.5346 87.3157 45.0679 87.3157H37.1479C36.2146 87.3157 35.6679 87.0624 35.5079 86.5557C35.4279 86.3424 35.3879 86.0024 35.3879 85.5357V74.4157C35.3879 73.7357 35.5146 73.2757 35.7679 73.0357C36.0212 72.7824 36.5012 72.6557 37.2079 72.6557H45.0879C45.3946 72.6557 45.6212 72.6691 45.7679 72.6957C45.9279 72.7091 46.1079 72.7691 46.3079 72.8757C46.6679 73.0624 46.8479 73.5824 46.8479 74.4357C46.8479 75.3691 46.6012 75.9157 46.1079 76.0757C45.8812 76.1557 45.5346 76.1957 45.0679 76.1957H38.9279V78.2157H42.8879C43.1946 78.2157 43.4212 78.2291 43.5679 78.2557C43.7279 78.2691 43.9079 78.3291 44.1079 78.4357C44.4679 78.6224 44.6479 79.1424 44.6479 79.9957C44.6479 80.9291 44.3946 81.4757 43.8879 81.6357C43.6612 81.7157 43.3146 81.7557 42.8479 81.7557H38.9279V83.7757ZM52.3618 85.2557C52.0151 84.8291 51.8418 84.4491 51.8418 84.1157C51.8418 83.7691 52.1285 83.3157 52.7018 82.7557C53.0351 82.4357 53.3885 82.2757 53.7618 82.2757C54.1351 82.2757 54.6551 82.6091 55.3218 83.2757C55.5085 83.5024 55.7751 83.7224 56.1218 83.9357C56.4685 84.1357 56.7885 84.2357 57.0818 84.2357C58.3218 84.2357 58.9418 83.7291 58.9418 82.7157C58.9418 82.4091 58.7685 82.1557 58.4218 81.9557C58.0885 81.7424 57.6685 81.5891 57.1618 81.4957C56.6551 81.4024 56.1085 81.2557 55.5218 81.0557C54.9351 80.8424 54.3885 80.5957 53.8818 80.3157C53.3751 80.0357 52.9485 79.5957 52.6018 78.9957C52.2685 78.3824 52.1018 77.6491 52.1018 76.7957C52.1018 75.6224 52.5351 74.6024 53.4018 73.7357C54.2818 72.8557 55.4751 72.4157 56.9818 72.4157C57.7818 72.4157 58.5085 72.5224 59.1618 72.7357C59.8285 72.9357 60.2885 73.1424 60.5418 73.3557L61.0418 73.7357C61.4551 74.1224 61.6618 74.4491 61.6618 74.7157C61.6618 74.9824 61.5018 75.3491 61.1818 75.8157C60.7285 76.4824 60.2618 76.8157 59.7818 76.8157C59.5018 76.8157 59.1551 76.6824 58.7418 76.4157C58.7018 76.3891 58.6218 76.3224 58.5018 76.2157C58.3951 76.1091 58.2951 76.0224 58.2018 75.9557C57.9218 75.7824 57.5618 75.6957 57.1218 75.6957C56.6951 75.6957 56.3351 75.8024 56.0418 76.0157C55.7618 76.2157 55.6218 76.5024 55.6218 76.8757C55.6218 77.2357 55.7885 77.5291 56.1218 77.7557C56.4685 77.9824 56.8951 78.1357 57.4018 78.2157C57.9085 78.2957 58.4618 78.4224 59.0618 78.5957C59.6618 78.7557 60.2151 78.9557 60.7218 79.1957C61.2285 79.4357 61.6485 79.8557 61.9818 80.4557C62.3285 81.0424 62.5018 81.7691 62.5018 82.6357C62.5018 83.5024 62.3285 84.2691 61.9818 84.9357C61.6351 85.5891 61.1818 86.0957 60.6218 86.4557C59.5418 87.1624 58.3885 87.5157 57.1618 87.5157C56.5351 87.5157 55.9418 87.4424 55.3818 87.2957C54.8218 87.1357 54.3685 86.9424 54.0218 86.7157C53.3151 86.2891 52.8218 85.8757 52.5418 85.4757L52.3618 85.2557ZM71.342 83.7757H77.502C77.8086 83.7757 78.0353 83.7891 78.182 83.8157C78.342 83.8291 78.522 83.8891 78.722 83.9957C79.082 84.1824 79.262 84.7024 79.262 85.5557C79.262 86.4891 79.0153 87.0357 78.522 87.1957C78.2953 87.2757 77.9486 87.3157 77.482 87.3157H69.562C68.6286 87.3157 68.082 87.0624 67.922 86.5557C67.842 86.3424 67.802 86.0024 67.802 85.5357V74.4157C67.802 73.7357 67.9286 73.2757 68.182 73.0357C68.4353 72.7824 68.9153 72.6557 69.622 72.6557H77.502C77.8086 72.6557 78.0353 72.6691 78.182 72.6957C78.342 72.7091 78.522 72.7691 78.722 72.8757C79.082 73.0624 79.262 73.5824 79.262 74.4357C79.262 75.3691 79.0153 75.9157 78.522 76.0757C78.2953 76.1557 77.9486 76.1957 77.482 76.1957H71.342V78.2157H75.302C75.6086 78.2157 75.8353 78.2291 75.982 78.2557C76.142 78.2691 76.322 78.3291 76.522 78.4357C76.882 78.6224 77.062 79.1424 77.062 79.9957C77.062 80.9291 76.8086 81.4757 76.302 81.6357C76.0753 81.7157 75.7286 81.7557 75.262 81.7557H71.342V83.7757ZM93.0159 73.6957L98.4159 84.8557C98.6425 85.3091 98.7559 85.6491 98.7559 85.8757C98.7559 86.3557 98.3692 86.7891 97.5959 87.1757C97.1425 87.4024 96.7825 87.5157 96.5159 87.5157C96.2625 87.5157 96.0492 87.4557 95.8759 87.3357C95.7159 87.2157 95.5959 87.0891 95.5159 86.9557C95.4492 86.8224 95.3492 86.6224 95.2159 86.3557L94.1759 84.1957H88.6359L87.5959 86.3557C87.4625 86.6224 87.3559 86.8157 87.2759 86.9357C87.2092 87.0557 87.0892 87.1824 86.9159 87.3157C86.7559 87.4357 86.5425 87.4957 86.2759 87.4957C86.0225 87.4957 85.6692 87.3824 85.2159 87.1557C84.4425 86.7824 84.0559 86.3557 84.0559 85.8757C84.0559 85.6491 84.1692 85.3091 84.3959 84.8557L89.7959 73.6757C89.9425 73.3691 90.1625 73.1224 90.4559 72.9357C90.7625 72.7491 91.0825 72.6557 91.4159 72.6557C92.1359 72.6557 92.6692 73.0024 93.0159 73.6957ZM91.3959 78.4957L90.0759 81.2357H92.7359L91.3959 78.4957ZM115.069 84.8357C115.269 85.3157 115.369 85.6624 115.369 85.8757C115.369 86.3824 114.955 86.8091 114.129 87.1557C113.702 87.3424 113.355 87.4357 113.089 87.4357C112.835 87.4357 112.622 87.3757 112.449 87.2557C112.289 87.1224 112.169 86.9891 112.089 86.8557C111.955 86.6024 111.435 85.3957 110.529 83.2357L109.909 83.2757H107.389V85.5357C107.389 85.8424 107.375 86.0757 107.349 86.2357C107.335 86.3824 107.275 86.5557 107.169 86.7557C106.982 87.1157 106.462 87.2957 105.609 87.2957C104.675 87.2957 104.129 87.0491 103.969 86.5557C103.889 86.3291 103.849 85.9824 103.849 85.5157V74.4157C103.849 74.1091 103.855 73.8824 103.869 73.7357C103.895 73.5757 103.962 73.3957 104.069 73.1957C104.255 72.8357 104.775 72.6557 105.629 72.6557H109.949C111.122 72.6557 112.262 73.0824 113.369 73.9357C113.902 74.3491 114.342 74.9091 114.689 75.6157C115.035 76.3224 115.209 77.1091 115.209 77.9757C115.209 79.4824 114.709 80.7224 113.709 81.6957C114.002 82.4024 114.455 83.4491 115.069 84.8357ZM107.389 79.7357H109.949C110.335 79.7357 110.722 79.5891 111.109 79.2957C111.495 79.0024 111.689 78.5624 111.689 77.9757C111.689 77.3891 111.495 76.9491 111.109 76.6557C110.722 76.3491 110.322 76.1957 109.909 76.1957H107.389V79.7357ZM129.431 83.4757L129.791 83.2157C130.244 82.9491 130.564 82.8157 130.751 82.8157C131.164 82.8157 131.611 83.1891 132.091 83.9357C132.384 84.4024 132.531 84.7757 132.531 85.0557C132.531 85.3357 132.437 85.5691 132.251 85.7557C132.077 85.9424 131.871 86.1091 131.631 86.2557C131.391 86.4024 131.157 86.5424 130.931 86.6757C130.717 86.8091 130.271 86.9824 129.591 87.1957C128.911 87.4091 128.251 87.5157 127.611 87.5157C126.984 87.5157 126.344 87.4357 125.691 87.2757C125.051 87.1024 124.384 86.8224 123.691 86.4357C123.011 86.0357 122.397 85.5557 121.851 84.9957C121.304 84.4224 120.851 83.6957 120.491 82.8157C120.144 81.9224 119.971 80.9557 119.971 79.9157C119.971 78.8757 120.144 77.9357 120.491 77.0957C120.837 76.2424 121.277 75.5424 121.811 74.9957C122.357 74.4357 122.977 73.9691 123.671 73.5957C124.977 72.8757 126.291 72.5157 127.611 72.5157C128.237 72.5157 128.871 72.6157 129.511 72.8157C130.164 73.0024 130.657 73.1957 130.991 73.3957L131.471 73.6757C131.711 73.8224 131.897 73.9424 132.031 74.0357C132.377 74.3157 132.551 74.6357 132.551 74.9957C132.551 75.3424 132.411 75.7091 132.131 76.0957C131.611 76.8157 131.144 77.1757 130.731 77.1757C130.491 77.1757 130.151 77.0291 129.711 76.7357C129.151 76.2824 128.404 76.0557 127.471 76.0557C126.604 76.0557 125.751 76.3557 124.911 76.9557C124.511 77.2491 124.177 77.6624 123.911 78.1957C123.644 78.7291 123.511 79.3357 123.511 80.0157C123.511 80.6824 123.644 81.2824 123.911 81.8157C124.177 82.3491 124.517 82.7691 124.931 83.0757C125.744 83.6624 126.591 83.9557 127.471 83.9557C127.884 83.9557 128.271 83.9024 128.631 83.7957C129.004 83.6891 129.271 83.5824 129.431 83.4757ZM146.905 73.1957C147.012 72.9957 147.192 72.8557 147.445 72.7757C147.698 72.6957 148.018 72.6557 148.405 72.6557C148.792 72.6557 149.098 72.6891 149.325 72.7557C149.552 72.8224 149.725 72.9024 149.845 72.9957C149.965 73.0891 150.058 73.2224 150.125 73.3957C150.192 73.6224 150.225 73.9691 150.225 74.4357V85.5357C150.225 85.8424 150.212 86.0757 150.185 86.2357C150.172 86.3824 150.112 86.5557 150.005 86.7557C149.818 87.1157 149.298 87.2957 148.445 87.2957C147.512 87.2957 146.965 87.0491 146.805 86.5557C146.725 86.3291 146.685 85.9824 146.685 85.5157V81.4557H141.385V85.5357C141.385 85.8424 141.372 86.0757 141.345 86.2357C141.332 86.3824 141.272 86.5557 141.165 86.7557C140.978 87.1157 140.458 87.2957 139.605 87.2957C138.672 87.2957 138.125 87.0491 137.965 86.5557C137.885 86.3291 137.845 85.9824 137.845 85.5157V74.4157C137.845 74.1091 137.852 73.8824 137.865 73.7357C137.892 73.5757 137.958 73.3957 138.065 73.1957C138.252 72.8357 138.772 72.6557 139.625 72.6557C140.558 72.6557 141.112 72.9024 141.285 73.3957C141.352 73.6224 141.385 73.9691 141.385 74.4357V78.5157H146.685V74.4157C146.685 74.1091 146.692 73.8824 146.705 73.7357C146.732 73.5757 146.798 73.3957 146.905 73.1957Z" fill="white"/>
<path d="M23.1684 44.0397L26.943 47.8215C27.5475 48.4336 27.9976 49.1229 28.287 49.896C28.5763 50.6691 28.7242 51.4551 28.7242 52.2411C28.7242 53.0271 28.5763 53.8067 28.287 54.5669C27.9976 55.3272 27.5475 56.0165 26.943 56.6221C26.3643 57.202 25.6891 57.653 24.9304 57.9751C24.1716 58.2908 23.3742 58.4518 22.5447 58.4518H6.21169C5.35646 58.4518 4.54624 58.2843 3.78746 57.9558C3.02868 57.6207 2.37279 57.1826 1.81978 56.6286C1.26677 56.0745 0.823081 55.4174 0.495135 54.6571C0.160758 53.8969 0 53.0851 0 52.2283V35.8575C0 35.0007 0.167188 34.1889 0.495135 33.4287C0.829511 32.6684 1.26677 32.0113 1.81978 31.4572C2.37279 30.9032 3.02868 30.4586 3.78746 30.1301C4.54624 29.795 5.35646 29.634 6.21169 29.634C7.06692 29.634 7.87071 29.8015 8.61663 30.1301C9.36255 30.4586 10.012 30.9032 10.565 31.4572C11.118 32.0113 11.5617 32.6684 11.8897 33.4287C12.224 34.1889 12.3848 35.0007 12.3848 35.8575V37.2298L18.1528 31.4508C18.7572 30.8452 19.4453 30.3942 20.2041 30.0978C20.9628 29.8079 21.7473 29.6597 22.5447 29.6597C23.3421 29.6597 24.1266 29.8079 24.8853 30.0978C25.6441 30.3878 26.3322 30.8387 26.9366 31.4508C27.5411 32.0628 27.9912 32.7458 28.2806 33.506C28.5699 34.2662 28.7178 35.0458 28.7178 35.8318C28.7178 36.6178 28.5699 37.4038 28.2806 38.1769C27.9912 38.95 27.5411 39.6458 26.9366 40.2514L23.162 44.0332L23.1684 44.0397Z" fill="white"/>
<path d="M47.6286 54.4639L45.931 56.2098C45.1851 56.9572 44.3363 57.5177 43.3846 57.8914C42.4329 58.265 41.4555 58.4519 40.4652 58.4519C39.475 58.4519 38.4976 58.265 37.5459 57.8914C36.5942 57.5177 35.7454 56.9572 34.9995 56.2098C34.2536 55.4625 33.6941 54.6121 33.3212 53.6586C32.9482 52.7051 32.7617 51.7258 32.7617 50.7272C32.7617 49.7286 32.9482 48.7557 33.3212 47.8022C33.6941 46.8487 34.2536 45.9983 34.9995 45.2509L48.8375 31.3735C49.5577 30.6519 50.3937 30.0914 51.3453 29.692C52.297 29.2926 53.3002 29.0928 54.3483 29.0928C55.3964 29.0928 56.4253 29.2926 57.3513 29.692C58.2772 30.0914 59.0939 30.6455 59.7948 31.3542C60.5021 32.0629 61.0551 32.8747 61.4538 33.8024C61.8525 34.7301 62.0518 35.7352 62.0518 36.8111V50.7272C62.0518 51.8095 61.8525 52.8081 61.4538 53.7359C61.0551 54.6636 60.5021 55.4818 59.7948 56.1841C59.0875 56.8863 58.2772 57.4468 57.3513 57.8463C56.4253 58.2457 55.4222 58.4454 54.3483 58.4454C52.9079 58.4454 51.5897 58.0846 50.3872 57.3631C49.1848 56.6415 48.2652 55.6751 47.6286 54.4575V54.4639Z" fill="white"/>
<path d="M80.0632 31.3734L84.3329 35.6513C84.3844 34.7944 84.603 33.9762 84.9759 33.2031C85.3489 32.43 85.8312 31.7664 86.4292 31.2123C87.0208 30.6583 87.7217 30.2137 88.5191 29.8852C89.3228 29.5501 90.1652 29.3891 91.0462 29.3891C91.985 29.3891 92.8659 29.563 93.6762 29.9109C94.4928 30.2588 95.2002 30.7356 95.811 31.3412C96.4219 31.9532 96.9042 32.6619 97.2643 33.4801C97.6244 34.2984 97.8044 35.1745 97.8044 36.1152V51.9834C97.8044 53.3105 97.4443 54.5282 96.7241 55.6363L96.6856 55.7201C96.1904 56.4932 95.5538 57.131 94.7822 57.6335C93.6504 58.3809 92.403 58.7546 91.0526 58.7546C89.7022 58.7546 88.5126 58.3938 87.4066 57.6722L87.368 57.6335C87.1494 57.4982 86.9436 57.3501 86.77 57.1954C86.59 57.0408 86.4163 56.8862 86.2492 56.7187L81.9794 52.4408C81.9215 53.3299 81.7093 54.1481 81.3364 54.9148C80.9634 55.675 80.4747 56.3386 79.8638 56.9055C79.253 57.4725 78.5585 57.9235 77.7676 58.2585C76.9831 58.5935 76.1407 58.7546 75.2597 58.7546C74.3209 58.7546 73.4399 58.5742 72.6297 58.2134C71.8131 57.8526 71.0993 57.3694 70.4949 56.7573C69.884 56.1517 69.4017 55.4366 69.0416 54.6184C68.6815 53.8002 68.5015 52.924 68.5015 51.9834V36.1087C68.5015 35.1681 68.6815 34.2855 69.0416 33.4737C69.4017 32.6555 69.884 31.9468 70.4949 31.3347C71.0993 30.7291 71.8131 30.2459 72.6297 29.9045C73.4464 29.5566 74.3209 29.3826 75.2597 29.3826C76.1471 29.3826 77.0088 29.5566 77.8511 29.9045C78.6935 30.2524 79.433 30.742 80.0696 31.3798L80.0632 31.3734Z" fill="white"/>
<path d="M131.05 40.9214L126.864 45.1156C127.72 45.1736 128.523 45.3862 129.269 45.7598C130.015 46.1335 130.671 46.6167 131.237 47.2159C131.803 47.8086 132.246 48.4979 132.562 49.2711C132.877 50.0442 133.037 50.8753 133.037 51.7644C133.037 52.6534 132.864 53.5361 132.517 54.3414C132.169 55.1467 131.693 55.849 131.089 56.461C130.478 57.0731 129.777 57.5498 128.973 57.8913C128.17 58.2392 127.314 58.4131 126.401 58.4131H110.898C109.599 58.4131 108.396 58.0524 107.29 57.3308L107.207 57.2921C106.461 56.796 105.837 56.1711 105.342 55.4238C104.622 54.3156 104.262 53.098 104.262 51.7708C104.262 50.4436 104.609 49.2775 105.297 48.2016L105.336 48.1178C105.471 47.9246 105.619 47.7377 105.773 47.5573C105.927 47.3769 106.082 47.203 106.249 47.0355L110.435 42.8413C109.58 42.7833 108.776 42.5707 108.03 42.1971C107.284 41.8234 106.628 41.3402 106.062 40.741C105.496 40.1483 105.053 39.4589 104.738 38.6858C104.422 37.9127 104.262 37.0816 104.262 36.1925C104.262 35.3034 104.435 34.4208 104.783 33.6155C105.13 32.8102 105.599 32.1143 106.191 31.5152C106.782 30.9225 107.49 30.4522 108.306 30.1043C109.123 29.7563 109.985 29.5824 110.898 29.5824H126.401C127.314 29.5824 128.17 29.7563 128.973 30.1043C129.777 30.4522 130.478 30.9225 131.089 31.5152C131.693 32.1079 132.176 32.8102 132.517 33.6155C132.864 34.4208 133.037 35.2777 133.037 36.1925C133.037 37.1074 132.864 37.932 132.517 38.7438C132.169 39.562 131.681 40.29 131.044 40.9214H131.05Z" fill="white"/>
<path d="M169 43.8722V44.2072C169 46.6747 168.544 48.8266 167.631 50.6627C166.717 52.5053 165.509 54.0322 164.004 55.2499C162.499 56.4675 160.782 57.3888 158.866 58.0138C156.943 58.6387 154.989 58.9479 153.002 58.9479C151.015 58.9479 149.053 58.6387 147.137 58.0138C145.214 57.3888 143.504 56.4675 141.999 55.2499C140.495 54.0322 139.286 52.5053 138.373 50.6627C137.459 48.8201 137.003 46.6683 137.003 44.2072V43.8722C137.003 41.4111 137.459 39.2528 138.373 37.4167C139.286 35.5741 140.495 34.0472 141.999 32.8295C143.504 31.6119 145.221 30.6906 147.137 30.0657C149.06 29.4407 151.015 29.1315 153.002 29.1315C154.989 29.1315 156.943 29.4407 158.866 30.0657C160.789 30.6906 162.499 31.6119 164.004 32.8295C165.509 34.0472 166.717 35.5805 167.631 37.4167C168.544 39.2593 169 41.4111 169 43.8722Z" fill="white"/>
</svg>
